<?xml version="1.0" encoding="utf-8"?>
<!-- Generator: Adobe Illustrator 24.3.0, SVG Export Plug-In . SVG Version: 6.00 Build 0)  -->
<svg version="1.1" xmlns="http://www.w3.org/2000/svg" xmlns:xlink="http://www.w3.org/1999/xlink" x="0px" y="0px"
	 viewBox="0 0 500 500" style="enable-background:new 0 0 500 500;" xml:space="preserve">
<style type="text/css">
	.st0{display:none;}
	.st1{display:inline;fill:#009ADE;}
	.st2{fill:#3D5DA8;}
	.st3{display:none;fill:#FFFFFF;}
	.st4{font-family:'TrashHand';}
	.st5{font-size:31.2586px;}
	.st6{fill:#C6E9FA;}
	.st7{fill:#FDD19D;}
	.st8{fill:#0072A3;}
	.st9{fill:#6C6080;}
	.st10{fill:#009ADE;}
	.st11{fill:#FFFFFF;}
	.st12{fill:#8779A0;}
	.st13{fill:#7A5F60;}
	.st14{fill:#50374E;}
	.st15{fill:#FBB980;}
	.st16{fill:#664F50;}
	.st17{fill:#917272;}
	.st18{fill:#0087C2;}
	.st19{fill:#00B7F0;}
	.st20{fill:#9191C6;}
	.st21{fill:#F79C62;}
	.st22{fill:#F06464;}
	.st23{fill:#EE3A50;}
	.st24{fill:#F06875;}
	.st25{fill:#F69335;}
	.st26{fill:#EF5670;}
	.st27{fill:#F26F33;}
	.st28{fill:#EC1845;}
	.st29{fill:none;}
	.st30{fill:#EE4052;}
	.st31{fill:#EE435F;}
	.st32{fill:#F4969A;}
	.st33{fill:#FBB54E;}
	.st34{fill:#F1718A;}
	.st35{font-size:83.0266px;}
	.st36{font-family:'Amatic-Bold';}
	.st37{font-size:22.5167px;}
	.st38{display:inline;}
</style>
<g id="BACKGROUND" class="st0">
	<rect class="st1" width="500" height="500"/>
</g>
<g id="OBJECTS">
	<path class="st2" d="M398.2,61.7c-3.9,6.9-6.5,14.6-6.3,22.5c0.2,7.9,3.3,15.7,8.5,21.6c7.2,8.1,18.4,12.4,29.3,11.9
		c10.9-0.5,21.3-5.6,29-13.4c7.5-7.7,12.5-18.1,12.5-28.9c0-10.8-5.3-21.6-14.3-27.4C438.7,36.5,409.1,42.6,398.2,61.7z"/>
	<path class="st2" d="M65.3,33.4c-6.4,2-12.5,5.4-16.9,10.4c-4.4,5-7,11.7-7.1,18.4c-0.2,9.2,4.3,18.3,11.4,24.3
		c7.1,5.9,16.5,8.8,25.8,8.3c9.1-0.4,18.2-4.1,24.4-10.8c6.2-6.7,9.2-16.5,6.9-25.3C105,41,83,27.8,65.3,33.4z"/>
	<path class="st2" d="M55.5,369.2c-6-5.3-12.8-8.7-19.5-8.1c-6.7,0.6-13.1,5.2-17.8,12.8c-6.5,10.5-9.5,26.4-8.4,41.7
		s6,29.9,13,40.4c6.9,10.4,16.1,17,25.2,16.6c9.1-0.4,18-8.2,22.4-21.2C79.2,425.4,72.3,383.8,55.5,369.2z"/>
	<path class="st2" d="M472.1,367.2c-6.3-3.4-13.5-5.5-20.6-5c-7.1,0.5-14,3.6-19.2,8.7c-7.1,7-10.5,17.6-9.6,27.6
		c0.9,10.1,5.9,19.6,13.1,26.5c7.2,6.7,16.8,10.9,26.5,10.6c9.7-0.4,19.3-5.7,24.2-14.3C496.4,403.9,489.7,376.6,472.1,367.2z"/>
	<path class="st2" d="M245.2,209.5c-6.7-10.8-14.7-20.7-23.5-29.1c-15.4-14.6-33-25.2-50.6-29.9C111,134.4,62.7,187.1,54.9,255.2
		c-2.4,20.7-0.2,43.7,7.7,65c5.9,15.8,14.7,30.2,23.7,44.1c9.6,14.8,19.9,29.6,32.7,39.6c10.2,8,21.5,12.5,32.6,16.6
		c24.6,8.9,45.7,8.6,63.5-9c11.3-11.2,19.5-26.4,26.9-42.1c9.4-19.8,18-40.7,21.7-64.4C268.6,273.6,263.7,239.4,245.2,209.5z"/>
	<path class="st2" d="M458.7,239.3c-2.4-11.4-6.3-22.5-11.4-32.5c-9-17.5-21.3-32.1-35.7-41.8c-48.9-33-110.4-3.1-140.3,53
		c-9.1,17.1-14.9,37.5-14.9,58.3c0,15.5,3.1,30.7,6.6,45.5c3.7,15.8,8,31.8,16.2,44.4c6.6,10.2,15.2,17.6,23.9,24.6
		c19.2,15.4,38.4,21.9,60.4,12.5c14-6,26.5-16.5,38.5-27.6c15.2-14,30-29.2,41.3-48.4C458.3,301.8,465.3,270.9,458.7,239.3z"/>
	<text transform="matrix(1 0 0 1 208.6583 46.9308)" class="st3 st4 st5">welcome</text>
	<g>
		<path class="st6" d="M213.6,211.7c0.2,0.7-0.3,1.4-0.8,1.9c-0.6,0.7-1.3,1.3-2,1.9c-0.2,0.2-0.4,0.3-0.6,0.2
			c-0.1-0.1-0.2-0.2-0.3-0.3c-0.8-1.5-1.7-3.1-1.4-4.8c0.5-0.7,1.5-1,2.3-0.9c0.9,0.1,1.6,0.6,2.3,1.2
			C213.3,211.2,213.5,211.4,213.6,211.7z"/>
		<path class="st7" d="M132.1,316.5c0,0.7-0.2,1.3-0.6,1.7c-1.9,1.9-4.8-0.2-5.4-2.2c-0.1-0.5,0.6-0.8,0.8-0.3
			c2.3,4.4,4.1-0.7,3.5-2.8c-0.3-1.2-0.7-2.4-1.3-3.6c-0.9-1.8-1.7-3.7-2.9-5.4c-5.4-7.6-13.2,0.9-13.9,7c0,0.3-0.5,0.3-0.5,0
			c0.1-5.6,4.8-10.8,9.6-10.9c-1.1-4.9-6.9-8.5-11.9-6.9c-4.2,1.3-6.1,4.9-8.6,8.2c-0.4,0.5-1.2,0.1-0.9-0.5c2.4-5,6-9,11.4-9.3
			c0.9-6.2-5.8-8.6-10.8-8.8c-5.8-0.3-8.8,4.5-10.2,9.5c-2.3,8.1-1.1,16.3,5,22.5c5.5,5.6,12.4,10.2,20,12.6
			c4.4,1.4,10,2.6,14.2-0.3C133.4,324.4,134.6,320.2,132.1,316.5z M123.6,321.2c-0.3,0.4-0.8-0.1-0.6-0.5c1.2-2.5,2-4.7,2.3-7.5
			c0-0.4,0.6-0.4,0.7,0C126.2,316,125.3,319,123.6,321.2z"/>
		<path class="st7" d="M201.6,190c4.3,5.3,6.7,12.3,7.4,19.6c2.8-3.9,5.8-7.2,6.9-12c1.6-6.6,0.7-15-7.6-16c-0.1,0-0.1,0-0.1-0.1
			c-0.4,1-0.9,1.9-1.5,2.9C205.2,186.9,203.6,189,201.6,190z"/>
		<path class="st7" d="M149.2,310.3c-2.3,1.2-4.6,0.2-6.9-1c-2.6-1.3-5.1-2.7-7.5-4.2c0,0-0.1,0.1-0.1,0.1c-0.8,0.4-1.8,0.6-2.7,0.9
			c-0.8,0.3-1.7,0.7-2.5,0.9c1,1.8,1.8,3.6,2.2,5.5c0.1,0.5,0.3,1.2,0.4,2c5.6,3.9,3,9.9-1.6,13.1c7.2-0.5,13.3-1.8,19.2-6.3
			C149.1,317.7,149,314,149.2,310.3z"/>
		<path class="st7" d="M111.9,291.6c0.5,0,1.1,0,1.6,0.1c3,0.3,6.3,2.4,7.7,5.2c-0.3-4-1-7.8-4.2-10.7c-3.7-3.4-7.9-4.4-12.7-4.3
			c1.8,0.5,3.3,1.2,4.2,1.8C111.2,285.7,112.7,288.4,111.9,291.6z"/>
		<path class="st8" d="M140.6,351c-0.7-0.3-1.3-0.5-2-0.7c-2.4-1-3.6,0.1-3.6,3.5c0.8,1.2,1.5,2.1,2.5,3c1.2-2,2.5-3.8,4-5.4
			C141.2,351.2,140.9,351.1,140.6,351z"/>
		<path class="st9" d="M127.9,382.2c-7.5-6-15.8-10.5-24.8-13.8c-5.7,3.9-0.6,14.4,1.6,18.8c2,4,4.2,7.9,6.9,11.4
			c6.3,8.3,16.8,18.9,27.8,10.9C150.4,401.5,134.6,387.6,127.9,382.2z"/>
		<path class="st10" d="M187.5,274.7c-1.7,0.4-3.5,0.2-5.1-0.5c0.9,8.3,0.7,16.8-0.8,24.9c-0.5,2.6-1.3,5.8,1.2,7.8
			c2,1.6,4.1,3.2,6.2,4.8c1.1,0.8,9.5,7.7,10.4,6.2c2.6-4.3,5.1-8.7,7.4-13.1c0.8-1.5,3.4-4.8,2.1-6.6c-1.3-1.8-2.6-3.5-3.8-5.3
			c-4.7-6.9-9.7-14.1-13.2-21.7C190.9,272.9,189.4,274.3,187.5,274.7z"/>
		<path class="st7" d="M156.5,265.3c7.5-0.5,14.9-2.3,21.6-5.6c12.1-6,22.6-16.4,26.9-29.4c2.2-6.7,3.2-13.9,2.3-20.9
			c-0.9-7-3.6-12.7-6.6-18.9c-1.6,0.6-3.4,0.5-5.7-0.4c-10.8-4.4-9.8-17.8-17.1-25.4c-4.8-5-12.1-3.2-18.2-1.8
			c-5.5,1.2-10.9,2.5-16.1,4.6c-6.8,2.8-13.3,6.3-19.6,10.1c-5.7,3.4-11.9,6.8-16.5,11.7c-5.5,5.9-7.9,12.7-5.4,20.6
			c1.6,5,4.2,10,4.6,15.3c0.3,3.8-1.7,6.4-4.4,7.5c7.3,13,15,25.5,30.2,30c7.5,2.2,15.4,3.2,23.3,2.8
			C156,265.3,156.2,265.3,156.5,265.3z"/>
		<path class="st11" d="M178.9,261.1c-4.5,2.1-9.3,3.7-14.2,4.7c2.1,2.7,10.5,11.2,12.8,5.7c1.6-3.8,2.8-8.1,5-11.6
			c0.1-0.2,0.4-0.1,0.4,0.2c-0.1,0.4-0.2,0.8-0.3,1.3c0.1,0,0.1-0.1,0.2,0c3.1,0.5,6.1,1.3,9,2.3c0.6,0.2,3.7,1.8,4.2,0.8
			c0.8-1.5,1.7-3.1,2.3-4.7c2-5.3,2.6-10.5,1.5-16C194.4,251.1,187.2,257.2,178.9,261.1z"/>
		<path class="st7" d="M97.3,233.1c-1.4,5.4-1.6,12,2.7,16.3c4.1,4.1,8.9,4.8,14.2,3.1c-5.1-5.6-9-12.4-12.6-19.6
			C100.2,233.3,98.7,233.4,97.3,233.1z"/>
		<path class="st10" d="M182.5,262c-0.1,0-0.1-0.1-0.1-0.1c-0.8,2.8-2,5.6-3,8.4c0,0,0,0,0,0c2.8,2.1,5.4,5.4,9.2,2.5
			c2.6-1.9,3.1-4.7,4.4-7.4C189.6,264,186.1,263,182.5,262z"/>
		<path class="st12" d="M133.3,372.8c0.2,0.3,0.4,0.6,0.6,0.9c0.2,0.3-0.3,0.6-0.5,0.3c-6.3-8.3-20.9-13.4-29.4-6.1
			c12.2,3.9,23.7,11,32.4,20.4c4.1,4.4,8.3,9.2,8.2,15.6c0,0.8-0.2,1.5-0.5,2.2c4.4-5.1,6.3-14,2.6-19.5
			C143.1,381.2,137.8,377.3,133.3,372.8z"/>
		<path class="st11" d="M149,309.2c0.1,0,0.2,0,0.3,0c0.8-14.7,5.8-29.9,11.4-42.7c-1.8,0.3-3.7,0.5-5.5,0.6c-4,2-8.8,8.4-10.5,10.5
			c-3,3.8-5.8,7.8-8,12.1c-1.7,3.2-6.9,10.3-3,12.9C137.4,305.1,144.1,310.3,149,309.2z"/>
		<path class="st7" d="M219,379c1.2,6.9,1.8,14.3,4,20.9c2.6,7.8,13.1,8.5,19.6,5.4c2.5-9.6,1.2-19.7,1.8-29.6
			C236.5,379,227.4,379.4,219,379z"/>
		<path class="st11" d="M209.3,214.9c0,5.6-1,11.1-2.7,15.9c-1.3,3.6-3.1,7.1-5.2,10.4c6,9,11.1,18.4,17.1,27.2
			c2.2-0.8,5-5.4,6.1-6.8c2.3-2.9,4.5-5.8,6.5-8.9c3.1-4.6,5.9-9.4,8.6-14.2C227,235.1,215.1,226.8,209.3,214.9z"/>
		<path class="st6" d="M240,237c-0.4-1.8-0.6-3.7-1.3-5.5c-0.7-1.7-1.8-3.1-2.7-4.6c-1.1,2.7-2.3,5.2-3.8,7.4
			C234.7,235.4,237.2,236.3,240,237z"/>
		<path class="st11" d="M200.6,242.5C200.6,242.5,200.6,242.5,200.6,242.5c3.3,7.8,0.2,17.1-4.1,23.7c-0.2,0.3-0.6,0.4-0.9,0.2
			c-0.5-0.2-1-0.4-1.5-0.6c-0.2,1.4-0.7,2.9-1.4,4.3c6.2,9.6,11.6,19.5,18.5,28.7c0.1,0.2,0.1,0.5,0,0.7c-3.5,7-7.3,13.8-11.4,20.5
			c-0.2,0.3-0.6,0.4-0.9,0.2c-4.4-3-8.8-6.1-13-9.3c-1.6-1.3-5.9-3.5-6.1-6c-0.4-5,1.7-10.4,2-15.4c0.4-5.3,0.4-10.5,0.1-15.8
			c-1.2-0.7-2.1-1.8-2.6-3.2c-0.2,0.4-0.3,0.8-0.5,1.2c-0.5,1.4-0.8,3.2-2.7,3c-5.4-0.6-10.4-3.7-12.6-8.7c-0.7,0.1-1.4,0.3-2.1,0.4
			c0.1,0.1,0.2,0.2,0.1,0.4c-2.7,8.7-5.9,17.3-7.9,26.2c-2,9.2-2.6,18.2-2.8,27.6c0,0,0,0,0.1,0c0.1-0.1,0.2-0.2,0.4-0.1
			c15.8,9.8,34.4,14.9,53.1,11.9c8.5-1.3,16.7-3.9,24.3-8c7.1-3.9,12.9-9,19-14.2c0-0.2,0-0.3,0.1-0.5c5.6-8.8-6.9-14.9-12.3-19.5
			c-5.2-4.4-9.8-9.3-13.9-14.7c-8-10.2-15.1-21.9-20.4-33.7C200.8,242,200.7,242.3,200.6,242.5z"/>
		<path class="st10" d="M167,329.8c-1.2,4.3-7,7.6-11,8.2c-0.6,0.1-0.8-0.7-0.2-0.9c2.2-0.7,4.5-1.5,6.3-2.9
			c1.8-1.3,2.9-3.1,4.4-4.6c-3.9-1.5-7.6-3.4-11.1-5.6c-4.9,3.9-9.4,7.4-13,12.7c-2.7,4-4.8,8.3-7.2,12.4c2.1-0.9,6.2,0.9,7.5,1.5
			c9.6,4,23.1,9.3,27.5,19.7c5.1-9.6,13.5-18.6,25.2-17.3c11.7,1.2,15.9,15.2,17.3,24.8c7.1,0,14.4,0.4,21.4-0.9
			c6.3-1.2,11.8-3.5,17.3-6.7c-0.3,0.1-0.7-0.1-0.6-0.5c1.1-4.3,2.2-8.1,1.8-12.7c-0.4-4.6-1.1-9.1-2-13.6
			c-1.8-8.9-4.5-17.3-8.9-25.3c0,0,0,0,0-0.1c-10.7,9-25.5,14.7-38.6,16.2C190.9,335.7,178.4,334.2,167,329.8z M227,328
			c3.8,3.6,8.2,5.6,13.4,6.3c0.6,0.1,0.7,1,0,1c-5.4,0-10.6-2.5-13.9-6.7C226.2,328.2,226.7,327.7,227,328z"/>
		<path class="st7" d="M164.2,367.7c-1.2,1.5,0.6-1,1.5-1.7c0,0,0,0,0,0c0-0.1,0-0.2,0-0.2c-1.4-1.5-3-2.9-4.7-4.1
			c-3-2-6.1-3.9-9.3-5.5c-3.1-1.6-6.2-3.2-9.4-4.5c-2.2,3.1-4.3,6.3-5.6,10c-1.1,3.3-1.6,6.7-2.3,10.1c0,0.2-0.2,0.3-0.4,0.3
			c6.3,5,14.1,11.3,15.8,19.3c0,0.2,0.1,0.5,0.1,0.7c1.8-4.8,4.3-9.5,7.1-13.9c1.7-2.7,3.4-5.3,5.3-7.8
			C162.9,369.4,163.5,368.5,164.2,367.7z"/>
		<path class="st7" d="M271.6,168.8c-2.4,0.7-4.5,1.7-6.5,3.1c-0.4,0.3-0.7-0.4-0.4-0.6c0.4-0.3,1.2-0.8,2.1-1.3
			c4-4.1,7.9-9.3,8.9-15.1c1.6-9-5.5-5.7-8.3-3.2c-0.8,0.7-1.6,1.5-2.4,2.2c-2,1.9-3.9,3.8-5.9,5.6c-0.1,0.1-0.3,0.1-0.4,0.1
			c-0.1,0.2-0.3,0.4-0.4,0.6c-0.2,0.2-0.6,0-0.4-0.2c2.1-3.7,3.2-8,4.4-12.1c0.7-2.5,1.3-7.5-1.1-9.5c-4.8-4.1-13,14.7-15.2,17.5
			c-0.1,0.1-0.2,0.1-0.2,0.1c0,0.1,0,0.1,0,0.2c-0.1,0.4-0.6,0.2-0.5-0.1c0.4-2.5,1.2-5.7,0.4-8.3c-0.4-1.9-1.4-3.4-3-4.5
			c-2.9-1.8-5.2-0.9-6.9,2.8c-1,4.4-0.4,9-0.9,13.5c-0.8,8.2-1.5,17.8-4.5,25.5c-2.3,6-5.7,11.8-9.2,17.2c-3.1,4.8-6.1,9.9-10,14.1
			c5.5,7.6,12.2,13.8,20.5,17.7c0,0,0,0,0.1-0.1c0,0,0,0,0,0c0.3-0.6,0.7-1.4,0.8-1.6c0.7-1.6,1.4-3.2,2-4.9
			c1.2-3.1,2.5-6.2,3.8-9.3c3.1-7.4,6.7-14.6,10.7-21.6c1.6-2.8,3.2-5.9,5.6-8.1c2.6-2.4,5.7-3.9,8.9-5.4c4-2,8.3-4.5,10.4-8.5
			C275.2,171.9,276.2,167.3,271.6,168.8z"/>
		<path class="st8" d="M166.5,366.7c-1.5,2.1-2.9,4.2-4.2,6.4c0.1,0,0.1,0,0.1,0c4.9,1.3,6.9,0.1,5.9-3.6
			C167.8,368.4,167.2,367.5,166.5,366.7z"/>
		<path class="st13" d="M101,211.6c-3.4-10.7,0.1-19.7,8.8-26.6c9.5-7.4,20.7-14,31.8-18.5c9.2-3.7,21.3-7.7,31.3-6.5
			c9.5,1.2,11.2,14.8,14.9,21.3c1.9,3.3,6.5,8.8,10.9,8.3c3.4-0.4,5.9-4.3,7.3-7.2c3.3-6.9,2.8-14.2,0.1-21.3
			c-4.6-12.2-12.2-22.7-23.8-29c-0.4-0.2-0.1-0.8,0.4-0.6c0.1,0,0.2,0.1,0.3,0.1c0.7-0.4,1.5-0.5,2.3-0.7c1.3-0.4,4-2.1,1.9-3.8
			c-2.3-1.9-5.5-1.6-8.1-0.8c0.2,0.5-0.5,1-1,0.6c-1.5-1.6-3.1-3.5-5.1-4.5c-1.7-0.9-4.6-1.9-5.9,0.5c-1,1.9-0.4,3.5,0.5,5.2
			c0.1,0.2,0,0.3-0.2,0.4c0.1,0.1,0.2,0.2,0.2,0.3c0.4,0.6-0.5,1.2-1,0.8c-14.6-14.2-32.7-5.8-49.8-2.2c-8.4,1.8-17,2.2-25.4,0.5
			c-5-1.1-12.6-3.8-16,1.9c-2.9,4.9-1.4,9.9,1.8,14.1c1.8,0,3.7,0,5.6-0.2c0.6-0.1,0.7,0.9,0.1,1c-4.8,0.8-9.6,1-14.4-0.1
			c-5-1.1-9.7-4.1-14.7-4.8c-10.7-1.5-12.8,10.1-8.5,17.4c2.7,4.5,6.2,7.8,10.4,10.7c1,0.2,2.1,0.5,3.1,0.8c0.6,0.2,0.4,1.1-0.3,1
			c-4-1-10.4-2.7-13.6,1.1c-3,3.7-1.8,8.9,1.6,11.8c4.3,3.7,10,5.6,15.1,7.9c3.8,1.7,7.7,3.1,11.4,5c1.6,0.8,3,1.8,4,3.3
			c2.8,4.5,4.7,9.9,7.1,14.7c2.9,5.6,6.9,19.2,14.9,18.5C110.2,230.9,102.8,217.2,101,211.6z"/>
		<path class="st12" d="M242.2,406.7c-4.9,3-14.2,2.4-18-2c-0.1-0.1-0.1-0.2-0.2-0.3c-2.2,6.3-5.4,12.7-4.5,19.6
			c1,7.9,7.5,12.3,15.1,13.3c8.2,1.1,12.5-9.6,12-16.3c-0.4-5-2.3-9.4-3.4-14.2C242.8,407.3,242.2,407.1,242.2,406.7z M227.2,414.7
			c3.6-2.5,8.8-2.1,11.8,1.3c0.4,0.4-0.2,1-0.6,0.6c-3.1-2.6-7.2-3.2-10.9-1.3C227.1,415.5,226.8,415,227.2,414.7z M239.1,422.8
			c-4.1-1.9-7.4-2.4-11.7-0.7c-0.3,0.1-0.4-0.3-0.2-0.5c3.4-2.5,9.3-2.5,12.4,0.6C239.9,422.5,239.5,423,239.1,422.8z"/>
		<path class="st14" d="M125.3,313.3c-0.3,2.8-1.1,5-2.3,7.5c-0.2,0.4,0.3,0.9,0.6,0.5c1.7-2.2,2.6-5.2,2.4-8
			C125.9,312.8,125.3,312.8,125.3,313.3z"/>
		<path class="st14" d="M240.4,335.3c0.7,0,0.6-0.9,0-1c-5.2-0.6-9.6-2.6-13.4-6.3c-0.4-0.3-0.8,0.2-0.5,0.5
			C229.9,332.7,235.1,335.3,240.4,335.3z"/>
		<path class="st14" d="M227.2,421.5c-0.2,0.2-0.1,0.6,0.2,0.5c4.3-1.7,7.6-1.2,11.7,0.7c0.4,0.2,0.8-0.3,0.5-0.6
			C236.5,419.1,230.6,419.1,227.2,421.5z"/>
		<path class="st14" d="M227.5,415.3c3.6-1.9,7.7-1.4,10.9,1.3c0.4,0.4,1-0.2,0.6-0.6c-3-3.3-8.2-3.8-11.8-1.3
			C226.8,415,227.1,415.5,227.5,415.3z"/>
		<path class="st14" d="M268.8,169c4.8-4.5,10.6-13.2,7.6-19.1c-3.4-6.7-11.9,2.3-16,6.9c1.8-3.5,3-7.6,3.5-11
			c0.4-2.9,0-6.6-2.3-8.6c-5.2-4.4-12.5,10.9-15.4,16.5c0.9-5.4,0.2-11.6-6.5-12.4c-7.6-0.9-6,14.6-6.3,18.3
			c-0.6,6.3-1.8,12.6-3,18.9c-1.1,6.3-3.9,11.4-6.9,17c-3,5.5-6.5,10.7-10.1,15.9c-0.5-0.8-1.7-1.4-2.8-1.6
			c4.8-4.2,7.3-11.4,7.4-17.6c0.1-5.6-3.9-11.3-9.8-11.2c2.1-5.4,1.7-11.5,0.2-17.1c-3.5-12.6-12-25.2-23.8-31.3
			c1-0.2,2-0.7,2.7-1.2c1.3-0.8,1.7-2.5,1.3-3.8c-1.2-3.5-7.3-2.9-9.9-1.6c-2.2-3.2-6.1-6.3-10.1-5.6c-3.1,0.6-3.6,4-2.5,6.5
			c-5.1-5.4-13.3-7-20.5-7.1c-11.6,0-22.6,5.2-33.8,7.1c-7.1,1.2-14.5,0.8-21.5-0.7c-4.5-0.9-8.8-2.1-13.1,0.2
			c-6.7,3.7-4.6,12.5-0.7,17.4c-6.1-0.3-11.8-1.8-17.7-4.2c-4.9-1.9-11.5-2.8-14.8,2.3c-6,9.3,1.4,20.3,10,25.5
			c-2.9-0.4-5.7-0.2-8.5,1.4c-3.6,2-3.8,6.5-2.8,9.9c1.3,4.3,5.7,6.9,9.4,8.7c6.7,3.3,13.7,6.1,20.5,9.1c4.9,2.2,6.5,9.9,9,14.4
			c3.3,6.1,5.8,13.1,10,18.6c1.3,1.7,3.1,2.8,4.9,3.3c-2.2,5.9-1.5,12.4,2.5,17.4c3.4,4.3,10.8,6.2,15.6,3.2
			c0.1-0.1,0.2-0.2,0.2-0.3c4.2,4.4,9.3,8.1,15.7,10.4c7.1,2.6,14.8,3.7,22.5,3.5c-3.4,2.9-6.5,6-9.4,9.4
			c-6.1,7.2-10.6,15.7-13.8,24.6c-0.1,0.3,0.1,0.7,0.4,0.9c1.2,0.8,2.3,1.6,3.5,2.4c-1.6,0.3-3.4,1.2-4.5,2.2
			c-0.4-0.8-0.9-1.6-1.3-2.3c-1.6-2.8-3.8-4-6-4.1c0-0.2,0-0.4,0-0.5c0.1,0,0.2-0.1,0.3-0.2c3.8-10.4-8.7-20.7-18.4-17.9
			c-0.1,0-0.2,0.1-0.2,0.2c-3-0.7-6.5-0.9-8.2,0.3c-4.4,3-6.3,9.2-7.1,14.2c-0.9,5.5,0.4,11,3.3,15.7c6.2,9.9,20.4,17.8,31.9,18.2
			c1.9,0.1,4-0.6,5.8-1.7c7.6,1.1,16.8-0.9,21.9-6.8c0.1-0.1,0.1-0.1,0.1-0.2c1.2,0.8,2.4,1.6,3.6,2.4
			c-10.2,4.1-18.1,17.2-21.8,26.9c-0.2,0.4,0.3,0.7,0.7,0.5c-0.4,2.4,1.5,4.7,3.6,5.9c0,0,0,0,0,0c-2.5,4.5-4.2,9.7-3.8,14.5
			c0,0,0,0,0,0.1c-0.4-0.3-0.8-0.6-1.2-1c-0.3-0.2-0.6-0.1-0.7,0.2c-3.3-3.5-8.3-5.4-12.6-7c-5.6-2-12.3-1.2-16.2,3.6c0,0,0,0,0,0
			c-0.1,0-0.1,0-0.2,0c-0.1,0-0.1,0.1-0.2,0.1c0,0-0.1,0-0.1,0.1c-3.1,1.5-3.6,6-3,9.1c1.3,6.7,4.7,13.2,8.4,19
			c6.3,10,15.5,20.9,28.5,16.9c2.1-0.7,4.3-1.9,5.9-3.7c0.1,0,0.1,0,0.1-0.1c0,0,0,0,0-0.1c0.3-0.3,0.5-0.6,0.8-1
			c0.5-0.5,1.1-1.1,1.2-1.2c1.3-1.5,2.4-3.3,3.4-5.1c1.2-2.2,2.1-4.8,2.2-7.5c0,0,0,0,0,0c3.9-6.9,7.6-13.7,11.8-20.3c0,0,0,0,0,0.1
			c3,2.8,6.1,0.7,8.6-1.7c0.2-0.2,0.3-0.4,0.2-0.7c0-0.1-0.1-0.2-0.1-0.3c5.4-8.1,11.4-16.2,22.1-16.9c13.3-0.9,16.6,14.6,19.1,24.3
			c0.1,0.5,0.7,0.5,1,0.1c1.9,0.1,3.8,0.3,5.8,0.4c0.6,5.2,1.3,10.3,2.2,15.5c0.6,3.4,1,6.8,3.1,9.6c-0.1,0-0.1,0-0.1,0.1
			c-4.2,6.4-6.5,15.2-5,22.8c1.5,7.8,10.1,11.1,17,12.1c6.6,1,10.9-7.5,12.3-12.7c1.7-6.7-0.9-15.2-3.8-21.2
			c1.4-3.5,1.2-7.4,1.1-11.2c-0.1-6.1,0-12.3-0.4-18.4c2.8-1.2,5.4-2.7,7.8-4.7c0.6-0.5-0.2-1.4-0.8-1c-0.1,0.1-0.2,0.1-0.4,0.2
			c0.1,0,0.2-0.1,0.2-0.2c4.9-6.4,2.3-16.7,1-23.9c-1.8-9.9-4.7-19.9-10.2-28.4c0-0.1-0.1-0.1-0.2-0.1c2.4-2.1,4.6-4.4,6.5-6.8
			c0,0,0,0,0,0c0.1-0.1,0.2-0.1,0.3-0.3c3.1-4.7,1.1-9.8-2.4-13.6c-2.5-2.7-6-4.7-8.9-7c-3-2.4-5.8-5.1-8.5-7.8
			c-3.8-3.9-7-8.1-10-12.4c0.4-0.2,0.8-0.4,1.2-0.8c2.8-2.5,5-5.9,7.2-8.8c5.2-6.8,9.7-14.1,13.7-21.6c0.2-0.4,0-1-0.4-1.1
			c0,0,0,0,0,0c0.4-3.5-1.7-8.8-4.6-11.1c1.2-3,2.2-6,3.3-8.7c2.2-4.9,4.6-9.7,7.1-14.5c2.8-5.4,5.8-11.6,10.7-15.3
			c3.7-2.8,8.4-3.8,12.1-6.7c3.3-2.6,5.8-5.6,6.9-9.6C277.9,165.9,272.8,167.1,268.8,169z M211.4,210.8c0.6,0.3,1.1,0.9,1.7,1.2
			c-0.8,1.2-1.6,2.4-2.5,3.6c-0.4-0.6-0.9-1.2-1.3-1.9c0,0,0,0-0.1,0c0-1-0.1-2-0.1-2.9c0.1,0,0.3,0.1,0.4,0
			c0.2-0.1,0.3-0.3,0.5-0.4C210.5,210.5,211,210.6,211.4,210.8z M216,197.7c-1.2,4.8-4.1,8.2-6.9,12c-0.7-7.3-3.1-14.3-7.4-19.6
			c2-1.1,3.5-3.1,5.1-5.6c0.6-0.9,1.1-1.9,1.5-2.9c0,0,0.1,0.1,0.1,0.1C216.7,182.6,217.6,191.1,216,197.7z M84.5,213.3
			c-2.5-4.8-4.3-10.1-7.1-14.7c-0.9-1.5-2.4-2.5-4-3.3c-3.6-1.9-7.6-3.4-11.4-5c-5.1-2.3-10.8-4.2-15.1-7.9
			c-3.4-2.9-4.6-8.1-1.6-11.8c3.2-3.9,9.6-2.1,13.6-1.1c0.6,0.2,0.9-0.8,0.3-1c-1.1-0.3-2.1-0.6-3.1-0.8c-4.2-2.9-7.7-6.1-10.4-10.7
			c-4.3-7.4-2.2-19,8.5-17.4c5,0.7,9.7,3.7,14.7,4.8c4.8,1.1,9.6,0.9,14.4,0.1c0.5-0.1,0.4-1-0.1-1c-1.9,0.2-3.8,0.3-5.6,0.2
			c-3.2-4.2-4.7-9.2-1.8-14.1c3.4-5.7,11-3,16-1.9c8.4,1.8,17.1,1.3,25.4-0.5c17.1-3.6,35.2-12,49.8,2.2c0.5,0.5,1.4-0.2,1-0.8
			c-0.1-0.1-0.2-0.2-0.2-0.3c0.1-0.1,0.2-0.2,0.2-0.4c-1-1.7-1.5-3.4-0.5-5.2c1.3-2.4,4.2-1.4,5.9-0.5c2,1.1,3.6,2.9,5.1,4.5
			c0.4,0.5,1.1-0.1,1-0.6c2.7-0.8,5.8-1.1,8.1,0.8c2.1,1.7-0.6,3.4-1.9,3.8c-0.8,0.2-1.6,0.3-2.3,0.7c-0.1,0-0.2-0.1-0.3-0.1
			c-0.4-0.2-0.8,0.4-0.4,0.6c11.7,6.2,19.2,16.8,23.8,29c2.6,7.1,3.2,14.3-0.1,21.3c-1.4,2.8-3.9,6.8-7.3,7.2c-4.5,0.5-9-5-10.9-8.3
			c-3.7-6.5-5.4-20.1-14.9-21.3c-10.1-1.3-22.2,2.8-31.3,6.5c-11.2,4.5-22.4,11.1-31.8,18.5c-8.8,6.9-12.2,15.9-8.8,26.6
			c1.8,5.6,9.1,19.4-1.6,20.2C91.4,232.5,87.4,218.9,84.5,213.3z M99.9,249.4c-4.3-4.3-4.1-10.9-2.7-16.3c1.5,0.3,2.9,0.2,4.3-0.2
			c3.6,7.2,7.5,14,12.6,19.6C108.8,254.2,104,253.5,99.9,249.4z M132.5,262.6c-15.2-4.4-23-17-30.2-30c2.7-1.1,4.7-3.7,4.4-7.5
			c-0.4-5.3-3.1-10.3-4.6-15.3c-2.5-7.9-0.1-14.7,5.4-20.6c4.6-4.9,10.8-8.3,16.5-11.7c6.3-3.8,12.8-7.3,19.6-10.1
			c5.2-2.1,10.7-3.4,16.1-4.6c6.1-1.4,13.4-3.2,18.2,1.8c7.2,7.6,6.3,21,17.1,25.4c2.3,0.9,4.1,1,5.7,0.4c3,6.2,5.7,11.9,6.6,18.9
			c0.9,7-0.1,14.2-2.3,20.9c-4.3,13-14.8,23.3-26.9,29.4c-6.7,3.4-14.1,5.1-21.6,5.6c-0.2,0-0.5,0-0.7,0.1
			C147.9,265.8,139.9,264.8,132.5,262.6z M182.5,274.2c1.6,0.7,3.4,0.9,5.1,0.5c1.8-0.5,3.4-1.8,4.5-3.6c3.4,7.6,8.5,14.8,13.2,21.7
			c1.2,1.8,2.5,3.6,3.8,5.3c1.3,1.8-1.3,5.1-2.1,6.6c-2.3,4.4-4.8,8.8-7.4,13.1c-0.9,1.6-9.3-5.3-10.4-6.2c-2.1-1.6-4.2-3.2-6.2-4.8
			c-2.5-2-1.6-5.1-1.2-7.8C183.1,291,183.4,282.5,182.5,274.2z M188.6,272.8c-3.8,2.8-6.4-0.5-9.2-2.5c0,0,0,0,0,0
			c1.1-2.7,2.3-5.5,3-8.4c0,0,0.1,0.1,0.1,0.1c3.6,1,7.1,2,10.5,3.4C191.7,268,191.2,270.9,188.6,272.8z M191.7,263.5
			c-2.9-1-5.9-1.8-9-2.3c-0.1,0-0.1,0-0.2,0c0.1-0.4,0.2-0.8,0.3-1.3c0-0.2-0.2-0.4-0.4-0.2c-2.2,3.5-3.4,7.8-5,11.6
			c-2.3,5.5-10.6-2.9-12.8-5.7c4.9-1,9.7-2.6,14.2-4.7c8.3-3.9,15.5-10,20.8-17.4c1.1,5.5,0.5,10.7-1.5,16c-0.6,1.6-1.4,3.2-2.3,4.7
			C195.4,265.4,192.3,263.8,191.7,263.5z M133.5,302.5c-3.9-2.6,1.3-9.7,3-12.9c2.3-4.3,5-8.3,8-12.1c1.7-2.1,6.4-8.5,10.5-10.5
			c1.9-0.1,3.7-0.3,5.5-0.6c-5.6,12.8-10.5,28-11.4,42.7c-0.1,0-0.2-0.1-0.3,0C144.1,310.3,137.4,305.1,133.5,302.5z M117,286.1
			c3.2,3,3.9,6.8,4.2,10.7c-1.4-2.8-4.8-4.9-7.7-5.2c-0.6-0.1-1.1-0.1-1.6-0.1c0.8-3.2-0.7-5.9-3.3-7.9c-0.9-0.7-2.5-1.4-4.2-1.8
			C109.1,281.7,113.4,282.8,117,286.1z M115.4,327.3c-7.6-2.3-14.5-7-20-12.6c-6.1-6.2-7.4-14.3-5-22.5c1.4-5,4.4-9.8,10.2-9.5
			c5,0.2,11.6,2.6,10.8,8.8c-5.4,0.3-9,4.3-11.4,9.3c-0.3,0.6,0.5,1,0.9,0.5c2.4-3.3,4.4-6.9,8.6-8.2c5-1.6,10.8,2,11.9,6.9
			c-4.7,0.1-9.5,5.3-9.6,10.9c0,0.3,0.5,0.3,0.5,0c0.7-6.1,8.5-14.6,13.9-7c1.2,1.6,2.1,3.6,2.9,5.4c0.5,1.2,1,2.3,1.3,3.6
			c0.6,2.2-1.2,7.3-3.5,2.8c-0.2-0.4-0.9-0.1-0.8,0.3c0.6,2,3.5,4.1,5.4,2.2c0.4-0.4,0.5-1,0.6-1.7c2.4,3.6,1.3,7.8-2.6,10.5
			C125.4,329.9,119.8,328.6,115.4,327.3z M130.4,327.7c4.6-3.3,7.2-9.2,1.6-13.1c-0.1-0.8-0.3-1.5-0.4-2c-0.4-1.9-1.2-3.8-2.2-5.5
			c0.9-0.2,1.7-0.7,2.5-0.9c0.9-0.3,1.9-0.4,2.7-0.9c0.1,0,0.1-0.1,0.1-0.1c2.4,1.5,4.9,2.9,7.5,4.2c2.3,1.1,4.5,2.2,6.9,1
			c-0.2,3.7-0.1,7.4,0.4,11.1C143.8,325.9,137.7,327.2,130.4,327.7z M135,353.8c0-3.3,1.3-4.5,3.6-3.5c0.7,0.2,1.4,0.4,2,0.7
			c0.3,0.1,0.6,0.2,0.9,0.3c-1.4,1.6-2.8,3.4-4,5.4C136.5,355.9,135.8,355,135,353.8z M139.3,409.5c-11,8-21.4-2.6-27.8-10.9
			c-2.7-3.5-4.9-7.4-6.9-11.4c-2.2-4.4-7.3-14.9-1.6-18.8c9,3.3,17.3,7.8,24.8,13.8C134.6,387.6,150.4,401.5,139.3,409.5z
			 M144,406.1c0.3-0.7,0.5-1.4,0.5-2.2c0.2-6.3-4.1-11.2-8.2-15.6c-8.8-9.4-20.2-16.5-32.4-20.4c8.6-7.3,23.1-2.2,29.4,6.1
			c0.2,0.3,0.7,0,0.5-0.3c-0.2-0.3-0.4-0.6-0.6-0.9c4.5,4.5,9.8,8.4,13.4,13.7C150.3,392.1,148.4,400.9,144,406.1z M156.9,378.1
			c-2.7,4.3-5.3,9-7.1,13.9c0-0.3-0.1-0.5-0.1-0.7c-1.6-8-9.4-14.3-15.8-19.3c0.2,0,0.3-0.1,0.4-0.3c0.8-3.4,1.2-6.8,2.3-10.1
			c1.3-3.7,3.4-6.8,5.6-10c3.2,1.3,6.4,2.9,9.4,4.5c3.2,1.7,6.3,3.5,9.3,5.5c1.7,1.2,3.3,2.6,4.7,4.1c0,0.1-0.1,0.2,0,0.2
			c0,0,0,0,0,0c-0.8,0.7-2.7,3.2-1.5,1.7c-0.7,0.8-1.3,1.7-2,2.6C160.3,372.8,158.6,375.4,156.9,378.1z M162.4,373
			c-0.1,0-0.1,0-0.1,0c1.4-2.1,2.8-4.2,4.2-6.4c0.7,0.9,1.3,1.8,1.8,2.7C169.3,373.1,167.3,374.3,162.4,373z M246.5,421.1
			c0.5,6.7-3.8,17.5-12,16.3c-7.6-1.1-14.1-5.4-15.1-13.3c-0.9-6.9,2.3-13.3,4.5-19.6c0.1,0.1,0.1,0.2,0.2,0.3c3.8,4.4,13.1,5,18,2
			c0,0.4,0.6,0.6,0.9,0.2C244.2,411.7,246.1,416.2,246.5,421.1z M242.5,405.4c-6.4,3.1-17,2.4-19.6-5.4c-2.2-6.6-2.8-14.1-4-20.9
			c8.5,0.4,17.6-0.1,25.3-3.2C243.7,385.7,244.9,395.8,242.5,405.4z M250.6,343.3c0.9,4.5,1.6,9,2,13.6c0.4,4.5-0.7,8.4-1.8,12.7
			c-0.1,0.4,0.2,0.6,0.6,0.5c-5.5,3.3-10.9,5.6-17.3,6.7c-7.1,1.3-14.3,1-21.4,0.9c-1.4-9.7-5.6-23.6-17.3-24.8
			c-11.7-1.2-20.1,7.7-25.2,17.3c-4.4-10.4-17.9-15.7-27.5-19.7c-1.3-0.5-5.5-2.4-7.5-1.5c2.4-4.1,4.5-8.5,7.2-12.4
			c3.6-5.3,8.1-8.8,13-12.7c3.5,2.2,7.3,4,11.1,5.6c-1.5,1.5-2.6,3.2-4.4,4.6c-1.9,1.4-4.1,2.3-6.3,2.9c-0.6,0.2-0.3,1,0.2,0.9
			c4-0.6,9.7-3.9,11-8.2c11.4,4.4,24,5.9,36.1,4.5c13.2-1.5,27.9-7.2,38.6-16.2c0,0,0,0,0,0.1C246.1,326.1,248.8,334.4,250.6,343.3z
			 M221.4,275.5c4.2,5.3,8.8,10.3,13.9,14.7c5.4,4.6,17.9,10.7,12.3,19.5c-0.1,0.2-0.1,0.4-0.1,0.5c-6.1,5.2-11.9,10.3-19,14.2
			c-7.5,4.1-15.8,6.7-24.3,8c-18.6,3-37.2-2.2-53.1-11.9c-0.2-0.1-0.4,0-0.4,0.1c0,0,0,0-0.1,0c0.2-9.4,0.8-18.4,2.8-27.6
			c2-9,5.2-17.5,7.9-26.2c0.1-0.2,0-0.3-0.1-0.4c0.7-0.1,1.4-0.2,2.1-0.4c2.2,5.1,7.2,8.1,12.6,8.7c1.9,0.2,2.2-1.6,2.7-3
			c0.1-0.4,0.3-0.8,0.5-1.2c0.4,1.4,1.4,2.5,2.6,3.2c0.3,5.3,0.3,10.5-0.1,15.8c-0.3,5-2.4,10.4-2,15.4c0.2,2.5,4.5,4.7,6.1,6
			c4.2,3.3,8.6,6.4,13,9.3c0.3,0.2,0.7,0.1,0.9-0.2c4.1-6.7,7.9-13.5,11.4-20.5c0.1-0.2,0.1-0.5,0-0.7c-6.9-9.2-12.3-19.1-18.5-28.7
			c0.7-1.4,1.2-2.9,1.4-4.3c0.5,0.2,1,0.4,1.5,0.6c0.4,0.2,0.7,0.1,0.9-0.2c4.3-6.6,7.4-15.9,4.2-23.6c0,0,0-0.1-0.1-0.1
			c0.1-0.2,0.3-0.4,0.4-0.7C206.3,253.6,213.4,265.3,221.4,275.5z M231,252.7c-2,3-4.3,6-6.5,8.9c-1.1,1.4-3.9,6.1-6.1,6.8
			c-6-8.8-11.1-18.3-17.1-27.2c2.1-3.3,3.8-6.8,5.2-10.4c1.7-4.7,2.7-10.3,2.7-15.9c5.8,11.9,17.7,20.2,30.3,23.5
			C237,243.3,234.1,248.1,231,252.7z M238.6,231.5c0.7,1.8,0.9,3.7,1.3,5.5c-2.7-0.7-5.3-1.6-7.8-2.7c1.5-2.2,2.7-4.7,3.8-7.4
			C236.9,228.4,237.9,229.8,238.6,231.5z M273.9,174.4c-2.1,4.1-6.4,6.6-10.4,8.5c-3.2,1.6-6.3,3-8.9,5.4c-2.4,2.2-4,5.3-5.6,8.1
			c-4,7-7.6,14.2-10.7,21.6c-1.3,3.1-2.5,6.2-3.8,9.3c-0.6,1.6-1.3,3.2-2,4.9c-0.1,0.2-0.5,1-0.8,1.6c0,0,0,0,0,0c0,0,0,0-0.1,0.1
			c-8.3-3.9-15-10-20.5-17.7c3.9-4.2,7-9.2,10-14.1c3.5-5.5,6.9-11.2,9.2-17.2c3-7.7,3.6-17.3,4.5-25.5c0.5-4.5-0.1-9.1,0.9-13.5
			c1.7-3.7,4-4.6,6.9-2.8c1.6,1.1,2.6,2.6,3,4.5c0.8,2.6,0,5.8-0.4,8.3c-0.1,0.3,0.4,0.5,0.5,0.1c0-0.1,0-0.1,0-0.2
			c0.1,0,0.2,0,0.2-0.1c2.2-2.8,10.4-21.5,15.2-17.5c2.3,2,1.8,6.9,1.1,9.5c-1.2,4.1-2.3,8.4-4.4,12.1c-0.2,0.3,0.2,0.5,0.4,0.2
			c0.1-0.2,0.3-0.4,0.4-0.6c0.1,0,0.3,0.1,0.4-0.1c2-1.8,3.9-3.7,5.9-5.6c0.8-0.7,1.6-1.5,2.4-2.2c2.7-2.5,9.9-5.8,8.3,3.2
			c-1.1,5.8-4.9,11-8.9,15.1c-0.9,0.5-1.7,1-2.1,1.3c-0.4,0.3,0,0.9,0.4,0.6c2.1-1.4,4.1-2.4,6.5-3.1
			C276.2,167.3,275.2,171.9,273.9,174.4z"/>
		<path class="st15" d="M275,170.3c-4.1,4.5-9.4,8-15.3,9.8c-3.4,1.1-7.1,1.7-10.1,3.6c-3.8,2.5-6,6.7-8.1,10.7
			c-6,11.3-13.2,22-21.3,31.9c3.4,3.1,7.3,5.6,11.5,7.6c0,0,0,0,0.1-0.1c0,0,0,0,0,0c0.3-0.6,0.7-1.4,0.8-1.6c0.7-1.6,1.4-3.2,2-4.9
			c1.2-3.1,2.5-6.2,3.8-9.3c3.1-7.4,6.7-14.6,10.7-21.6c1.6-2.8,3.2-5.9,5.6-8.1c2.6-2.4,5.7-3.9,8.9-5.4c4-2,8.3-4.5,10.4-8.5
			C274.5,173.2,275,171.6,275,170.3z"/>
		<path class="st16" d="M206.6,181.2c-2.8-1.8-5.4-4.2-7.5-6.8c-5.6-6.9-8.9-15.2-13.7-22.6c-0.7-1.1-1.9-2.4-3.2-2
			c-0.9,0.3-1.4,1.2-2.2,1.5c-1,0.5-2.2,0-3.3-0.3c-9.2-3.1-19.1,0.7-28.2,4c-20,7.3-60.4,12.8-61.6,16.2c-1.2,3.4,3.6,3.8,6.1,4.7
			c-9,2.5-18.2,4.7-27.5,4.3c-7.7-0.4-15.6-2.9-21.4-7.9c-1.6,3.5-0.3,7.6,2.6,10.2c4.3,3.7,10,5.6,15.1,7.9c3.8,1.7,7.7,3.1,11.4,5
			c1.6,0.8,3,1.8,4,3.3c2.8,4.5,4.7,9.9,7.1,14.7c2.9,5.6,6.9,19.2,14.9,18.5c10.8-0.9,3.4-14.6,1.6-20.2
			c-3.4-10.7,0.1-19.7,8.8-26.6c9.5-7.4,20.7-14,31.8-18.5c9.2-3.7,21.3-7.7,31.3-6.5c9.5,1.2,11.2,14.8,14.9,21.3
			c1.9,3.3,6.5,8.8,10.9,8.3c3.4-0.4,5.9-4.3,7.3-7.2C206.3,182,206.5,181.6,206.6,181.2z"/>
		<g>
			<path class="st17" d="M109.8,130.9c7.4-0.8,14.9-1.7,22-3.8c6-1.8,12.1-4.5,18.3-3.5c5.1,0.8,9.8,4.2,14.8,4.4
				c-14.2-11.7-31.5-3.9-47.9-0.5c-8.4,1.8-17,2.2-25.4,0.5c-5-1.1-12.6-3.8-16,1.9c-0.4,0.6-0.7,1.2-0.9,1.9c1.8-1,3.9-1.5,5.9-1.6
				c3.9-0.2,7.8,0.9,11.6,1.4C98.1,132.2,104,131.5,109.8,130.9z"/>
			<path class="st17" d="M73.1,145.1c-1.4-0.1-2.8-0.3-4.2-0.6c-5-1.1-9.7-4.1-14.7-4.8c-6.5-0.9-9.8,3-10.5,7.8
				c0.8-1.4,2-2.6,3.4-3.4C54.8,139.9,65,147.1,73.1,145.1z"/>
			<path class="st17" d="M177.9,128.1c3.2,0.8,7-1.3,9.6,0.7c-0.2,0.5-0.4,1-0.7,1.4c1.1-0.7,1.9-1.9,0.4-3.1
				c-2.3-1.9-5.5-1.6-8.1-0.8c0.2,0.5-0.5,1-1,0.6c-1.5-1.6-3.1-3.5-5.1-4.5c-1.7-0.9-4.6-1.9-5.9,0.5c0,0,0,0.1,0,0.1
				c1.9-0.6,3.9,0.5,5.5,1.7C174.3,126,175.9,127.6,177.9,128.1z"/>
		</g>
		<path class="st15" d="M214.2,202.2c-0.7-0.6-1.4-1.2-1.9-2c-2-2.8-2.7-6.3-3.1-9.8c-0.3-2.9-0.2-6,1.3-8.4
			c-0.7-0.2-1.4-0.4-2.1-0.5c-0.1,0-0.1,0-0.1-0.1c-0.4,1-0.9,1.9-1.5,2.9c-1.6,2.5-3.2,4.6-5.1,5.6c4.3,5.3,6.7,12.3,7.4,19.6
			C210.9,207.1,212.7,204.9,214.2,202.2z"/>
		<path class="st15" d="M114.1,252.5c-5.1-5.6-9-12.4-12.6-19.6c-1.4,0.4-2.8,0.5-4.3,0.2c-0.4,1.4-0.6,2.8-0.8,4.3
			c6.4,2.3,11.3,8.8,11.2,15.7c0,0,0,0.1,0,0.1C109.7,253.5,111.9,253.2,114.1,252.5z"/>
		<path class="st15" d="M149.2,310.3c-1.6,0.8-3.1,0.6-4.7,0c-3.4,2.3-7,4.2-10.9,5.7c3.3,3.8,0.8,8.8-3.2,11.7
			c7.2-0.5,13.3-1.8,19.2-6.3C149.1,317.7,149,314,149.2,310.3z"/>
		<path class="st15" d="M132.1,316.5c0,0.7-0.2,1.3-0.6,1.7c-1.9,1.9-4.8-0.2-5.4-2.2c-0.1-0.5,0.6-0.8,0.8-0.3
			c2.3,4.4,4.1-0.7,3.5-2.8c0,0,0,0,0-0.1c-0.2,0-0.4-0.1-0.6-0.1c-2-0.7-3.5-2.5-5.6-2.8c-2.3-0.3-4.4,1.5-5.9,3.4
			c-1.4,1.9-2.6,4.1-4.7,5.3c-2.2,1.3-5.1,1-7.5,0.2c-5.3-1.7-9.7-5.7-12.8-10.3c-1.6-2.4-2.9-5-4.1-7.7c0.2,5.1,2.1,9.9,6.1,13.9
			c5.5,5.6,12.4,10.2,20,12.6c4.4,1.4,10,2.6,14.2-0.3C133.4,324.4,134.6,320.2,132.1,316.5z M123.6,321.2c-0.3,0.4-0.8-0.1-0.6-0.5
			c1.2-2.5,2-4.7,2.3-7.5c0-0.4,0.6-0.4,0.7,0C126.2,316,125.3,319,123.6,321.2z"/>
		<path class="st15" d="M219,379c0.2,1.3,0.4,2.7,0.6,4c5.1,3.9,12.1,5.6,18.6,6c2,0.1,3.9,0.2,5.9,0.1c0-4.5-0.1-9,0.2-13.4
			C236.5,379,227.4,379.4,219,379z"/>
		<path class="st15" d="M161,361.7c-1.8-1.2-3.6-2.3-5.5-3.4c-4.8,4.2-8.3,9.8-10.7,15.8c-0.7,1.9-1.3,3.8-1.9,5.7
			c3.2,3.4,5.9,7.2,6.8,11.4c0,0.2,0.1,0.5,0.1,0.7c1.8-4.8,4.3-9.5,7.1-13.9c1.7-2.7,3.4-5.3,5.3-7.8c0.7-0.9,1.3-1.8,2-2.6
			c-1.2,1.5,0.6-1,1.5-1.7c0,0,0,0,0,0c0-0.1,0-0.2,0-0.2C164.3,364.3,162.7,362.9,161,361.7z"/>
		<path class="st15" d="M205,230.4c2.2-6.7,3.2-13.9,2.3-20.9c-0.9-7-3.6-12.7-6.6-18.9c-1.6,0.6-3.4,0.5-5.7-0.4
			c-10.8-4.4-9.8-17.8-17.1-25.4c-4.8-5-12.1-3.2-18.2-1.8c-5.5,1.2-10.9,2.5-16.1,4.6c-6.8,2.8-13.3,6.3-19.6,10.1
			c-5.7,3.4-11.9,6.8-16.5,11.7c-5.5,5.9-7.9,12.7-5.4,20.6c1.6,5,4.2,10,4.6,15.3c0.2,2.2-0.5,4-1.5,5.4c2.4-1.6,4.1-4.9,4.3-8
			c0.3-4.6-1.5-9.2-1.1-13.9c0.6-8.9,8.3-15.5,15.9-20.2c8-5,16.5-9.1,25.3-12.3c3.1-1.1,8.5-2.7,11.8-3.4c4.2-0.9,8-0.5,10.2,1.5
			c9.6,8.7,17.4,17.1,21.2,28.7c1.2,3.6,1.5,7.3,1.5,11.1c0.1,17.6-7.6,34.9-20,47.3c1.3-0.5,2.6-1.1,3.8-1.7
			C190.1,253.7,200.7,243.3,205,230.4z"/>
		<path class="st6" d="M155.1,267.1c-2.8,1.3-5.9,4.8-8.1,7.5c1.7,5.8,1.3,12.2-0.1,18.2c-1.2,5.1-3.2,10-5.1,14.9
			c2.5,1.2,5.1,2,7.3,1.5c0.1,0,0.2,0,0.3,0c0.8-14.7,5.8-29.9,11.4-42.7C158.8,266.8,156.9,267,155.1,267.1z"/>
		<path class="st6" d="M232.9,236.2c-6.5,3.7-13.9,5.7-21.4,5.7c-3.2,0-6.7-0.6-9.2-2.4c-0.3,0.6-0.7,1.1-1,1.7
			c6,9,11.1,18.4,17.1,27.2c2.2-0.8,5-5.4,6.1-6.8c2.3-2.9,4.5-5.8,6.5-8.9c3.1-4.6,5.9-9.4,8.6-14.2
			C237.3,237.8,235.1,237.1,232.9,236.2z"/>
		<path class="st6" d="M235.4,290.2c-5.2-4.4-9.8-9.3-13.9-14.7c-8-10.2-15.1-21.9-20.4-33.7c-0.1,0.2-0.3,0.4-0.4,0.7
			c0,0,0,0.1,0.1,0.1c3.2,7.7,0.2,17-4.2,23.6c-0.2,0.3-0.6,0.4-0.9,0.2c-0.5-0.2-1-0.4-1.5-0.6c-0.2,1.4-0.7,2.9-1.4,4.3
			c6.2,9.6,11.6,19.5,18.5,28.7c0.1,0.2,0.1,0.5,0,0.7c-3,5.9-6.2,11.7-9.5,17.3c2-2.1,4.4-3.6,7.1-3.1c3.1,0.6,5.1,4,5.1,7.2
			c0,3.2-1.6,6.2-3.2,8.9c-0.3,0.5-0.6,0.9-0.9,1.4c6.6-1.5,13-3.8,18.9-7c7.1-3.9,12.9-9,19-14.2c0-0.2,0-0.3,0.1-0.5
			C253.2,300.9,240.8,294.7,235.4,290.2z"/>
		<path class="st18" d="M226.5,377.7c-0.3-3.3-0.9-6.5-1.9-9.7c-2.7-8.4-8.3-16-15.9-20.4c-9.8-5.6-22.3-5.6-32.6-1.1
			c-6.3,2.8-11.8,7.1-16.4,12.3c4.6,3,8.5,6.6,10.5,11.4c5.1-9.6,13.5-18.6,25.2-17.3c11.7,1.2,15.9,15.2,17.3,24.8
			C217.2,377.8,221.9,378,226.5,377.7z"/>
		<path class="st18" d="M251.3,370.1c-0.3,0.1-0.7-0.1-0.6-0.5c1.1-4.3,2.2-8.1,1.8-12.7c-0.4-4.6-1.1-9.1-2-13.6
			c-1.8-8.9-4.5-17.3-8.9-25.3c0,0,0,0,0-0.1c-7.2,6.1-16.3,10.6-25.4,13.4c2.2,0.6,4.4,1.3,6.6,2.1c4.2,1.6,8.2,3.6,11.5,6.6
			c6.1,5.4,9.2,13.6,9.5,21.7c0.1,4.4-0.6,8.7-1.8,12.9C245.2,373.5,248.3,372,251.3,370.1z M240.4,335.3c-5.4,0-10.6-2.5-13.9-6.7
			c-0.3-0.4,0.2-0.9,0.5-0.5c3.8,3.6,8.2,5.6,13.4,6.3C241.1,334.4,241.1,335.3,240.4,335.3z"/>
		<path class="st18" d="M193,265.4c-3.4-1.4-6.9-2.4-10.5-3.4c-0.1,0-0.1-0.1-0.1-0.1c-0.8,2.8-2,5.6-3,8.4c0,0,0,0,0,0
			c0.6,0.4,1.1,0.9,1.7,1.3c0.4-1.4,1-2.7,1.8-3.8c0.4-0.5,0.8-1,1.3-1.3c0.6-0.3,1.3-0.3,2-0.3c2.1,0,4.3-0.1,6.3,0.4
			C192.6,266.2,192.8,265.8,193,265.4z"/>
		<path class="st6" d="M199.4,255.6c0.9-3.9,1.1-7.8,0.3-11.9c-5.3,7.4-12.5,13.6-20.8,17.4c-4.5,2.1-9.3,3.7-14.2,4.7
			c0.8,1,2.4,2.7,4.2,4.3c1.3-1.6,3.2-2.8,5.2-3.2c1.7-0.4,3.4-0.4,5.2-0.3c0.9-2.3,1.8-4.7,3.1-6.7c0.1-0.2,0.4-0.1,0.4,0.2
			c-0.1,0.4-0.2,0.8-0.3,1.3c0.1,0,0.1-0.1,0.2,0c1.4,0.2,2.7,0.5,4.1,0.9c1.4-2.4,3.6-4.4,6.1-5.4
			C195,255.8,197.2,255.5,199.4,255.6z"/>
		<g>
			<path class="st19" d="M205.2,292.9c-0.4-0.5-0.7-1-1.1-1.6c-7.9,2.1-15.7,6.5-22.9,10.7c-0.2,1.8,0,3.6,1.6,4.8
				c0.3,0.2,0.6,0.5,0.9,0.7c8.5-2.6,17.5-5.5,24.6-10.3C207.2,295.9,206.2,294.4,205.2,292.9z"/>
			<path class="st19" d="M199.4,317.9c2.1-3.5,4.1-7.1,6.1-10.7c-4.4,2.1-8.7,4.7-12.9,7.3C195.4,316.6,198.9,318.9,199.4,317.9z"/>
			<path class="st19" d="M198.7,283.3c-1.7-2.6-3.2-5.2-4.7-7.9c-3.8,1.6-7.5,3.8-11.1,5.8c0.1,2.9,0.1,5.8-0.1,8.7
				C188,287.9,193.7,286,198.7,283.3z"/>
		</g>
		<path class="st18" d="M208.9,298.2c-1.3-1.8-2.6-3.5-3.8-5.3c-4.7-6.9-9.7-14.1-13.2-21.7c-1.1,1.7-2.6,3-4.4,3.5
			c0.5,0.6,0.8,1.3,1.2,2c4.9,9.9,9.9,20.5,8.7,31.5c-0.3,2.9-1,5.7-1.9,8.4c1.8,1.2,3.4,1.9,3.8,1.3c2.6-4.3,5.1-8.7,7.4-13.1
			C207.6,303.3,210.2,300,208.9,298.2z"/>
		<g>
			<path class="st10" d="M194.1,275.4c-1.6,0.7-3.2,1.5-4.8,2.3c1.3,2.7,2.6,5.5,3.8,8.3c1.9-0.8,3.8-1.7,5.6-2.6
				C197.1,280.7,195.5,278.1,194.1,275.4z"/>
			<path class="st10" d="M208.3,297.3c-1.1-1.5-2.1-2.9-3.1-4.4c-0.4-0.5-0.7-1-1.1-1.6c-2.7,0.7-5.4,1.7-8,2.8
				c0.8,2.9,1.4,5.8,1.6,8.7C201.4,301.4,205.1,299.6,208.3,297.3z"/>
			<path class="st10" d="M199.4,317.9c2.1-3.5,4.1-7.1,6.1-10.7c-2.9,1.4-5.8,3-8.6,4.6c-0.3,1.6-0.8,3.2-1.3,4.7
				C197.5,317.8,199.1,318.5,199.4,317.9z"/>
		</g>
		<path class="st9" d="M246.5,421.1c-0.4-5-2.3-9.4-3.4-14.2c-0.3,0.4-0.8,0.2-0.9-0.2c-0.5,0.3-1.1,0.6-1.7,0.8
			c2.1,6.2,2.4,13,0.6,19.4c-1.1,3.8-2.9,7.4-5.2,10.6C243.2,437.3,246.9,427.4,246.5,421.1z"/>
		<path class="st9" d="M144.3,405.7c4.2-5.2,5.9-13.8,2.3-19.2c-1.1-1.6-2.3-3.1-3.6-4.5c-1.9,0.6-4.1,0.5-6.1,0.3
			c-3-0.4-6-1-8.9-1.7c3,2.3,5.8,4.9,8.4,7.6c4.1,4.4,8.3,9.2,8.2,15.6c0,0.6-0.2,1.2-0.4,1.8C144.2,405.7,144.2,405.7,144.3,405.7z
			"/>
		<path class="st20" d="M227.7,428.2c-1.4-2.4-2.9-4.5-2.9-7.4c0-1.6-2.6-2-2.8-0.4c-0.6,3.6,0.2,7.8,3.6,9.9
			C226.9,431.2,228.5,429.5,227.7,428.2z"/>
		<path class="st20" d="M233,432.3c-0.4-0.4-0.8-0.8-1.4-1.1c-0.6-0.3-1.2-0.4-1.8-0.5c-1.7-0.4-3,2.2-1.3,3
			c0.5,0.2,1.1,0.6,1.7,0.7c0.6,0.1,1.2,0.1,1.8,0C233.1,434.4,233.9,433.1,233,432.3z"/>
		<path class="st20" d="M122.7,368.3c-2.6-2.2-6.1-2.9-9.4-1.6c-1.2,0.5-1.1,2.2,0.3,2.3c2.7,0.2,5.3,0.7,7.8,1.5
			C122.7,370.9,123.7,369.2,122.7,368.3z"/>
		<path class="st20" d="M128.8,372.6c-0.7-0.6-1.3-1.2-2.1-1.6c-1.4-0.8-2.6,1.3-1.2,2.1c0.8,0.5,1.6,0.7,2.5,1
			C128.7,374.4,129.5,373.2,128.8,372.6z"/>
		<path class="st16" d="M171.8,187c-1.7-3.8-6.3-4.7-9.8-3.2c-3.3,1.4-6,5.5-4.7,9.1c0.5,1.5,2.7,2.1,3.6,0.5c0.8-1.4,1.4-2.9,3-3.5
			c1.6-0.6,3.6,0.2,5.1,0.7C171.3,191.4,172.6,188.7,171.8,187z"/>
		<path class="st16" d="M131.2,203.7c-5.6-4.9-15.6-0.1-14.4,7.5c0.3,1.8,3.1,2.6,4.3,1.1c1-1.3,1.9-2.9,3.2-3.9
			c1.6-1.1,3.5-1.3,5.4-1.3C131.4,207.2,132.5,204.9,131.2,203.7z"/>
		<path class="st14" d="M179.8,200.9c-1.9-3.3-6.1-3.4-9.3-2c-3.5,1.5-5.1,5.9-4.1,9.4c0.6,2.1,3.7,1.6,3.7-0.5
			c0-1.8,0.7-3.5,2.3-4.5c1.6-1,3.8-0.3,5.5,0C179.4,203.6,180.6,202.2,179.8,200.9z"/>
		<path class="st14" d="M139.3,218.3c-2.1-3-6.4-4.1-9.8-2.4c-3.5,1.7-6.2,6-4.5,9.8c0.6,1.5,3.1,2,3.5,0c0.5-2,1.1-4.1,3-5.3
			c1.8-1.1,4.2-0.5,6,0.2C138.7,221.1,140.1,219.4,139.3,218.3z"/>
		<path class="st21" d="M155.2,226.5c-0.8,0.8-2.4,1.1-3.3,0.3c-1.2-1,0.2-2.9,1.2-3.3c1-0.4,0.8-1.7-0.2-1.8
			c-3.4-0.3-5.2,4.1-3.5,6.7c1.9,2.9,6.3,2.2,7.5-0.9C157.2,226.5,155.8,225.7,155.2,226.5z"/>
		<path class="st22" d="M143.2,242.7c-0.5-4.3,26.2-18.1,33.2-14.5c6.9,3.6,2.1,20.2-10.2,25.6C153.7,259.3,143.8,248.1,143.2,242.7
			z"/>
		<path class="st23" d="M166.1,238.5c-3.1,0.9-5.9,2.6-8.5,4.4c-3.3,2.3-6.4,5.1-8.4,8.6c4.2,3.3,10.2,5.3,17,2.4
			c6.8-3,11.3-9.4,12.8-15.1C174.8,237.5,170.3,237.2,166.1,238.5z"/>
		<path class="st22" d="M190.6,203.1c-2.3-0.2-4.8,0.4-6.7,1.7c-1,0.7-1.9,1.5-2.5,2.6c-0.8,1.4-0.2,3.2,1.3,3.7c0,0,0,0,0,0
			c0.4,0.5,1.1,0.9,1.9,0.9c3.4,0.2,6.6-1.8,8.4-4.6C194.4,205.4,192.7,203.3,190.6,203.1z"/>
		<path class="st22" d="M129.5,232.6c-2.3-0.2-4.8,0.4-6.7,1.7c-1,0.7-1.9,1.5-2.5,2.6c-0.8,1.4-0.2,3.2,1.3,3.7c0,0,0,0,0,0
			c0.4,0.5,1.1,0.9,1.9,0.9c3.4,0.2,6.6-1.8,8.4-4.6C133.2,234.9,131.5,232.8,129.5,232.6z"/>
	</g>
	<g>
		<path class="st7" d="M395.8,250.7c10.4-7.7,13.6-19.9,17.1-31.8c-7.3-2.9-14.2-7.8-19.6-13.4c-3.2-3.3-6.2-6.8-8.7-10.7
			c-1.1-1.8-4-5-3.4-7.3c-3,1.5-7.9,2.8-10.6,0.5c-1.4-1.3-1.1-3.7,0-5.4c-14.7,11-33.9,18.5-52.3,20.7c-1.5,7.1-3.1,13.6-1.7,21
			c1.2,6.2,3.5,12.1,7.3,17.2c7.8,10.5,20.2,17.7,33.3,19C370.4,261.8,385,258.7,395.8,250.7z"/>
		<path class="st10" d="M351.9,266.1c-1.9,2.2-4.9,4-7.8,4.3c1.9,2,4.2,4,6.9,4.5c3.6,0.6,6.2-1.2,8.5-3.5
			C356.4,271.4,352.8,269.1,351.9,266.1z"/>
		<path class="st11" d="M331.7,251.8C331.7,251.8,331.7,251.8,331.7,251.8c-0.1,0-0.2,0.1-0.3,0.1c-2.6,0.3-6.7-2.8-8.6-4.4
			c-2.4-2-5.1-4.5-6.3-7.5c0,8.4-3.6,19.4-11.2,23.9c-1.8,1.1-4,1.9-5.8,1.3c2.8,3.3,5.2,6.9,8.6,9.7c4.5,3.8,9,7.7,14.5,9.9
			c0.1,0,0.2-0.1,0.3,0c0.2,0.1,0.4,0.2,0.6,0.3C326.8,274.4,329.5,263.3,331.7,251.8C331.7,251.9,331.7,251.8,331.7,251.8z"/>
		<path class="st10" d="M348,274.5c1.8,4.5-0.7,12.2-1.6,16.5c-1,4.5-2.1,9.2-2,13.8c0.1,3.8,5.4,5.1,7.9,7.3c1.9,1.7,2.5,3,4.3,0.5
			c1.3-1.9,2.7-3.7,4-5.6c1.2-1.6,2.9-3.3,3.7-5.2c0.9-2.2-0.3-4.8-1.1-6.8c-2.5-6.3-6.3-12.9-6.6-19.8
			C353.9,276.4,350.7,276,348,274.5z"/>
		<path class="st6" d="M395,253.3c-0.5,1.5-0.9,2.9-1.2,4.4c1.2-0.7,2.4-1.4,3.7-2C396.7,254.9,396.2,253.8,395,253.3z"/>
		<path class="st6" d="M303.1,263.6c-1.3-1.9-2.4-3.9-3.4-6c-0.4,0.8-0.8,1.7-1.1,2.6C297.7,263.1,300.7,264.1,303.1,263.6z"/>
		<path class="st7" d="M303.8,263.3c0.3-0.1,0.6-0.3,0.8-0.5c2.7-2,5-4.8,6.7-7.7c2.2-3.7,3.4-7.5,4.1-11.5c-7-7-13.9-17.2-16-27
			c-1.2-5.7-1.3-11.5-1.2-17.3c0.1-3.1,0.1-6.3,0.2-9.4c0-1.9,0.4-5.4-2.6-5.9c-5.7-0.8-5.2,5.7-4.8,8.8c0.2,0.4,0.4,0.7,0.5,0.9
			c0.3,0.4-0.4,0.9-0.7,0.5c-2.1-2.5-3.5-5.5-5.3-8.2c-1.2-2-2.5-4.1-4.3-5.6c-2.2-1.8-4.2-0.5-4.3,2c-0.3,5.6,2.7,11.6,5.4,16.3
			c0.1,0.2-0.2,0.5-0.4,0.3c0,0-0.1-0.1-0.1-0.2c-0.1,0.1-0.3,0.2-0.5,0c-1.9-1.7-3.5-3.6-5.2-5.5c-1.3-1.5-4.4-5.6-6.6-5.3
			c-4.6,0.6-0.9,8.8,0.2,10.7c1.3,2.3,2.9,4.2,4.8,6c0,0,0,0,0,0c0.3,0.2,0.5,0.4,0.7,0.5c0.4,0.3,0,0.9-0.4,0.6
			c-1.7-1.1-3.4-2.1-5.3-2.8c-0.7-0.3-7-1.6-5.6,0.8c1.6,2.6,3.6,4.6,5.8,6.5c5.5,4.7,11.5,8.9,15.6,14.9c4.6,6.7,8,14.1,11.1,21.5
			C298.8,252.2,299.9,259.2,303.8,263.3z"/>
		<path class="st6" d="M314.1,239.1c-0.3,0.1-0.6,0.2-0.9,0.3c0.8,1,1.6,2.1,2.3,3.1c0.1-1.1,0.3-2.1,0.4-3.2c0,0,0-0.1,0.1-0.1
			C315.3,239.1,314.7,238.9,314.1,239.1z"/>
		<path class="st24" d="M380,167.5c0-2.7,1.4-5.9,3.7-7.4c-0.2-0.2-0.3-0.5-0.1-0.7c0.5-0.4,1-0.8,1.6-1.1c-1.9-3.9-4.6-7.6-8.7-9.5
			c-2.3-1.1-6-2.6-8.6-1.6c-3.6,1.4-1.8,3.5-2.7,5.6c-0.7,1.5-1.6,2.4-2.6,3.7c-2.5,2.9-2.4,7.3,0.7,9.8
			C368.3,170.2,374.4,170,380,167.5z"/>
		<path class="st24" d="M386,159.7c-3.1,1.2-5.5,4.8-5.1,8.2c0.6,4.8,5.6,5.8,8.7,2.6c1.9-2,4.8-5.8,3.6-8.8
			c-1.3-3.3-4.4-3.4-7.1-2.3C386.1,159.5,386.1,159.7,386,159.7z"/>
		<path class="st24" d="M389,172.5c-0.1,0.1-0.3,0.1-0.4,0.2c0.4,4.1,2.9,9.2,7.3,10.2c6.5,1.5,3.6-3.3,6.2-5.1
			c3.5-2.4,7.7-6,4.5-10.8c-2.6-3.9-7.5-4.5-11.8-3.4c0,0-0.1,0-0.1,0C394.4,167.1,391.9,171,389,172.5z"/>
		<path class="st11" d="M392.1,268.2c-0.4-5.1,0.2-10,2.2-14.8c-8.8,5.4-19.1,8.7-29.5,9c6.6,8.2,11.4,18.4,15.8,27.9
			c0,0.1,0.1,0.1,0.1,0.2c3-1.4,6.6-2,9.7-3.1c3.5-1.2,6.6-2.9,10-4.4c-1.6-0.1-3.3-1.5-4.2-2.4
			C393.4,277.8,392.4,272.2,392.1,268.2z"/>
		<path class="st10" d="M354,261.6c-4.5-0.9-8.9-2.3-13.1-4.2c-1.8,3.4-4.4,10.6,0.8,11.5c4,0.7,7.6-1.7,10.3-4.5
			c0.4-0.4,1.1,0.1,0.8,0.6c-0.1,0.2-0.2,0.3-0.4,0.5c0.5,0.6,1.6,2,1.6,1.9c0.3,0.3,0.6,0.6,1,0.9c1.3,1,3.3,2.4,5.1,1.9
			c3.7-1.2,3.3-5,0.6-7c-0.3-0.2-0.3-0.7,0-0.9C358.4,262.3,356.2,262,354,261.6z"/>
		<path class="st25" d="M299.5,194.6c-0.1,9.5-0.7,19.2,3.4,28c1.8,3.7,3.6,7.7,5.9,11.1c1.2,1.8,2.6,3.6,4,5.3
			c1-0.6,2.3-0.6,3.4-0.1c0.1,0,0.1,0.1,0.1,0.2c0.1,0,0.1,0.1,0.1,0.2c0,0,0,0,0,0c2.3,2.6,4.1,5.4,6.9,7.4c1,0.7,5.2,3.7,7.2,4.1
			c-3.4-2.8-6.4-6-8.8-9.7c-6.7-10.3-10.4-26.1-4.6-37.7c-2.2,0.2-4.3,0.4-6.4,0.5c-0.4,0-0.5-0.6-0.1-0.7c11.2-1.8,22.2-3.9,32.9-8
			c10.6-4.1,20.1-9.8,29.6-16c0.5-0.4,1.2,0.5,0.7,0.9c-0.4,0.3-0.8,0.6-1.2,1c-0.1,1-0.7,1.5-1.1,2.4c-0.9,2.1-0.4,4.3,2.3,4.3
			c2.7,0,5.2-0.6,7.7-1.5c0.5-0.2,0.9,0.5,0.5,0.9c0,0,0.1,0,0.1,0c0.1,0,0.2,0.2,0.1,0.3c-1.4,1.4,6.7,11.1,7.5,12
			c2.4,2.8,4.9,5.4,7.7,7.8c6,5.1,12.5,8.6,19.6,11.9c0.6,0.3,0.2,1.2-0.4,1c-1-0.3-2-0.6-2.9-1c-2.9,12.6-6.6,26.2-18.2,33.7
			c-0.1,0-0.1,0.1-0.2,0.1c1.1,0.2,2.2,1.5,2.8,2.5c2.2-1.2,4.5-2.3,6.5-3.8c3.6-2.7,7.4-5.6,10.4-9c5.5-6.1,8.1-14.1,11.2-21.6
			c-0.1-0.1-0.2-0.3-0.2-0.5c0.7-9.4,2.1-18.7,0.1-28c-1.7-8-4.7-15.6-9.1-22.5c-9.5-14.6-22.8-23.4-39.1-28.9
			c-0.1,0.1-0.2,0.2-0.4,0.2c-9.8-2.2-20.3-3.5-30.3-1.5c-8.8,1.7-16.9,5.6-24.3,10.7c-7,5-14.2,10.9-19.3,18
			c-3.3,4.6-4.5,9.9-6.7,15C300.5,185.4,299.6,190.6,299.5,194.6z M363.8,153.2c0.9-2.1,0.2-5.7,2.9-6.8c2.6-1,5.5-0.7,8.1,0.4
			c5.1,2.1,9.3,5.9,11,11.3c3-1.3,7.1-1,8.4,2.4c0.2,0.6,0.4,1.2,0.4,1.9c4.2-1.6,10.9-0.6,13,3.9c2,4.1,1,9.3-3.4,11.5
			c-2.5,1.3-1.8,4.9-4.2,5.9c-1.9,0.9-3.5,0.7-5.5-0.2c-4.2-1.8-6.4-6.4-6.6-10.7c-3.5,1.3-6.9,0-7.8-4c0-0.1,0-0.1,0-0.2
			c-5.3,2.7-13.2,2.9-17.6-1.5c-2-2-3-4.1-3-7C359.5,157,362.7,155.8,363.8,153.2z"/>
		<path class="st6" d="M402.6,278.1c0-0.3,0-0.6,0-0.9c0-0.5,0-1,0-1.5c-1.9,1.7-3.5,3.2-4.4,3.9
			C401.3,280.9,402.8,280.4,402.6,278.1z"/>
		<path class="st7" d="M352.3,386.1c-2.3,3.4-5,6.6-8,9.5c4.1-0.6,8.3-0.4,12.4-1.3c4.6-1,9.2-2.5,13.4-4.7
			c4.2-2.2,8.3-4.8,11.6-8.2c3.9-4,4-9.1,6.7-13.7c-10,6.5-20.5,10.3-32.5,10.8C356.1,381,353.5,384.2,352.3,386.1z"/>
		<path class="st26" d="M335.5,417.7c0.9-0.8,1.6-1.7,1.9-2.8c1.2-4.4,1.1-9.1,0.5-13.6c-4,3.3-8.4,6.3-13,8.7
			C327.3,414,330.6,417.5,335.5,417.7z M329.2,409.8c1.9-1.3,4.4-1.6,6.6-1c0.3,0.1,0.3,0.6-0.1,0.6c-2.3-0.2-4.2,0.1-6.3,0.9
			C329.1,410.4,329,410,329.2,409.8z"/>
		<path class="st10" d="M360.9,340.1c-8.9,1.1-17.8,0.5-26.6-0.6c-6.2-0.8-12.6-1.7-18.8-3.4c-1.2,6.1-1.9,12.3-1.7,18.5
			c0.1,3.8,0.4,7.6,1.1,11.3c0.5,2.8,0.5,7.3,4.2,8.1c11.4,2.4,23,3.5,34.7,3.3c12.4-0.3,23.5-3.7,33.9-10.7
			c8.5-5.8,20.5-14.4,20.4-25.8c-7.2-3.3-11.7-12.7-16.4-18.8C385.2,332.9,373.3,338.6,360.9,340.1z"/>
		<path class="st7" d="M351,385.3c1.3-1.9,3.2-4.4,4-6.8c-0.4,0-0.8,0.1-1.2,0.1c-7.4,0.1-14.7-0.2-22-1.2c-2.7-0.3-5.4-0.8-8.1-1.3
			c-5.2,8.9-12.3,20.1-21.8,24.8c0,0-0.1,0-0.1,0c4.1,6.8,10.4,9.8,18.2,10.5c0,0,0,0,0,0c7.3-5.4,15.4-9.4,22-15.8
			C345.4,392.5,348.5,389.1,351,385.3z"/>
		<path class="st27" d="M403.1,275.3c0.2,0,0.3,0.1,0.3,0.3c0.4,2.4,0.7,4.8-1,6.8c-0.1,0.1-0.3,0.3-0.4,0.4c0,0,0,0.1-0.1,0.1
			c-5.5,4-13.9,7.8-20.9,8.6c2.5,5.5,5,11.1,7.3,16.8c0,0,0.1,0,0.1-0.1c9.9-3.8,18.6-8.4,26.6-15.6c1.5-1.3-0.1-5.3-0.3-7.1
			c-0.3-2.8-0.5-5.5-0.4-8.3c0.2-5,1-9.9,2.5-14.7c-1.2,1-2.5,2.1-3.7,3.3C412.6,266.4,407.4,271.3,403.1,275.3z"/>
		<path class="st7" d="M446.8,240.9c-1.5,0-2.9,0.1-4.3,0.4c-0.5,0.1-0.7-0.6-0.2-0.7c0.3-0.1,0.6-0.1,0.9-0.2
			c2.8-1.2,5.6-2.6,7.8-4.7c0.9-0.9,1.9-1.9,2.6-3c0.5-0.8,3.7-6.3-0.9-5.2c-4.7,1.2-8.6,4-13.1,5.5c-0.2,0.1-0.4,0-0.4-0.2
			c0,0-0.1,0-0.1,0.1c-0.3,0.2-0.5-0.2-0.2-0.4c3.8-3,10.7-8.2,10.9-13.7c0.1-4.7-7.4,0.7-8.9,1.9c-2.4,1.9-4.6,4-7.3,5.4
			c-0.2,0.1-0.3,0-0.4,0c0,0.1-0.1,0.1-0.1,0.2c-0.2,0.3-0.6-0.1-0.4-0.3c1.2-2.1,3.1-4.6,3-7.1c-0.1-3.5-4.7-4.7-6.3-1.4
			c-1.3,2.7-2.4,5.6-3.5,8.4c-2,5-4,10.3-7.2,14.8c-5.9,8.3-15.5,14.7-24.8,18.4c-0.7,4-0.8,8.2,0.1,12.3c0.6,2.6,1.2,5.7,2.8,7.9
			c0.2,0.1,0.4,0.2,0.6,0.3c10.1-7.1,17.2-17.7,27.8-24.4c6-3.9,12.4-5.5,19.2-7.6c2.7-0.9,6.7-1.7,8.6-4
			C454.5,241.2,447.6,240.9,446.8,240.9z"/>
		<path class="st27" d="M308.4,276.7c-4-3.5-7.5-7.5-10.2-12.1c-0.3-0.3-0.6-0.6-0.9-1c-1.4-2,0.7-5.5,1.8-7.1c0,0,0,0,0,0
			c-2.8-6.1-4.9-12.7-7.8-18.7c-0.5,6.5-2.4,13.2-4.8,19.1c-1.3,3.3-2.7,6.7-4.7,9.7c-2.5,3.9-6.8,7.4-4,12.4
			c4,7.2,9.9,13.4,16.4,18.5c3.3,2.6,6.8,5,10.5,7c2.6,1.4,7.3,4.5,10.4,3.7c0,0,0,0,0,0c3-7.2,5.6-14.5,8-21.9
			C317.5,284.5,312.8,280.5,308.4,276.7z"/>
		<path class="st11" d="M309.5,333.5c1.9,0.4,3.7,0.8,5.6,1.1c0.2-0.1,0.4-0.1,0.5,0.1c14,2.8,28.4,5.6,42.6,4
			c7.5-0.8,15.5-2.4,21.7-6.9c4.7-3.4,7.5-7.9,11.1-12.3c-7.8-19.8-16-39-27-57.2c-0.9,0-1.8,0-2.8,0c3.6,1.3,3.8,6.9,0.3,8.5
			c-0.3,0.1-0.7,0.2-1,0.3c0.1,0.1,0.1,0.3,0,0.4c-0.8,1.4-1.9,2.4-3,3.1c1,3.9,1.9,7.7,3.4,11.4c1.5,3.7,3.5,7.5,4.6,11.4
			c0.9,3.3,0.1,4.5-1.8,7.2c-2.7,3.7-5.4,7.4-8.1,11.1c-0.2,0.3-0.7,0.5-1,0.1c-2-2.2-4.3-4.2-6.9-5.6c-1-0.6-2.8-1.1-3.6-1.9
			c-2-2.1-1-5.8-0.8-8.4c0.4-4.2,1.6-8.4,2.5-12.5c0.6-3,1.3-6.1,1.4-9.2c0-0.7-0.4-3.6,0.2-4.2c-1.6-0.9-3.1-2.2-4.1-3.8
			c0,0,0-0.1,0-0.1c-1.5,0-2.9-0.3-4.1-1.3c-3.5-2.6-1.7-9,0.7-12.2c-2.8-1.4-5.4-3-7.8-4.8c-1.8,15.9-5.9,31.8-11.5,46.7
			c-2.8,7.6-6,15.1-9.6,22.3c-0.5,1-5.9,10.8-5.4,11.1c1.2,0.6,2.4,1,3.6,1.4C309.3,333.6,309.4,333.5,309.5,333.5z"/>
		<path class="st28" d="M324.6,410.1c-0.9,0.5-1.8,0.9-2.7,1.3c0.9,2.4,2.4,6.5,4.8,7.7c2.3,1.1,5.5,0.7,7.8-0.7
			C330,418.1,326.3,414.2,324.6,410.1z"/>
		<path class="st14" d="M302.2,417.9c-0.3,0.3,0.1,0.8,0.4,0.6c4.7-3.2,9.1-3.5,14.5-1.8c0.6,0.2,1-0.7,0.4-1
			C312.9,412.8,305.9,414,302.2,417.9z"/>
		<path class="st14" d="M315.8,422.6c-3.3-1-7.8,0.1-10.5,2.1c-0.3,0.2-0.1,0.8,0.3,0.7c1.5-0.6,3-1.2,4.6-1.5
			c1.8-0.4,3.6-0.1,5.4-0.1C316.3,423.8,316.4,422.8,315.8,422.6z"/>
		<path class="st14" d="M446.4,239.9c4.9-2.2,10.8-6.8,9.8-11.9c-0.8-3.9-8.4-0.4-13.3,2.2c2.1-1.7,3.9-3.7,5.5-5.6
			c1.3-1.7,2.9-4.6,2.4-6.9c-1.5-6.4-12.5,3.2-16.5,6.6c2-3.2,3.5-7.1,0.5-10.1c-2.5-2.6-5.2,0.5-6.7,3.1
			c2.9-16.4-0.9-33.8-9.7-47.9c-8.7-13.8-23.8-26.1-40.4-28.5c0,0,0,0,0,0c0-0.1-0.1-0.1-0.2-0.2c-9.5-2.6-19.3-3.7-29.1-2.4
			c-9.1,1.2-17.4,5.2-25.1,10.2c-12.8,8.4-24,19.5-27.5,34.7c-0.4-0.1-0.8-0.2-1.2-0.3c-4.4-0.6-5,4.8-4.7,8.5
			c-3-5.4-9.4-17-13.3-12.4c-3.3,3.8-0.2,11.6,2.8,16.7c-2-2.4-4-4.7-6.3-6.8c-1.7-1.6-4-2.7-5.9-0.9c-2.2,2-0.9,6.1-0.1,8.3
			c0.9,2.5,2.4,4.8,4.2,6.7c-3.1-1.8-6.7-2.8-8.9,0.3c-1.7,2.4,8.6,10.1,9.6,10.9c3.3,2.7,6.6,5.4,9.5,8.5c3.8,4.1,6.5,9.2,9,14.1
			c-2.1,9.3-4.3,18.4-8.9,26.9c-1.7,3.1-5.4,6-6.4,9.4c-1.1,3.7,1,6.8,3,9.9c4.9,7.7,12.1,13.9,19.5,19.1c2.4,1.6,12.3,8.9,16.5,7.4
			c-3.2,7.6-6.8,15-10.8,22.3c-0.2,0.3-0.1,0.7,0.2,0.9c3.1,2.1,6.8,2.8,10.5,3c0.1,0,0.1,0,0.2,0.1c-1.6,6.7-2.3,13.4-2.1,20.3
			c0.1,5,0.1,13.5,3.2,17.6c1.2,1.6,4.5,1.7,6.2,2c0.2,0,0.3,0.1,0.5,0.1c-3.3,4.5-6.3,9-9.8,13.3c-3.4,4.2-7.5,7.3-11.5,10.9
			c-0.1,0.1-0.2,0.2-0.2,0.3c-0.1,0-0.2,0.1-0.1,0.3c-4-0.2-6.7,2.5-8.3,5.9c-0.1,0-0.2,0-0.2,0.1c0,0.1,0,0.3-0.1,0.4
			c-1.3,2.9-1.9,6.2-2.1,8.7c-0.5,7.8,2.9,18.6,9.7,23.2c6.7,4.5,14.1,3.2,19.3-2.9c5.4-6.4,4.9-16.9,0.8-23.8c0,0,0.1,0,0.1,0
			c0.3,0,0.4-0.2,0.4-0.5c0.2-0.1,0.3-0.1,0.5-0.2c0.4,2.7,1.9,6.2,4.2,7.9c2.8,2,6.4,1.4,9.4,0.3c6.5-2.4,5.1-13.9,3.9-19.2
			c1.6-1.3,3.2-2.7,4.7-4.1c0.2-0.2,0.4-0.3,0.5-0.5c0,0.1,0.1,0.2,0.3,0.3c9.1,2.1,20.3-2,28.3-6.2c9-4.8,16.3-11.9,16.7-22.7
			c0-0.1-0.1-0.2-0.1-0.2c0.7-0.5,1.4-0.9,2.1-1.4c7.9-5.6,19.5-14.5,18.3-25.4c0.1-0.2,0.1-0.5-0.1-0.6c0,0-0.1-0.1-0.1-0.1
			c0,0-0.1-0.1-0.1-0.1c-3.5-2.8-6.5-5.4-9.2-9.1c-2.4-3.2-4.7-6.7-7.7-9.4c0.1-0.1,0.2-0.3,0.2-0.4c0.5,0,0.9-0.3,0.7-0.9
			c0-0.1-0.1-0.2-0.1-0.3c0.1-0.3-0.1-0.6-0.3-0.8c-1.1-3.2-2.3-6.4-3.6-9.6c10.8-2.8,20.2-9.3,28.3-16.7c0.2-0.2,0.2-0.5,0.2-0.7
			c-2.5-9.8-2.4-19.6,0-29.4c0-0.1,0-0.1-0.1-0.2c6.8-5.6,13.8-9.9,22.6-12.5c3.6-1.1,7.7-1.9,11-3.8c0.7-0.4,3.1-1.5,3.1-2.6
			C454,239.8,449.9,239.5,446.4,239.9z M303.6,168.6c5.1-7.1,12.3-13,19.3-18c7.3-5.2,15.4-9,24.3-10.7c10-2,20.4-0.7,30.3,1.5
			c0.2,0,0.3,0,0.4-0.2c16.3,5.4,29.6,14.3,39.1,28.9c4.4,6.8,7.4,14.5,9.1,22.5c2,9.3,0.6,18.6-0.1,28c0,0.2,0.1,0.4,0.2,0.5
			c-3.1,7.5-5.7,15.5-11.2,21.6c-3,3.4-6.8,6.2-10.4,9c-2,1.5-4.3,2.7-6.5,3.8c-0.6-1-1.7-2.3-2.8-2.5c0.1,0,0.1-0.1,0.2-0.1
			c11.6-7.4,15.2-21,18.2-33.7c1,0.4,1.9,0.7,2.9,1c0.6,0.2,1-0.7,0.4-1c-7.1-3.3-13.6-6.8-19.6-11.9c-2.8-2.4-5.3-5-7.7-7.8
			c-0.8-0.9-8.9-10.7-7.5-12c0.1-0.1,0.1-0.3-0.1-0.3c0,0-0.1,0-0.1,0c0.3-0.4,0-1.1-0.5-0.9c-2.5,0.9-5,1.6-7.7,1.5
			c-2.7,0-3.2-2.3-2.3-4.3c0.4-0.9,1-1.4,1.1-2.4c0.4-0.3,0.8-0.6,1.2-1c0.5-0.4-0.2-1.3-0.7-0.9c-9.5,6.2-19,11.8-29.6,16
			c-10.6,4.1-21.6,6.2-32.9,8c-0.4,0.1-0.3,0.7,0.1,0.7c2.1-0.1,4.3-0.2,6.4-0.5c-5.8,11.6-2.1,27.4,4.6,37.7c2.4,3.7,5.4,7,8.8,9.7
			c-2-0.4-6.2-3.4-7.2-4.1c-2.9-2.1-4.6-4.9-6.9-7.4c0,0,0,0,0,0c0-0.1-0.1-0.2-0.1-0.2c0-0.1,0-0.2-0.1-0.2c-1-0.6-2.4-0.6-3.4,0.1
			c-1.4-1.7-2.8-3.5-4-5.3c-2.3-3.4-4.1-7.4-5.9-11.1c-4.1-8.8-3.5-18.5-3.4-28c0-3.9,0.9-9.2-2.6-11
			C299.1,178.5,300.4,173.2,303.6,168.6z M402.6,275.8c0,0.5,0,1,0,1.5c0,0.3,0,0.6,0,0.9c0.2,2.2-1.3,2.8-4.5,1.6
			C399,279,400.7,277.5,402.6,275.8z M400.5,283.2c-3.3,1.4-6.5,3.2-10,4.4c-3.2,1.1-6.7,1.6-9.7,3.1c0-0.1-0.1-0.1-0.1-0.2
			c-4.4-9.5-9.1-19.7-15.8-27.9c10.4-0.3,20.7-3.6,29.5-9c-2,4.7-2.6,9.6-2.2,14.8c0.3,4,1.2,9.6,4.2,12.6
			C397.2,281.7,398.9,283.1,400.5,283.2z M360.7,263.3c2.7,2,3.1,5.8-0.6,7c-1.8,0.6-3.8-0.9-5.1-1.9c-0.3-0.3-0.7-0.6-1-0.9
			c0,0-1.1-1.3-1.6-1.9c0.1-0.2,0.3-0.3,0.4-0.5c0.3-0.5-0.4-1-0.8-0.6c-2.7,2.7-6.3,5.2-10.3,4.5c-5.2-0.9-2.6-8.1-0.8-11.5
			c4.2,2,8.6,3.4,13.1,4.2c2.2,0.4,4.4,0.7,6.7,0.8C360.4,262.6,360.4,263,360.7,263.3z M356.7,275.3c0.3,6.9,4.1,13.5,6.6,19.8
			c0.8,2,2,4.7,1.1,6.8c-0.8,1.8-2.5,3.6-3.7,5.2c-1.3,1.9-2.7,3.7-4,5.6c-1.8,2.5-2.4,1.2-4.3-0.5c-2.5-2.1-7.8-3.5-7.9-7.3
			c-0.2-4.6,1-9.3,2-13.8c0.9-4.3,3.5-12,1.6-16.5C350.7,276,353.9,276.4,356.7,275.3z M351,274.9c-2.7-0.5-5.1-2.6-6.9-4.5
			c2.9-0.3,5.9-2.1,7.8-4.3c0.9,3,4.5,5.4,7.7,5.3C357.2,273.7,354.6,275.5,351,274.9z M357.2,260.5c-13.1-1.3-25.5-8.5-33.3-19
			c-3.8-5.1-6-11-7.3-17.2c-1.4-7.3,0.1-13.9,1.7-21c18.4-2.1,37.6-9.7,52.3-20.7c-1.1,1.7-1.5,4.2,0,5.4c2.7,2.3,7.6,1,10.6-0.5
			c-0.6,2.3,2.2,5.5,3.4,7.3c2.4,3.9,5.5,7.4,8.7,10.7c5.4,5.5,12.3,10.4,19.6,13.4c-3.5,11.9-6.6,24.1-17.1,31.8
			C385,258.7,370.4,261.8,357.2,260.5z M323.5,285.2c-0.2-0.1-0.4-0.2-0.6-0.3c-0.1-0.1-0.2,0-0.3,0c-5.5-2.1-10-6.1-14.5-9.9
			c-3.4-2.9-5.8-6.5-8.6-9.7c1.8,0.6,4-0.2,5.8-1.3c7.6-4.5,11.2-15.5,11.2-23.9c1.3,3,3.9,5.5,6.3,7.5c1.9,1.5,6,4.7,8.6,4.4
			c0.1,0,0.2,0,0.3-0.1c0,0,0,0,0,0c0,0,0,0-0.1,0.1C329.5,263.3,326.8,274.4,323.5,285.2z M303.1,263.6c-2.4,0.6-5.3-0.4-4.5-3.4
			c0.3-0.9,0.7-1.8,1.1-2.6C300.6,259.7,301.8,261.7,303.1,263.6z M315.9,239.3c-0.1,1.1-0.2,2.2-0.4,3.2c-0.8-1.1-1.5-2.1-2.3-3.1
			c0.3-0.1,0.6-0.2,0.9-0.3c0.6-0.2,1.2,0,1.9,0.1C315.9,239.2,315.9,239.3,315.9,239.3z M395,253.3c1.2,0.4,1.7,1.6,2.5,2.4
			c-1.2,0.6-2.5,1.3-3.7,2C394.2,256.3,394.6,254.8,395,253.3z M269.9,210.6c-2.3-2-4.3-4-5.8-6.5c-1.4-2.4,4.8-1,5.6-0.8
			c1.9,0.7,3.6,1.6,5.3,2.8c0.4,0.3,0.7-0.4,0.4-0.6c-0.2-0.2-0.5-0.4-0.7-0.5c0,0,0,0,0,0c-1.8-1.9-3.4-3.8-4.8-6
			c-1.1-1.9-4.8-10.1-0.2-10.7c2.2-0.3,5.3,3.9,6.6,5.3c1.7,1.9,3.2,3.9,5.2,5.5c0.2,0.2,0.4,0.1,0.5,0c0,0,0.1,0.1,0.1,0.2
			c0.2,0.2,0.5-0.1,0.4-0.3c-2.7-4.8-5.7-10.7-5.4-16.3c0.1-2.5,2.1-3.9,4.3-2c1.8,1.5,3.1,3.6,4.3,5.6c1.7,2.8,3.2,5.7,5.3,8.2
			c0.3,0.4,0.9-0.1,0.7-0.5c-0.1-0.2-0.3-0.5-0.5-0.9c-0.4-3.1-0.9-9.7,4.8-8.8c3,0.4,2.7,3.9,2.6,5.9c-0.1,3.1-0.1,6.3-0.2,9.4
			c-0.1,5.8,0,11.6,1.2,17.3c2.1,9.8,9,20.1,16,27c-0.7,4-1.9,7.8-4.1,11.5c-1.7,2.9-4,5.7-6.7,7.7c-0.3,0.2-0.5,0.3-0.8,0.5
			c-3.9-4.1-5-11.1-7.1-16.3c-3.1-7.5-6.5-14.9-11.1-21.5C281.4,219.5,275.4,215.3,269.9,210.6z M315.1,308.2
			c-3.1,0.8-7.8-2.3-10.4-3.7c-3.7-2-7.2-4.4-10.5-7c-6.5-5.1-12.4-11.3-16.4-18.5c-2.8-5,1.5-8.5,4-12.4c1.9-3,3.4-6.4,4.7-9.7
			c2.4-6,4.3-12.6,4.8-19.1c3,6,5,12.6,7.8,18.7c0,0,0,0,0,0c-1.1,1.6-3.3,5.1-1.8,7.1c0.3,0.4,0.6,0.7,0.9,1
			c2.7,4.6,6.2,8.5,10.2,12.1c4.4,3.8,9.1,7.8,14.7,9.6C320.8,293.7,318.2,301,315.1,308.2C315.2,308.2,315.2,308.2,315.1,308.2z
			 M311,321.2c3.6-7.3,6.8-14.7,9.6-22.3c5.6-15,9.7-30.8,11.5-46.7c2.4,1.8,5.1,3.4,7.8,4.8c-2.4,3.2-4.2,9.5-0.7,12.2
			c1.3,0.9,2.7,1.3,4.1,1.3c0,0,0,0.1,0,0.1c1.1,1.5,2.5,2.8,4.1,3.8c-0.6,0.6-0.2,3.5-0.2,4.2c-0.1,3.1-0.8,6.1-1.4,9.2
			c-0.9,4.2-2.1,8.3-2.5,12.5c-0.3,2.6-1.2,6.3,0.8,8.4c0.8,0.9,2.6,1.4,3.6,1.9c2.6,1.5,4.8,3.5,6.9,5.6c0.3,0.3,0.8,0.2,1-0.1
			c2.7-3.7,5.4-7.4,8.1-11.1c2-2.7,2.7-4,1.8-7.2c-1-3.9-3-7.7-4.6-11.4c-1.5-3.8-2.4-7.6-3.4-11.4c1.1-0.7,2.2-1.7,3-3.1
			c0.1-0.1,0.1-0.3,0-0.4c0.3-0.1,0.7-0.2,1-0.3c3.6-1.6,3.3-7.2-0.3-8.5c0.9,0,1.8,0,2.8,0c11,18.2,19.2,37.4,27,57.2
			c-3.6,4.4-6.4,8.9-11.1,12.3c-6.2,4.5-14.3,6.1-21.7,6.9c-14.3,1.5-28.6-1.2-42.6-4c-0.1-0.2-0.4-0.2-0.5-0.1
			c-1.9-0.4-3.7-0.8-5.6-1.1c-0.2,0-0.3,0.1-0.3,0.2c-1.2-0.3-2.4-0.8-3.6-1.4C305.1,332,310.5,322.2,311,321.2z M320.5,431
			c-2.5,8.1-11.4,11.6-18.7,7.6c-5.9-3.3-8.6-10.9-9.8-17.2c-0.5-2.7-0.6-6.7,0.2-10.4c0.9,12.7,12.5,30.5,26.1,23.9
			c0.5-0.2,0.1-1-0.4-0.9c-14.2,4.3-24.9-11.9-25.2-24.8c1.3-4.3,3.9-7.8,8.5-7.8c3,6.6,10.2,11.7,17.5,11.2
			C321.2,418.8,322.6,424.4,320.5,431z M326.7,419.1c-2.4-1.2-3.9-5.3-4.8-7.7c0.9-0.4,1.8-0.8,2.7-1.3c1.7,4.1,5.4,8,9.9,8.3
			C332.2,419.8,328.9,420.2,326.7,419.1z M337.4,414.9c-0.3,1.1-1,2.1-1.9,2.8c-4.9-0.2-8.2-3.7-10.5-7.8c4.6-2.4,8.9-5.4,13-8.7
			C338.5,405.8,338.6,410.5,337.4,414.9z M342.1,395.6c-6.7,6.4-14.8,10.4-22,15.8c0,0,0,0,0,0c-7.8-0.7-14.1-3.6-18.2-10.5
			c0,0,0.1,0,0.1,0c9.4-4.7,16.5-15.9,21.8-24.8c2.7,0.5,5.4,1,8.1,1.3c7.3,0.9,14.6,1.3,22,1.2c0.4,0,0.8,0,1.2-0.1
			c-0.7,2.4-2.7,4.8-4,6.8C348.5,389.1,345.4,392.5,342.1,395.6z M381.7,381.3c-3.3,3.4-7.5,6-11.6,8.2c-4.2,2.2-8.7,3.7-13.4,4.7
			c-4.1,0.9-8.3,0.7-12.4,1.3c3-2.9,5.6-6.1,8-9.5c1.2-1.8,3.7-5.1,3.6-7.6c11.9-0.5,22.5-4.3,32.5-10.8
			C385.8,372.2,385.7,377.3,381.7,381.3z M408,340.6c0.1,11.4-11.9,20-20.4,25.8c-10.3,7-21.4,10.4-33.9,10.7
			c-11.7,0.3-23.2-0.9-34.7-3.3c-3.7-0.8-3.7-5.2-4.2-8.1c-0.7-3.7-1-7.5-1.1-11.3c-0.2-6.2,0.5-12.4,1.7-18.5
			c6.1,1.7,12.6,2.7,18.8,3.4c8.8,1.1,17.8,1.7,26.6,0.6c12.5-1.5,24.3-7.2,30.7-18.3C396.4,327.9,400.8,337.3,408,340.6z
			 M414.4,277.2c-0.1,2.8,0.1,5.6,0.4,8.3c0.2,1.7,1.7,5.7,0.3,7.1c-7.9,7.2-16.7,11.8-26.6,15.6c0,0-0.1,0-0.1,0.1
			c-2.3-5.7-4.7-11.3-7.3-16.8c7-0.7,15.4-4.5,20.9-8.6c0,0,0-0.1,0.1-0.1c0.1-0.1,0.3-0.2,0.4-0.4c1.6-2,1.4-4.4,1-6.8
			c0-0.2-0.2-0.3-0.3-0.3c4.3-3.9,9.4-8.9,10.1-9.5c1.2-1.1,2.5-2.2,3.7-3.3C415.5,267.3,414.7,272.2,414.4,277.2z M452.7,243.3
			c-1.9,2.3-5.9,3.1-8.6,4c-6.7,2.2-13.2,3.8-19.2,7.6c-10.5,6.7-17.6,17.4-27.8,24.4c-0.2-0.1-0.4-0.2-0.6-0.3
			c-1.6-2.2-2.2-5.3-2.8-7.9c-0.9-4.1-0.8-8.2-0.1-12.3c9.3-3.7,19-10.2,24.8-18.4c3.2-4.5,5.2-9.7,7.2-14.8
			c1.1-2.8,2.2-5.7,3.5-8.4c1.6-3.2,6.1-2,6.3,1.4c0.1,2.5-1.8,5.1-3,7.1c-0.2,0.3,0.2,0.6,0.4,0.3c0-0.1,0.1-0.1,0.1-0.2
			c0.1,0.1,0.3,0.1,0.4,0c2.7-1.4,4.9-3.5,7.3-5.4c1.5-1.2,9-6.6,8.9-1.9c-0.2,5.4-7,10.7-10.9,13.7c-0.2,0.2,0,0.6,0.2,0.4
			c0,0,0.1,0,0.1-0.1c0.1,0.2,0.2,0.3,0.4,0.2c4.5-1.4,8.5-4.3,13.1-5.5c4.6-1.2,1.4,4.4,0.9,5.2c-0.7,1.1-1.7,2.1-2.6,3
			c-2.2,2.2-5,3.5-7.8,4.7c-0.3,0.1-0.6,0.1-0.9,0.2c-0.5,0.1-0.3,0.8,0.2,0.7c1.5-0.3,2.8-0.4,4.3-0.4
			C447.6,240.9,454.5,241.2,452.7,243.3z"/>
		<path class="st14" d="M380.1,168.7c0,0.1,0,0.1,0,0.2c0.9,4,4.4,5.3,7.8,4c0.2,4.3,2.4,9,6.6,10.7c2,0.8,3.6,1,5.5,0.2
			c2.4-1,1.7-4.6,4.2-5.9c4.4-2.2,5.3-7.4,3.4-11.5c-2.2-4.5-8.8-5.4-13-3.9c-0.1-0.7-0.2-1.3-0.4-1.9c-1.4-3.5-5.4-3.7-8.4-2.4
			c-1.7-5.4-5.9-9.2-11-11.3c-2.5-1.1-5.5-1.4-8.1-0.4c-2.7,1.1-2,4.6-2.9,6.8c-1.1,2.6-4.2,3.7-4.2,6.9c0,2.9,0.9,5,3,7
			C366.9,171.7,374.8,171.4,380.1,168.7z M406.5,167c3.2,4.8-1,8.4-4.5,10.8c-2.6,1.8,0.3,6.6-6.2,5.1c-4.4-1-6.9-6.2-7.3-10.2
			c0.1-0.1,0.3-0.1,0.4-0.2c3-1.5,5.4-5.3,5.6-8.9c0,0,0.1,0,0.1,0C399,162.5,403.9,163.1,406.5,167z M393.2,161.7
			c1.2,3-1.6,6.8-3.6,8.8c-3.1,3.2-8.2,2.3-8.7-2.6c-0.4-3.4,1.9-7,5.1-8.2c0.2-0.1,0.2-0.2,0.1-0.3
			C388.8,158.4,391.8,158.4,393.2,161.7z M362.6,156.5c1.1-1.2,2-2.2,2.6-3.7c0.9-2.1-0.9-4.1,2.7-5.6c2.6-1,6.3,0.5,8.6,1.6
			c4.1,1.9,6.8,5.5,8.7,9.5c-0.6,0.3-1.1,0.6-1.6,1.1c-0.3,0.2-0.2,0.6,0.1,0.7c-2.3,1.5-3.8,4.6-3.7,7.4
			c-5.5,2.4-11.7,2.7-16.7-1.2C360.2,163.8,360.1,159.5,362.6,156.5z"/>
		<path class="st14" d="M329.5,410.3c2.1-0.8,4.1-1.1,6.3-0.9c0.4,0,0.4-0.5,0.1-0.6c-2.2-0.6-4.7-0.3-6.6,1
			C329,410,329.1,410.4,329.5,410.3z"/>
		<path class="st15" d="M412.9,218.9c-7.3-2.9-14.2-7.8-19.6-13.4c-3.2-3.3-6.2-6.8-8.7-10.7c-1.1-1.8-4-5-3.4-7.3
			c-3,1.5-7.9,2.8-10.6,0.5c-1.4-1.3-1.1-3.7,0-5.4c-14.7,11-33.9,18.5-52.3,20.7c-1.5,7.1-3.1,13.6-1.7,21
			c1.2,6.2,3.5,12.1,7.3,17.2c5.5,7.3,13.1,13.1,21.7,16.3c-7.9-6.3-14-14.8-17.2-24.3c-1.4-4.1-2.3-8.5-1.9-12.8
			c0.4-4.3,2.2-8.7,5.5-11.5c4.2-3.7,10.1-4.6,15.5-5.7c7.6-1.5,15.2-3.6,21.5-8.1c3.1,1.7,7,1.9,10.2,0.5
			c6.2,12.9,19.2,22.2,33.4,23.9C412.8,219.4,412.8,219.2,412.9,218.9z"/>
		<path class="st15" d="M444.1,247.2c2.7-0.9,6.7-1.7,8.6-4c0.5-0.6,0.3-1.1-0.3-1.4c-2,1.2-4.2,2.1-6.5,2.6c-5,1-10.3,0.1-15.3,1.4
			c-7.3,1.9-12.5,8.2-18.3,13c-5.6,4.7-12.1,8.1-18.8,11.2c0.1,0.4,0.1,0.8,0.2,1.1c0.6,2.6,1.2,5.7,2.8,7.9
			c0.2,0.1,0.4,0.2,0.6,0.3c10.1-7.1,17.2-17.7,27.8-24.4C431,251,437.4,249.4,444.1,247.2z"/>
		<path class="st15" d="M293.7,230.4c-1.1-3-2.1-6.1-4.2-8.6c-1.3-1.5-2.9-2.7-4.6-3.9c-7-5-13.9-9.9-20.9-14.9
			c-0.3,0.2-0.3,0.5,0,1c1.6,2.6,3.6,4.6,5.8,6.5c5.5,4.7,11.5,8.9,15.6,14.9c4.6,6.7,8,14.1,11.1,21.5c2.1,5.2,3.3,12.1,7.1,16.3
			c0.3-0.1,0.6-0.3,0.8-0.5c2.5-1.8,4.6-4.3,6.3-7C303.3,248.8,297.4,240.1,293.7,230.4z"/>
		<path class="st15" d="M335.9,377.8c-1.4-0.1-2.7-0.3-4.1-0.4c-2.7-0.3-5.4-0.8-8.1-1.3c-5.2,8.9-12.3,20.1-21.8,24.8
			c0,0-0.1,0-0.1,0c0.7,1.1,1.4,2.1,2.2,3C316.6,398.1,327.7,389.1,335.9,377.8z"/>
		<path class="st15" d="M355.9,378.4c0.1,2.2-1.7,4.8-3,6.7c0.2,0,0.3-0.1,0.5-0.1c6.1-1.6,12.1-4.5,16.6-8.9
			C365.5,377.4,360.8,378.2,355.9,378.4z"/>
		<path class="st27" d="M423.7,218.3c-11.3-4-17.9-15.3-23.7-25.8c-1.4,2.3-2.1,5-2,7.6c-4.9-8.4-8.6-17.6-10.9-27.2
			c-2.9,0.8-5.7-0.3-6.8-3.3c-18.6,6-37.5,11.6-56.9,13.3c5,2.8,11,3.7,16.6,2.5c-12.6,6.6-26.5,10.8-40.6,12.4
			c-0.1,8.4-0.1,16.8,3.5,24.5c1.8,3.7,3.6,7.7,5.9,11.1c1.2,1.8,2.6,3.6,4,5.3c1-0.6,2.3-0.6,3.4-0.1c0.1,0,0.1,0.1,0.1,0.2
			c0.1,0,0.1,0.1,0.1,0.2c0,0,0,0,0,0c2.3,2.6,4.1,5.4,6.9,7.4c1,0.7,5.2,3.7,7.2,4.1c-3.4-2.8-6.4-6-8.8-9.7
			c-6.7-10.3-10.4-26.1-4.6-37.7c-2.2,0.2-4.3,0.4-6.4,0.5c-0.4,0-0.5-0.6-0.1-0.7c11.2-1.8,22.2-3.9,32.9-8
			c10.6-4.1,20.1-9.8,29.6-16c0.5-0.4,1.2,0.5,0.7,0.9c-0.4,0.3-0.8,0.6-1.2,1c-0.1,1-0.7,1.5-1.1,2.4c-0.9,2.1-0.4,4.3,2.3,4.3
			c2.7,0,5.2-0.6,7.7-1.5c0.5-0.2,0.9,0.5,0.5,0.9c0,0,0.1,0,0.1,0c0.1,0,0.2,0.2,0.1,0.3c-1.4,1.4,6.7,11.1,7.5,12
			c2.4,2.8,4.9,5.4,7.7,7.8c6,5.1,12.5,8.6,19.6,11.9c0.6,0.3,0.2,1.2-0.4,1c-1-0.3-2-0.6-2.9-1c-2.9,12.6-6.6,26.2-18.2,33.7
			c-0.1,0-0.1,0.1-0.2,0.1c1.1,0.2,2.2,1.5,2.8,2.5c2.2-1.2,4.5-2.3,6.5-3.8c3.6-2.7,7.4-5.6,10.4-9c5.5-6.1,8.1-14.1,11.2-21.6
			c-0.1-0.1-0.2-0.3-0.2-0.5c0-0.5,0.1-1,0.1-1.5C425.3,218.9,424.5,218.6,423.7,218.3z"/>
		<path class="st6" d="M400.5,283.2c-1.6-0.1-3.3-1.5-4.2-2.4c-1.1-1.1-1.9-2.6-2.5-4.2c-4.5,1.3-9.6,0.9-14.2-0.2
			c-2.3-0.5-4.5-1.2-6.7-1.9c2.9,5.2,5.4,10.6,7.8,15.8c0,0.1,0.1,0.1,0.1,0.2c3-1.4,6.6-2,9.7-3.1
			C394,286.4,397.2,284.6,400.5,283.2z"/>
		<path class="st6" d="M316.6,267.9c-2.9-2-5.2-4.6-7.2-7.4c-1.2,1.4-2.6,2.6-4.1,3.5c-1.8,1.1-4,1.9-5.8,1.3
			c2.8,3.3,5.2,6.9,8.6,9.7c4.5,3.8,9,7.7,14.5,9.9c0.1,0,0.2-0.1,0.3,0c0.2,0.1,0.4,0.2,0.6,0.3c1.3-4.3,2.5-8.6,3.6-12.9
			C323.3,271.4,319.8,270.1,316.6,267.9z"/>
		<path class="st6" d="M372.7,335.2c-9.3,2.1-19.8,1.6-27.3-4.3c-3.5-2.8-6.2-7.1-5.6-11.5c0.7-4.4,6.1-7.9,9.9-5.6
			c1,0.6,1.7,1.5,2.8,1.9c0.6,0.2,1.3,0.3,1.8,0.1c-2-2-4.1-3.9-6.5-5.3c-1-0.6-2.8-1.1-3.6-1.9c-2-2.1-1-5.8-0.8-8.4
			c0.4-4.2,1.6-8.4,2.5-12.5c0.6-3,1.3-6.1,1.4-9.2c0-0.7-0.4-3.6,0.2-4.2c-1.6-0.9-3.1-2.2-4.1-3.8c0,0,0-0.1,0-0.1
			c-1.5,0-2.9-0.3-4.1-1.3c-3.5-2.6-1.7-9,0.7-12.2c-2.8-1.4-5.4-3-7.8-4.8c-1.8,15.9-5.9,31.8-11.5,46.7c-2.8,7.6-6,15.1-9.6,22.3
			c-0.5,1-5.9,10.8-5.4,11.1c1.2,0.6,2.4,1,3.6,1.4c0-0.1,0.1-0.2,0.3-0.2c1.9,0.4,3.7,0.8,5.6,1.1c0.2-0.1,0.4-0.1,0.5,0.1
			c14,2.8,28.4,5.6,42.6,4c5.9-0.6,12.1-1.8,17.6-4.4C374.8,334.7,373.8,334.9,372.7,335.2z"/>
		<path class="st18" d="M360.7,263.3c-0.3-0.2-0.3-0.7,0-0.9c-2.2-0.1-4.5-0.4-6.7-0.8c-4.5-0.9-8.9-2.3-13.1-4.2
			c-1.5,2.8-3.5,8.2-1.2,10.5c2.7-3.6,7.3-5.9,11.9-5.4c4.3,0.4,8.2,3,10.3,6.7C363.4,267.5,362.8,264.8,360.7,263.3z"/>
		<path class="st18" d="M351.9,266.1c-1.9,2.2-4.9,4-7.8,4.3c0.8,0.9,1.8,1.8,2.8,2.6c2-1.6,5-2.1,7.4-1.1c1,0.4,2,0.9,2.8,1.6
			c0.8-0.6,1.7-1.3,2.4-2C356.4,271.4,352.8,269.1,351.9,266.1z"/>
		<path class="st18" d="M356.1,313.1c-2.1-2.5-3.7-5.6-4.6-8.8c-1.6-5.4-1.6-11.2-0.9-16.7c0.3-2.6,0.8-5.2,2.2-7.5
			c0.9-1.6,2.4-2.9,4-3.6c0-0.4-0.1-0.8-0.1-1.3c-2.7,1.2-5.9,0.7-8.7-0.7c1.8,4.5-0.7,12.2-1.6,16.5c-1,4.5-2.1,9.2-2,13.8
			c0.1,3.8,5.4,5.1,7.9,7.3C354,313.6,354.7,314.8,356.1,313.1z"/>
		<path class="st18" d="M360.9,340.1c-8.9,1.1-17.8,0.5-26.6-0.6c-6.2-0.8-12.6-1.7-18.8-3.4c-1.2,6.1-1.9,12.3-1.7,18.5
			c0.1,3.8,0.4,7.6,1.1,11.3c0.5,2.8,0.5,7.3,4.2,8.1c5,1,10.1,1.8,15.2,2.4c0.9-2.9,1.5-5.8,2.2-8.7c1.4-5.7,3.7-11.7,8.7-14.9
			c3.6-2.3,7.9-2.8,12.1-3.7c13.4-2.9,25.9-11.5,32-23.6C382.5,334.1,371.9,338.7,360.9,340.1z"/>
		<path class="st29" d="M315.8,422.6c-3.3-1-7.8,0.1-10.5,2.1c-0.3,0.2-0.1,0.8,0.3,0.7c1.5-0.6,3-1.2,4.6-1.5
			c1.8-0.4,3.6-0.1,5.4-0.1C316.3,423.8,316.4,422.8,315.8,422.6z"/>
		<path class="st29" d="M302.2,417.9c-0.3,0.3,0.1,0.8,0.4,0.6c4.7-3.2,9.1-3.5,14.5-1.8c0.6,0.2,1-0.7,0.4-1
			C312.9,412.8,305.9,414,302.2,417.9z"/>
		<path class="st28" d="M318.5,434.4c0,0.2,0,0.4-0.2,0.5c-13.6,6.7-25.2-11.2-26.1-23.9c-0.8,3.7-0.8,7.7-0.2,10.4
			c1.2,6.3,3.8,13.9,9.8,17.2c6.2,3.4,13.5,1.4,17.1-4.2C318.8,434.4,318.7,434.4,318.5,434.4z"/>
		<path class="st26" d="M320.5,431c2.1-6.7,0.7-12.2-1.8-18.5c-7.4,0.4-14.5-4.7-17.5-11.2c-4.6,0-7.2,3.5-8.5,7.8
			c0.3,13,11,29.2,25.2,24.8c0.3-0.1,0.5,0.2,0.6,0.4c0.1,0,0.3,0,0.4,0C319.6,433.4,320.1,432.3,320.5,431z M315.6,423.8
			c-1.8,0.1-3.6-0.2-5.4,0.1c-1.6,0.3-3.1,0.9-4.6,1.5c-0.4,0.2-0.6-0.4-0.3-0.7c2.7-2,7.2-3.1,10.5-2.1
			C316.4,422.8,316.3,423.8,315.6,423.8z M317.1,416.7c-5.4-1.6-9.7-1.4-14.5,1.8c-0.3,0.2-0.7-0.3-0.4-0.6
			c3.7-3.9,10.7-5.1,15.3-2.3C318.1,416,317.7,416.8,317.1,416.7z"/>
		<path class="st30" d="M320.9,429.8c-2.5,0.7-5.1,1-7.7,0.9c-2.1-0.1-4.3-0.5-6.2-1.5c-6-2.9-8.5-10.5-7.3-17
			c0.5-2.7,1.7-5.4,3.6-7.4c-0.8-1.1-1.5-2.3-2.1-3.5c-4.6,0-7.2,3.5-8.5,7.8c0.3,13,11,29.2,25.2,24.8c0.3-0.1,0.5,0.2,0.6,0.4
			c0.1,0,0.3,0,0.4,0c0.7-1,1.2-2.1,1.6-3.4C320.7,430.6,320.7,430.2,320.9,429.8z"/>
		<path class="st30" d="M333.3,415.3c-1.7-1.2-3.1-3-3.8-5c0,0-0.1,0-0.1,0c-0.3,0.1-0.5-0.4-0.2-0.5c0,0,0.1,0,0.1-0.1
			c-0.2-0.7-0.3-1.4-0.3-2.1c-1.3,0.8-2.7,1.6-4.1,2.3c2.3,4,5.7,7.6,10.5,7.8c0.3-0.3,0.6-0.5,0.8-0.8
			C335.3,416.5,334.2,416,333.3,415.3z"/>
		<path class="st31" d="M385.2,158.4c-1.9-3.9-4.6-7.6-8.7-9.5c0,0,0,0-0.1,0c0.8,1.8,1.3,3.6,1.7,5.5c0.1,0.6,0.2,1.2,0,1.8
			c-0.3,1-1.3,1.7-2.4,1.8c-1.1,0.1-2.1-0.1-3.1-0.4c-0.4,2.4,2.6,4.2,2.8,6.7c0.1,1.4-0.8,2.7-2,3.5c-1.2,0.8-2.6,1.1-4,1.3
			c-0.1,0-0.3,0-0.4,0.1c3.6,0.8,7.4,0.1,10.9-1.5c0-2.7,1.4-5.9,3.7-7.4c-0.2-0.2-0.3-0.5-0.1-0.7
			C384.1,159,384.6,158.7,385.2,158.4z"/>
		<path class="st31" d="M392.2,176.8c-0.1-0.8,0-1.8,0.5-2.4c1.3-1.5,4.1-0.5,5.5-1.9c1.5-1.5,0-4.1,0.4-6.2
			c0.3-1.5,1.8-2.6,3.3-2.7c-2.3-0.7-4.8-0.7-7.2-0.1c0,0-0.1,0-0.1,0c-0.2,3.6-2.7,7.4-5.6,8.9c-0.1,0.1-0.3,0.1-0.4,0.2
			c0.3,3.5,2.2,7.8,5.6,9.6C393.1,180.6,392.3,178.8,392.2,176.8z"/>
		<g>
			<path class="st31" d="M390.5,169.5c-1.9-0.4-4.1-0.2-5.5-1.4c-1.3-1.1-1.6-3.1-1.2-4.7c0.5-1.6,1.6-3,2.8-4.2
				c-0.2,0.1-0.4,0.1-0.5,0.2c0.1,0.1,0.1,0.3-0.1,0.3c-3.1,1.2-5.5,4.8-5.1,8.2c0.6,4.8,5.6,5.8,8.7,2.6
				C389.9,170.2,390.2,169.9,390.5,169.5z"/>
			<path class="st31" d="M388,158.9C388,158.9,388,158.9,388,158.9C388,158.9,387.9,158.9,388,158.9L388,158.9z"/>
		</g>
		<path class="st32" d="M368,147.3c-3.6,1.4-1.8,3.5-2.7,5.6c-0.7,1.5-1.6,2.4-2.6,3.7c-2.5,2.9-2.4,7.3,0.7,9.8
			c1.3,1,2.6,1.7,4,2.2c-1-0.9-2-1.9-2.8-3c-1.3-1.7-2.4-4-1.2-5.8c1-1.6,3.4-2,4.2-3.7c0.6-1.2,0.3-2.6,0.4-3.9
			c0.2-1.9,1.6-3.7,3.4-4.4c0.4-0.2,0.9-0.3,1.4-0.3C371,146.9,369.3,146.8,368,147.3z"/>
		<path class="st32" d="M404.4,171.8c-0.6,0.5-1.3,0.9-1.9,1.4c-1.6,1.3-2.1,3.5-2.6,5.5c-0.4,1.5-0.8,3-1.5,4.4
			c3.2-0.3,1.6-3.9,3.7-5.3c3.5-2.4,7.7-6,4.5-10.8c-0.8-1.1-1.7-1.9-2.8-2.6l-0.4-0.1C406,165.6,406.6,169.8,404.4,171.8z"/>
		<path class="st33" d="M426.1,192.6c-1.7-8-4.7-15.6-9.1-22.5c-9.5-14.6-22.8-23.4-39.1-28.9c-0.1,0.1-0.2,0.2-0.4,0.2
			c-9.8-2.2-20.3-3.5-30.3-1.5c-8.8,1.7-16.9,5.6-24.3,10.7c-7,5-14.2,10.9-19.3,18c-0.9,1.2-1.6,2.6-2.3,3.9c2-2.4,4.2-4.7,6.5-6.8
			c2.9-2.7,6.1-5.1,9.3-7.4c12.2-8.8,26.3-17.1,41.8-17.3c15.1-0.1,29.7,5.8,41.8,14.7c8.6,6.3,15.9,14.4,20,24.4
			c2.1,5.2,2.6,10.5,3.8,15.8c0.7,3.3,1.5,6.5,2.6,9.7C427.2,201.3,427,197,426.1,192.6z"/>
		<path class="st25" d="M414.8,285.5c-0.3-2.8-0.5-5.5-0.4-8.3c0.2-4.9,1-9.6,2.4-14.4c0,0,0,0,0,0.1c-3.2,4.8-4.6,10.6-5,16.4
			c-0.3,5.2,0.1,10.3,0.7,15.5c0.9-0.7,1.7-1.4,2.6-2.2C416.5,291.3,415,287.3,414.8,285.5z"/>
		<path class="st25" d="M291.9,239.1c-0.2-0.4-0.4-0.8-0.6-1.2c-0.5,6.5-2.4,13.2-4.8,19.1c-1.3,3.3-2.7,6.7-4.7,9.7
			c-2.4,3.8-6.6,7.2-4.2,12c1.8-3.1,4-5.8,5.9-8.8C289.4,260.7,291.6,249.9,291.9,239.1z"/>
		<path class="st19" d="M357.8,310.9c-1.7,0.6-3.3,1.1-5,1.7c-0.2-0.2-0.3-0.3-0.5-0.5c-1.1-1-2.8-1.7-4.3-2.7
			c5.2-2.5,10.6-5.1,16-7c-0.9,1.6-2.4,3.2-3.4,4.6C359.7,308.3,358.7,309.6,357.8,310.9z M354.9,283.4c1-0.4,2.1-0.9,3.1-1.3
			c-0.5-1.7-0.9-3.4-1.1-5.1c-0.8,0.5-1.6,0.9-2.5,1.4c-2,1.1-4,2.2-6,3.2c-0.2,1.6-0.6,3.3-1,4.9
			C349.9,285.5,352.4,284.5,354.9,283.4z M361.2,290.4c-5.6,2-11.1,4.3-16.2,7.1c-0.3,1.5-0.5,2.9-0.6,4.4c6.4-1.6,12.7-4,18.8-6.8
			C362.6,293.5,361.9,292,361.2,290.4z"/>
		<g>
			<path class="st10" d="M350.2,294.9c-1.7,0.8-3.5,1.7-5.2,2.6c0,0,0,0,0,0c-0.3,1.5-0.5,2.9-0.6,4.4c2-0.5,4.1-1.1,6.1-1.8
				C350.3,298.3,350.2,296.6,350.2,294.9z"/>
			<path class="st10" d="M355.1,311.8c-1-1.4-1.9-2.9-2.6-4.6c-1.5,0.7-3,1.4-4.5,2.2c0,0,0,0,0,0c0.5,0.3,1,0.6,1.5,0.9
				c0.2,0.1,0.4,0.2,0.6,0.4c0.1,0.1,0.2,0.1,0.3,0.2c0.3,0.2,0.6,0.4,0.9,0.6c0,0,0.1,0.1,0.1,0.1c0.3,0.2,0.6,0.4,0.9,0.6
				c0.2,0.2,0.4,0.3,0.5,0.5C353.6,312.3,354.3,312.1,355.1,311.8z"/>
			<path class="st10" d="M352.8,280.1c0.3-0.5,0.7-1,1.2-1.5c-1.8,1-3.7,2-5.5,3c-0.2,1.6-0.6,3.3-1,4.9l0,0c1.2-0.5,2.4-1,3.6-1.5
				C351.4,283.3,351.9,281.6,352.8,280.1z"/>
		</g>
		<path class="st19" d="M391.6,321.8c-0.1,0.2-0.2,0.4-0.4,0.6c2.6,8.2,7.1,15.8,13.2,21.9c-5,9.9-13.4,17.9-22.9,23.5
			c-6.4,3.8-13.2,6.5-20.3,8.7c9.5-1.3,18.2-4.5,26.4-10.1c8.5-5.8,20.5-14.4,20.4-25.8C400.8,337.3,396.4,327.9,391.6,321.8z"/>
		<path class="st34" d="M320.1,421.4c-0.1-0.9,0-2.2-0.9-2.7c-0.1-0.1-0.3,0-0.4,0c-0.8,0.6-0.4,2-0.4,2.9c0,1.2-0.1,2.4,0.4,3.6
			c0.3,0.7,1.3,0.4,1.5-0.2C320.6,423.8,320.3,422.6,320.1,421.4z"/>
		<path class="st34" d="M319.5,427.8c-0.1-0.4-0.8-0.4-0.9,0c-0.1,0.5-0.1,0.9,0,1.4c0.1,0.4,0.7,0.4,0.8,0
			C319.6,428.7,319.6,428.3,319.5,427.8z"/>
		<path class="st34" d="M337.6,407.7c-0.1-0.4-0.6-0.4-0.7-0.1c-0.4,0.8-0.6,1.7-0.8,2.5c-0.2,1-0.5,2-0.4,3.1c0,0.8,1,0.8,1.3,0.2
			c0.3-0.9,0.4-1.7,0.5-2.7C337.6,409.7,337.8,408.7,337.6,407.7z"/>
		<path class="st27" d="M350.9,200.6c-3.7-3.3-8.9-1.1-11.4,2.6c-1.2,1.8,1.1,3.4,2.7,2.7c2.2-1,4.5-0.3,6.8-0.6
			C351.1,205,352.9,202.4,350.9,200.6z"/>
		<path class="st27" d="M389.5,204c-2.4-0.8-5.4-0.2-7,1.8c-1.2,1.5-0.1,4,2,3.4c0.9-0.3,2-0.5,2.9-0.1c1.5,0.7,2.3,1.9,4.1,2.1
			c0.7,0.1,1.6-0.5,1.9-1.1C394.7,207.1,392.2,204.8,389.5,204z"/>
		<path class="st14" d="M347.3,210.5c-2.9-0.1-7.9,2-7.1,5.7c0.1,0.6,0.8,1,1.4,0.8c1.9-0.7,2.8-2.4,5-2.5c2.5-0.1,3.1,2.3,4.5,3.7
			c0.9,0.8,2.3,0.5,2.7-0.7C354.9,214,350.5,210.6,347.3,210.5z"/>
		<path class="st14" d="M387.6,214.7c-3.4-1-8,0.5-8.8,4.3c-0.3,1.4,1.3,2.3,2.3,1.3c1.4-1.3,2.8-2.4,4.9-2.1
			c2.5,0.4,2.5,2.7,3.5,4.4c0.6,0.9,2.2,1.1,2.7,0C393.7,219.6,390.6,215.7,387.6,214.7z"/>
		<path class="st27" d="M397.4,214.8c-1.2-0.3-2.6,0.7-3.6,1.3c-0.7,0.5-0.2,1.5,0.6,1.3c1.1-0.2,2.8-0.5,3.5-1.5
			C398.1,215.6,397.9,215,397.4,214.8z"/>
		<path class="st27" d="M397.8,219.3c-0.8-0.6-2.1-0.2-2.9,0.2c-0.3,0.1-0.3,0.6,0,0.7c0.8,0.4,2.1,0.7,2.9,0.2
			C398.2,220,398.2,219.6,397.8,219.3z"/>
		<path class="st27" d="M396.8,223.2c-0.8-0.4-1.4-0.5-2.3-0.6c-0.7-0.1-0.7,0.9-0.1,1.1c0.8,0.3,1.4,0.5,2.2,0.5
			C397,224.1,397.3,223.4,396.8,223.2z"/>
		<path class="st27" d="M337.2,214.7c-0.8-0.6-2.2-1.1-3.2-0.9c-0.6,0.1-0.5,0.8-0.1,1.1c0.7,0.5,2.3,0.7,3.1,0.5
			C337.3,215.3,337.5,214.9,337.2,214.7z"/>
		<path class="st27" d="M337.3,211.6c-0.9-1-1.8-2-3-2.5c-0.4-0.2-1.1,0.3-0.7,0.7c0.8,1.2,1.9,1.9,3.1,2.6
			C337.2,212.7,337.7,212,337.3,211.6z"/>
		<path class="st27" d="M338.5,207.3c-0.4-0.4-1.2-0.1-1.1,0.5c0.1,1,0.6,2.4,1.5,3.1c0.5,0.3,1.1-0.1,1.1-0.6
			C340,209.2,339.2,208,338.5,207.3z"/>
		<path class="st21" d="M364.8,225.2c-0.5,0.5,0.2,1.4,0.8,1c1.3-0.9,3.3-0.4,3.4,1.4c0.1,1.8-1.8,2-3.1,1.7
			c-0.8-0.2-1.3,0.7-0.8,1.3c1,1.1,2.6,1,3.9,0.4c1.3-0.6,1.9-2.1,1.9-3.4C370.8,224.5,367,223,364.8,225.2z"/>
		<path class="st22" d="M350,237.8c1.1-2.2,26.8,1.2,28.9,3.9c2.1,2.7-6.6,13-17.8,11.2C350,251.1,349.4,239,350,237.8z"/>
		<path class="st23" d="M363.6,241.5c-4.4-0.2-8.8,1.4-12.1,4.2c1.5,3.2,4.4,6.3,9.7,7.2c6.3,1,11.9-1.8,15.1-5
			C373.2,244.1,368.5,241.7,363.6,241.5z"/>
		<path class="st22" d="M389.3,229.8c1.1,2.5,3.7,4.5,6.6,4.2c1.9-0.2,5.2-2,3.1-4.1c-2.2-2.2-4.9-3.4-8-3
			C389.6,227,388.8,228.6,389.3,229.8z"/>
		<path class="st22" d="M341.1,222c-1.7-2.1-4.8-3.4-7.4-2.4c-1.8,0.7-4.5,3.3-2,4.8c2.7,1.6,5.6,2,8.6,0.8
			C341.5,224.8,341.9,223.1,341.1,222z"/>
	</g>
	<ellipse class="st2" cx="197.3" cy="463.2" rx="31.7" ry="7.3"/>
	<ellipse class="st2" cx="335.6" cy="463.2" rx="31.7" ry="7.3"/>
	<text transform="matrix(1 0 0 1 166.898 107.0367)" class="st3 st4 st35">school</text>
	<text transform="matrix(1.1592 0 0 1 255.916 66.2338)" class="st3 st36 st37">back to</text>
	<path class="st11" d="M322,38c-6.5-0.7-14.3-0.7-20.7,0.5c-0.6,0.1-0.6,1.2,0,1.3c6.4,1.3,14.2,1.3,20.7,0.5
		C323.5,40.2,323.5,38.2,322,38z"/>
	<path class="st11" d="M198.5,38c-6.5-0.7-14.3-0.7-20.7,0.5c-0.6,0.1-0.6,1.2,0,1.3c6.4,1.3,14.2,1.3,20.7,0.5
		C200,40.2,200,38.2,198.5,38z"/>
	<g>
		<path class="st11" d="M447.1,54c-14.6,6.2-29.8,13-43.5,21.1c-1,0.6-0.3,2.4,0.8,2c14.9-5.8,29.7-13.6,43.7-21.2
			C449.4,55.2,448.3,53.5,447.1,54z"/>
		<path class="st11" d="M448.8,54.9c-0.2,0.4-0.3,0.8-0.5,1.2c-0.2-0.1-0.5-0.2-0.8,0c-13.4,8.2-26.3,17.9-38.7,27.5
			c-0.6,0.4-0.3,1.2,0.3,1.5c0,0.1,0,0.3,0,0.4c-0.5-0.1-1,0.2-0.9,0.9c0.9,4.8,1.9,10,3.8,14.6c0.1,0.2,0.2,0.3,0.3,0.5
			c0,0,0,0-0.1,0.1c-1,1,0.5,2.5,1.5,1.5c2-2,4-4,5.8-6.2c0.6-0.8-0.3-1.7-1.1-1.1c-1.6,1.3-3.2,2.8-4.7,4.2
			c-0.8-4.6-2.4-9.3-4.1-13.7c5,5.1,10.4,10.2,16.2,14.3c1,0.7,2.1-0.8,1.3-1.7c-4.9-5.2-10.9-9.9-16.6-14.2
			c12.5-8.2,25.2-16.9,36.8-26.4c-2.2,5.8-3.8,11.9-6.1,17.7c-3,8-6.7,15.7-10.1,23.4c-0.5,1.2,1.2,2.3,1.9,1.1
			c3.7-6.5,6.7-13.4,9.5-20.4c3.1-7.8,6.6-16.3,7.8-24.6C450.4,54.7,449.2,54,448.8,54.9z"/>
		<path class="st11" d="M408.6,82.4c-0.8-1.4-2.2-2.5-3.3-3.7c-1.2-1.2-2.4-2.3-3.8-3.3c-1-0.7-1.8,0.7-1.2,1.5
			c1,1.3,2.2,2.3,3.4,3.4c1.2,1.1,2.4,2.4,3.9,3.1C408.2,83.7,409,83.1,408.6,82.4z"/>
	</g>
	<path class="st11" d="M401.8,94c-0.4,0.4-0.7,0.9-1.1,1.3c-0.4,0.5-0.7,0.9-1,1.5c-0.5,0.9,0.6,1.7,1.4,1.1
		c0.4-0.4,0.9-0.8,1.2-1.3c0.3-0.4,0.7-0.9,1-1.3C404.1,94.3,402.6,93.2,401.8,94z"/>
	<path class="st11" d="M390.4,103.6c-1.4,1.1-2.7,2.3-3.9,3.6c-0.5,0.6,0.2,1.6,0.9,1.1c1.5-1.1,2.9-2.3,4.2-3.5
		C392.4,104,391.2,103,390.4,103.6z"/>
	<path class="st11" d="M380,111.9c-2,1.1-4,2.3-5.9,3.6c-0.8,0.5-0.1,1.7,0.7,1.3c2.1-1,4.1-2.1,6.1-3.4
		C381.9,112.9,381.1,111.4,380,111.9z"/>
	<path class="st11" d="M366.8,120.5c-1.9,0.7-3.8,1.4-5.6,2.2c-0.7,0.3-0.2,1.4,0.5,1.2c1.9-0.5,3.7-1.2,5.5-1.9
		C368.1,121.6,367.7,120.1,366.8,120.5z"/>
	<path class="st11" d="M351.8,124.3c-1.7,0.4-3.3,0.7-4.9,1.2c-0.8,0.2-0.7,1.7,0.2,1.6c1.8-0.2,3.5-0.5,5.3-0.9
		C353.5,126,353,124.1,351.8,124.3z"/>
	<path class="st11" d="M335,128.7c-1.2,0-2.3,0.1-3.5,0.2c-1,0.1-1,1.5,0,1.6c1.2,0.1,2.3,0.2,3.5,0.2
		C336.3,130.7,336.3,128.7,335,128.7z"/>
	<path class="st11" d="M319.3,130.2c-1-0.3-2-0.6-3.1-0.8c-0.8-0.2-1.4,1-0.6,1.4c1,0.5,2.1,0.9,3.1,1.3
		C319.9,132.6,320.5,130.6,319.3,130.2z"/>
	<path class="st11" d="M308.4,127.4c-1.4-0.7-2.8-1.4-4.3-1.9c-0.8-0.3-1.2,0.9-0.6,1.3c1.3,0.8,2.6,1.5,3.9,2.1
		C308.6,129.4,309.5,128,308.4,127.4z"/>
	<path class="st11" d="M299.6,122.6c-0.6-0.5-1.1-1-1.7-1.5c-0.5-0.4-1.3,0.4-0.9,0.9c0.5,0.6,1,1.2,1.5,1.7
		C299.2,124.5,300.3,123.3,299.6,122.6z"/>
	<path class="st11" d="M295.2,116c-0.7-0.7-1.5-1.4-2.3-2c-0.6-0.5-1.5,0.4-1,1c0.6,0.8,1.3,1.6,2,2.3
		C294.7,118.3,296.1,116.9,295.2,116z"/>
	<path class="st11" d="M290.7,110.5c-0.1-0.2-0.1-0.3-0.2-0.5c-0.2-0.5-0.9-0.5-1.1,0c-0.1,0.2-0.1,0.3-0.2,0.5
		c-0.2,0.5,0.3,0.9,0.7,0.9S290.9,111,290.7,110.5z"/>
	<g>
		<path class="st11" d="M97,62.1c-1.4-3-5.1-3.6-8-3c-1.7,0.4-3.1,1.3-4.3,2.6c1.4-8.6-0.6-18.1-10.9-18.9c-4.9-0.4-8.2,4.2-9.6,8.2
			c-2.2,6.4,1.9,13.2,5.3,18.2c0.5,0.8,1.8,0.1,1.3-0.8c-3.5-6.2-9.4-21.9,3-23c4.5-0.4,7.7,4.6,8.6,8.3c1.3,4.9-0.9,10.3-1.9,15.1
			c-0.2,1.1,1.4,1.9,1.9,0.8c0.4-0.9,0.7-1.8,1.1-2.8c1.1-1.7,2.3-3.3,4-4.6c2.8-2,6.7-1.2,7.8,2.1c1.7,5.4-4.6,8.6-8.1,11.1
			c-0.2,0.2-0.4,0.4-0.4,0.6c-2.2-0.2-4.4-0.5-6.5-1c-4.7-1.1-8.2-3.7-12.2-6.3c-0.9-0.5-2.1,0.6-1.4,1.4c5,7.2,16.4,12,25,9.7
			c1.5-0.4,1.7-3,0-3.2c-0.5-0.1-1-0.1-1.5-0.2C95.4,73.8,100,68.4,97,62.1z"/>
		<path class="st11" d="M63.9,66.7c-0.4-0.8-1.1-1.5-1.8-2c-1.1-3.2-5-5.3-8.3-4.7c-0.9,0.2-0.6,1.4,0.2,1.5
			c2.4,0.1,4.1,0.9,5.6,2.3c-2.6-0.4-5.4,0.8-6.2,3.8c-0.2,0.9,1,1.4,1.5,0.6c2-3,5.5-3.7,7.9-0.7C63.3,68.1,64.2,67.3,63.9,66.7z"
			/>
	</g>
	<path class="st11" d="M94.5,88.4c-1.1-1.5-2.3-2.8-3.5-4.2c-0.6-0.6-1.4,0.3-0.9,0.9c1.1,1.4,2.3,2.7,3.5,4
		C94,89.5,94.9,88.9,94.5,88.4z"/>
	<path class="st11" d="M105.2,91.7c-2.1-0.3-4.1-0.3-6.2-0.2c-1.1,0-1.1,1.7,0,1.7c2,0.1,4,0.3,6,0.1
		C105.8,93.2,106.2,91.8,105.2,91.7z"/>
	<path class="st11" d="M115.7,87.7c-1.6,0.9-3.1,1.8-4.6,2.8c-0.7,0.5-0.1,1.7,0.7,1.2c1.5-1,3-2,4.4-3.2
		C116.8,88.3,116.4,87.4,115.7,87.7z"/>
	<path class="st11" d="M125.2,82.2c-1.3,0.7-2.4,1.4-3.6,2.3c-0.8,0.6-0.1,2.1,0.8,1.5c1.3-0.9,2.4-1.8,3.5-2.8
		C126.5,82.7,125.8,81.8,125.2,82.2z"/>
	<path class="st11" d="M133.4,79.2c-1.4,0.3-2.7,0.5-4,0.9c-0.8,0.2-0.5,1.4,0.3,1.2c1.3-0.3,2.7-0.7,4-1.1
		C134.3,80,134,79.1,133.4,79.2z"/>
	<path class="st11" d="M145.3,80.6c-1.5-0.7-3-1.2-4.6-1.6c-0.9-0.3-1.2,1.1-0.4,1.4c1.5,0.6,3,1.1,4.5,1.4
		C145.5,82,146.1,80.9,145.3,80.6z"/>
	<path class="st11" d="M153.1,88.8c-0.5-1.1-1.2-2.1-1.9-3.1c-0.6-0.8-1.9-0.1-1.3,0.8c0.7,1.1,1.4,2.1,2.2,3.1
		C152.6,90.2,153.4,89.5,153.1,88.8z"/>
	<path class="st11" d="M159.3,99c-0.6-1.5-1.6-2.7-2.6-4c-0.7-0.9-2.2,0.3-1.6,1.2c0.8,1.3,1.6,2.6,2.8,3.6
		C158.5,100.3,159.7,99.9,159.3,99z"/>
	<path class="st11" d="M167.5,103.9c-1.2-0.5-2.4-1-3.7-1.3c-1.4-0.3-1.9,1.7-0.6,2.1c1.2,0.4,2.3,0.6,3.6,0.8c0.4,0.1,0.8,0,1-0.4
		C168,104.8,167.9,104.1,167.5,103.9z"/>
	<path class="st11" d="M172.9,103.5c-0.1-0.1-0.2-0.2-0.4-0.2c-0.7-0.4-1.6,0.1-1.6,0.9c0,0.8,0.9,1.4,1.6,0.9
		c0.1-0.1,0.2-0.2,0.4-0.2C173.4,104.5,173.4,103.8,172.9,103.5z"/>
	<g>
		<path class="st11" d="M63.8,440.9c-0.6-0.8-2.2-0.4-1.8,0.8c1.7,4.5,4.2,11.6-3,12.5c-5.4,0.6-8.8-5.4-11.1-9.3
			c-0.1-0.1-0.2-0.2-0.3-0.3c4.7-2,9.7-4,14-6.8c0.5,0.4,1.4,0,1.4-0.7c0-2.2-1.1-4.5-1.6-6.5c0-0.2,0.1-0.3,0-0.5
			c-1.4-7.5-4.3-14.9-6.6-22.2c-2.4-7.7-4.6-15.5-7.4-23c0.2-0.3,0.3-0.6,0.4-0.9c0,0,0,0,0-0.1c0.5-0.3,0.8-1,0.3-1.5
			c-5.8-5.2-12.3-9.9-18.6-14.4c-0.1-1-1.7-0.9-1.7,0.1c-0.5,6.7-1.8,13.8-1.4,20.6c-0.5,0-1,0.4-0.8,1c0,0.1,0.1,0.2,0.1,0.4
			c0,0.2,0,0.4,0.2,0.6c2.8,7.6,5.7,15.2,8.6,22.8c3,7.9,5.5,16.3,9.4,23.8c0.1,0.1,0.1,0.2,0.2,0.2c0,0,0,0.1,0,0.1
			c0.4,2.2,1.2,4.3,1.8,6.4c0.1,0.5,0.5,0.7,0.9,0.7c-0.2,0.2-0.2,0.4-0.1,0.6c2.1,5.3,6.8,12.5,13.7,11.1
			C68.4,454.7,67.6,446.4,63.8,440.9z M28.3,389.6c0.8-4.1,0.9-8.4,1-12.7c0.1,0,0.3,0.1,0.4,0c1.6-0.6,3.4-1,4.9-2
			c0.2-0.1,0.3-0.3,0.4-0.5c3.7,3.1,7.6,6.2,11.5,9c0,0,0,0-0.1,0.1c-0.2,0-0.4,0.2-0.4,0.4c-0.8,0.9-1.5,2-2.2,3
			c-0.8,1.1-1.6,2.3-2.4,3.4c-0.6-0.7-1.4-1.1-2.2-1.5l-3-1.8c-0.6-0.4-1.3,0.4-1,0.9c-1.3,1.1-2.2,2.5-3.1,4
			c-0.6-0.4-1.3-0.8-2.1-1.1c-0.6-0.3-1.3-0.6-2-0.9C28.3,389.7,28.3,389.7,28.3,389.6z M36.6,412.7c-2.7-6.8-5.5-13.7-8.2-20.5
			c0.1,0.1,0.2,0.1,0.4,0.2c0.9,0.5,1.8,1,2.8,1.4c0.3,0.5,0.9,0.7,1.3,0.2c1.3-1.6,3-3.2,3.9-5.1l1.5,1.3c0.7,0.6,1.4,1.3,2.2,1.6
			c-0.3,0.7,0.8,1.3,1.3,0.6c1-1.4,2-2.8,3.1-4.1c0.6-0.7,1.1-1.5,1.7-2.2c1.7,6.9,3.7,13.6,5.7,20.4c2.3,8,4,16.4,7.2,24
			c0,0.1,0.1,0.2,0.1,0.2c0,0.1,0,0.1,0,0.2c0.4,1.6,0.6,3.4,1.1,5c-1.4,0.5-2.7,1-4.1,1.6c-0.1-1-0.6-2-1-3c0-0.1-0.1-0.1-0.1-0.2
			c0.6-0.2,1.2-0.4,1.9-0.6c1.1-0.4,1-2.3-0.3-2.1c-3.9,0.4-7.9,1.6-11.6,2.8c-0.2,0.1-0.3,0.2-0.4,0.3
			C42.9,427.2,39.4,419.9,36.6,412.7z M45.5,437.1c0.1-0.2,0.2-0.5,0.1-0.7c0,0,0-0.1,0-0.1c0.1,0,0.3,0.1,0.5,0
			c2.8-0.4,5.7-0.9,8.5-1.7c0,0.1,0,0.1,0,0.2c0.3,1,0.5,2.2,1.1,3.1c-0.7,0.3-1.3,0.6-2,0.9c0,0,0,0,0,0c0.2-1.1-0.8-2.3-1.4-3.1
			c-0.4-0.6-1.4-0.2-1.1,0.5c0.2,0.5,0.4,1,0.6,1.6c0.2,0.5,0.5,1.2,1,1.5c0,0,0.1,0,0.1,0c-1.9,0.9-3.7,1.9-5.5,2.8
			C46.9,440.4,46.3,438.7,45.5,437.1z"/>
		<path class="st11" d="M49.3,437.1c-0.3-0.4-1-0.3-1,0.3c-0.1,1,0.1,2,0.7,2.8c0.4,0.5,1.1,0,1.2-0.5
			C50.3,438.8,49.8,437.8,49.3,437.1z"/>
		<path class="st11" d="M57.7,435.6c-0.1-0.2-0.2-0.5-0.2-0.7c-0.3-0.9-1.7-0.2-1.2,0.5c0.1,0.2,0.3,0.4,0.4,0.6
			C57,436.5,57.9,436.2,57.7,435.6z"/>
		<path class="st11" d="M45.6,425.3c-2.6-8.9-5.7-17.6-8.6-26.4c-0.2-0.5-0.9-0.3-0.8,0.2c2.7,8.8,5.3,17.7,8.5,26.4
			C44.8,426.1,45.7,425.9,45.6,425.3z"/>
		<path class="st11" d="M53.4,425.2c-2.6-8.9-6.1-17.6-9.2-26.3c-0.2-0.5-1-0.3-0.9,0.2c2.9,8.8,5.4,17.8,8.8,26.4
			C52.4,426.4,53.7,426.1,53.4,425.2z"/>
	</g>
	<path class="st11" d="M69,410.5c-0.9,0.1-1.7,0.3-2.5,0.6c-1,0.3-0.6,1.8,0.4,1.5c0.9-0.2,1.7-0.4,2.5-0.8
		C69.9,411.5,69.7,410.5,69,410.5z"/>
	<path class="st11" d="M79.7,411.6c-1.2-0.2-2.4-0.1-3.7-0.1c-0.9,0-0.9,1.4,0,1.4c1.2,0,2.4,0.1,3.7-0.1
		C80.4,412.7,80.4,411.7,79.7,411.6z"/>
	<path class="st11" d="M89.2,417.9c-0.8-1.1-1.8-2.1-2.7-3.2c-0.6-0.6-1.5,0.3-0.9,0.9c0.9,1,1.7,2,2.7,2.9
		C88.7,419,89.6,418.4,89.2,417.9z"/>
	<path class="st11" d="M103.9,432c-1.8-1.7-3.8-3.1-5.8-4.5c-0.8-0.6-1.9,0.8-1.1,1.4c1.9,1.5,3.8,3.1,5.9,4.4
		C103.7,433.7,104.5,432.6,103.9,432z"/>
	<path class="st11" d="M114.8,440.1c-1.7-1-3.7-1.5-5.5-2.2c-1.4-0.5-2,1.7-0.6,2.2c1.8,0.7,3.5,1.5,5.4,1.9
		C115.1,442.1,115.9,440.7,114.8,440.1z"/>
	<path class="st11" d="M131.3,444c-1.1,0-2.2,0-3.3,0.1c-0.6,0.1-1.1,0.5-1.1,1.1c0,0.5,0.5,1.2,1.1,1.1c1.2-0.1,2.4-0.3,3.6-0.6
		C132.6,445.5,132.3,444,131.3,444z"/>
	<path class="st11" d="M146.5,440.1c-1.5,0.7-3,1.4-4.5,2c-1.4,0.6-0.1,3,1.2,2.1c1.4-0.9,2.8-1.7,4.2-2.6
		C148.5,441,147.6,439.6,146.5,440.1z"/>
	<path class="st11" d="M155.2,435.4c-0.5,0.3-1,0.5-1.4,0.8c-1.4,0.8,0.2,2.9,1.3,1.7l1.2-1.2C157,436.1,156.1,434.9,155.2,435.4z"
		/>
	<path class="st11" d="M162.4,427.9c-0.3,0.1-0.5,0.3-0.8,0.4c-0.8,0.4-0.9,1.6-0.3,2.2c0.6,0.6,1.8,0.5,2.2-0.3
		c0.1-0.3,0.3-0.5,0.4-0.8C164.5,428.4,163.4,427.3,162.4,427.9z"/>
	<path class="st11" d="M168.5,421.4c-1,0.7-1.9,1.4-2.8,2.2c-1.3,1.2,0.7,3.2,1.9,1.9c0.8-0.9,1.5-1.8,2.2-2.8
		C170.4,421.9,169.3,420.8,168.5,421.4z"/>
	<path class="st11" d="M180.8,415.2c-0.2-0.6-0.8-1-1.4-0.8c-1.2,0.5-2.3,1-3.4,1.6c-1.6,0.9-0.2,3.3,1.4,2.4c1-0.6,2-1.2,2.9-1.9
		C180.7,416.2,180.9,415.8,180.8,415.2z"/>
	<path class="st11" d="M193.7,410.8c-0.7-0.1-1.3-0.1-2-0.2c-1.2-0.1-1.2,1.9,0,1.8c0.7-0.1,1.3-0.1,2-0.2
		C194.6,412.2,194.6,410.8,193.7,410.8z"/>
	<path class="st11" d="M205.9,412.1c-1.3-0.5-2.5-0.6-3.9-0.8c-1-0.1-1.1,1.4-0.2,1.7c1.3,0.4,2.5,0.6,3.9,0.6
		C206.6,413.7,206.7,412.4,205.9,412.1z"/>
	<path class="st11" d="M213.9,412.8c-0.6-0.2-1.3-0.4-1.9-0.6c-0.6-0.2-1.3,0.2-1.4,0.8c-0.2,0.7,0.4,1.5,1.1,1.5c0.7,0,1.3,0,2,0
		C214.6,414.4,214.8,413.1,213.9,412.8z"/>
	<g>
		<path class="st11" d="M477,366.6c-6.3,22.1-13.6,44.2-18.5,66.7c-5.4-5.8-11.5-11.1-17.2-16.6c-5.6-5.4-11.1-10.9-16.9-16.1
			c9.3-4.7,17.9-11.3,26.6-17c8.4-5.4,17.3-10.5,25.1-16.6c0.6-0.5-0.2-1.3-0.8-1c-9.4,4.8-18.2,11.2-27.1,16.8
			c-8.4,5.3-17.5,10.2-25.4,16.4c0,0,0,0,0,0c-0.1-0.1-0.3-0.3-0.4-0.4c-0.8-0.7-1.8,0.4-1.1,1.1c5.9,6.3,12.2,12.3,18.3,18.4
			c6,5.9,11.8,12.4,18.2,17.8c-0.1,1.4,1.9,1.9,2.4,0.4c7.5-22.7,12.4-46.4,18.3-69.6C478.7,366,477.3,365.6,477,366.6z"/>
		<path class="st11" d="M457.6,410.1c-0.6-0.6-1.3-1.1-1.9-1.6c0.7-4.7,0.3-9.6,0.4-14.3c0-0.2,0-0.3-0.1-0.4c0.5-0.4,0-1.3-0.6-0.9
			c-3.6,2.5-7.7,4.8-10.9,7.8c0,0-0.1-0.1-0.1-0.1c-0.7-0.5-1.3,0.6-0.6,1.1c3.4,2.6,6.7,5.4,10.3,7.8c0.1,0.3,0.5,0.5,0.8,0.5
			c0.6,0.4,1.3,0.8,2,1.2C457.4,411.6,458.2,410.6,457.6,410.1z M454.5,395c-0.3,4-0.8,8.1-0.7,12.1c-2.7-2-5.5-3.8-8.3-5.7
			C448.7,399.7,451.6,397.2,454.5,395z"/>
		<path class="st11" d="M433.1,401.8c-0.5-0.8-1.4-1.3-2.2-1.8c-0.7-0.4-1.4,0.6-0.8,1.1c0.7,0.6,1.4,1.4,2.3,1.7
			C432.9,402.9,433.4,402.3,433.1,401.8z"/>
		<path class="st11" d="M438.9,398.5c-0.4-0.8-1-1.5-1.5-2.1c-0.4-0.5-1.4,0.2-1,0.7c0.5,0.7,1,1.5,1.7,2.1
			C438.5,399.5,439.2,399,438.9,398.5z"/>
		<path class="st11" d="M445.3,393.9c-0.4-0.6-0.9-1.1-1.4-1.6c-0.5-0.5-1.4,0.3-0.8,0.8c0.5,0.5,1,1,1.6,1.4
			C445.1,394.9,445.7,394.3,445.3,393.9z"/>
		<path class="st11" d="M451.3,389.9c-0.6-0.7-1.4-1.1-2.1-1.7c-0.5-0.4-1.2,0.5-0.7,0.9c0.7,0.5,1.3,1.2,2.1,1.6
			C451.2,391,451.7,390.3,451.3,389.9z"/>
		<path class="st11" d="M456.6,387.5c-0.3-1-0.9-1.8-1.5-2.7c-0.5-0.8-1.7-0.1-1.2,0.7c0.5,0.9,1,1.9,1.7,2.6
			C456,388.5,456.7,388.1,456.6,387.5z"/>
		<path class="st11" d="M463.4,383.6c-0.3-0.7-1-1.2-1.6-1.7c-0.4-0.4-1.1,0.2-0.7,0.7c0.5,0.5,1.1,1.3,1.7,1.6
			C463.2,384.2,463.5,383.9,463.4,383.6z"/>
		<path class="st11" d="M467.7,380.5c-0.6-0.6-1.3-1.1-2-1.6c-0.4-0.3-0.8,0.3-0.5,0.6c0.7,0.5,1.3,1.1,2.1,1.6
			C467.6,381.3,468,380.8,467.7,380.5z"/>
		<path class="st11" d="M471.4,376.7c0,0.2,0,0.3,0,0.5c0,0.1,0.2,0.1,0.2,0c0-0.2,0-0.3,0-0.5C471.6,376.6,471.4,376.6,471.4,376.7
			z"/>
		<path class="st11" d="M436.6,406.8c-0.5,0.5-1,0.9-1.5,1.5c-0.4,0.6,0.2,1.2,0.8,0.8c0.6-0.4,1-0.9,1.5-1.5
			C437.9,407,437.1,406.3,436.6,406.8z"/>
		<path class="st11" d="M441.4,410.8c-0.5,0.7-1.1,1.4-1.5,2.2c-0.2,0.6,0.5,0.8,0.9,0.5c0.7-0.5,1.2-1.4,1.7-2.1
			C443,410.8,441.9,410.2,441.4,410.8z"/>
		<path class="st11" d="M447.6,415.9c-0.1,0.3-0.3,0.6-0.4,0.9c-0.1,0.3-0.1,0.6-0.1,0.9c0,0.5,0.6,0.5,0.8,0.2
			c0.4-0.5,0.5-1,0.7-1.5C448.8,415.8,447.8,415.3,447.6,415.9z"/>
		<path class="st11" d="M453.3,419.3c-0.4,0.9-1,1.9-1,2.9c0,0.7,0.9,1.1,1.3,0.6c0.7-0.8,1-1.9,1.3-2.8
			C455.3,419,453.7,418.4,453.3,419.3z"/>
	</g>
	<path class="st11" d="M346.3,403.5c-0.3-0.9-1.7-0.6-1.5,0.4c0.3,1.3,0.6,2.5,1.1,3.7c0.3,0.8,1.4,0.2,1.3-0.6
		C347.1,405.8,346.7,404.6,346.3,403.5z"/>
	<path class="st11" d="M355.6,419.9c-0.8-1.6-1.9-3.1-3-4.5c-0.5-0.7-1.6-0.1-1.2,0.7c1,1.6,1.9,3.2,3.1,4.6
		C355.1,421.3,355.9,420.5,355.6,419.9z"/>
	<path class="st11" d="M368.3,426.6c-1.8-0.8-3.7-1.5-5.6-2.1c-0.9-0.3-1.3,1.1-0.4,1.4c1.8,0.7,3.6,1.4,5.5,1.9
		C368.5,428.1,369.1,426.9,368.3,426.6z"/>
	<path class="st11" d="M386,427c-2.5-0.2-5,0.2-7.5,0.4c-1.1,0.1-1.1,1.7,0,1.7c2.6-0.1,5.2-0.1,7.7-0.5
		C387.1,428.4,386.8,427.1,386,427z"/>
	<path class="st11" d="M398.9,422.7c-1.2,0.4-2.4,0.9-3.5,1.4c-0.8,0.3-0.3,1.4,0.5,1.1c1.2-0.5,2.3-1,3.5-1.6
		C399.7,423.4,399.4,422.5,398.9,422.7z"/>
	<path class="st11" d="M411.3,417.1c-1.4,0.4-2.7,0.9-4,1.3c-0.9,0.3-0.5,1.8,0.4,1.4c1.4-0.5,2.7-1.1,4.1-1.7
		C412.4,417.9,412,416.9,411.3,417.1z"/>
	<path class="st11" d="M422.8,418.2c-1.2-0.7-2.3-1.2-3.6-1.7c-0.7-0.3-1.2,0.9-0.5,1.2c1.2,0.6,2.4,1.1,3.7,1.5
		C423,419.4,423.3,418.5,422.8,418.2z"/>
	<path class="st11" d="M430.8,422.2c-0.6-0.4-1.3-0.8-1.9-1.1c-0.8-0.4-1.5,0.8-0.7,1.2c0.7,0.4,1.4,0.7,2.2,1
		C431,423.5,431.3,422.5,430.8,422.2z"/>
	<path class="st11" d="M438.7,422.9c-0.7-0.1-1.5-0.2-2.2-0.2c-1.4,0-1.4,2.2,0,2.1c0.8,0,1.5-0.1,2.2-0.2
		C439.6,424.4,439.6,423,438.7,422.9z"/>
</g>
<g id="DESIGNED_BY_FREEPIK" class="st0">
	<g class="st38">
		<g>
			<path class="st11" d="M178,481.7v-0.2c-0.2,0.3-0.5,0.5-0.7,0.6c-0.2,0.2-0.5,0.3-0.7,0.4c-0.3,0.1-0.5,0.1-0.8,0.1
				c-0.4,0-0.8-0.1-1.1-0.3c-0.3-0.2-0.6-0.4-0.9-0.7c-0.3-0.3-0.4-0.7-0.6-1.1c-0.1-0.4-0.2-0.9-0.2-1.4c0-1.1,0.3-1.9,0.8-2.5
				c0.5-0.6,1.2-0.9,2-0.9c0.5,0,0.9,0.1,1.2,0.3c0.3,0.2,0.7,0.4,1,0.8v-2.5c0-0.3,0.1-0.6,0.2-0.8c0.1-0.2,0.3-0.3,0.6-0.3
				c0.3,0,0.5,0.1,0.6,0.2c0.1,0.2,0.2,0.4,0.2,0.7v7.5c0,0.3-0.1,0.6-0.2,0.7c-0.1,0.2-0.3,0.2-0.6,0.2c-0.2,0-0.4-0.1-0.6-0.3
				C178.1,482.3,178,482.1,178,481.7z M174.7,479.3c0,0.5,0.1,0.9,0.2,1.2c0.1,0.3,0.3,0.6,0.6,0.7c0.2,0.2,0.5,0.2,0.8,0.2
				c0.3,0,0.6-0.1,0.8-0.2c0.2-0.2,0.4-0.4,0.6-0.7c0.1-0.3,0.2-0.7,0.2-1.2c0-0.5-0.1-0.8-0.2-1.2c-0.1-0.3-0.3-0.6-0.6-0.7
				c-0.3-0.2-0.5-0.3-0.8-0.3c-0.3,0-0.6,0.1-0.8,0.3c-0.2,0.2-0.4,0.4-0.6,0.8C174.7,478.4,174.7,478.8,174.7,479.3z"/>
			<path class="st11" d="M185.5,479.7h-3.3c0,0.4,0.1,0.7,0.2,1c0.2,0.3,0.4,0.5,0.6,0.7c0.3,0.2,0.5,0.2,0.8,0.2
				c0.2,0,0.4,0,0.6-0.1c0.2,0,0.3-0.1,0.5-0.2c0.2-0.1,0.3-0.2,0.4-0.3c0.1-0.1,0.3-0.3,0.5-0.5c0.1-0.1,0.2-0.1,0.4-0.1
				c0.2,0,0.3,0,0.4,0.1c0.1,0.1,0.2,0.2,0.2,0.4c0,0.2-0.1,0.3-0.2,0.5c-0.1,0.2-0.3,0.4-0.5,0.6c-0.2,0.2-0.5,0.3-0.9,0.5
				c-0.4,0.1-0.8,0.2-1.3,0.2c-1.1,0-1.9-0.3-2.5-0.9c-0.6-0.6-0.9-1.5-0.9-2.5c0-0.5,0.1-1,0.2-1.4c0.2-0.4,0.4-0.8,0.7-1.1
				c0.3-0.3,0.6-0.5,1.1-0.7c0.4-0.2,0.9-0.2,1.4-0.2c0.7,0,1.2,0.1,1.7,0.4c0.5,0.3,0.8,0.6,1.1,1.1c0.2,0.4,0.4,0.9,0.4,1.4
				c0,0.4-0.1,0.7-0.4,0.8C186.3,479.6,185.9,479.7,185.5,479.7z M182.2,478.7h3.1c0-0.6-0.2-1-0.5-1.3c-0.3-0.3-0.6-0.4-1.1-0.4
				c-0.4,0-0.8,0.1-1,0.4C182.4,477.7,182.2,478.1,182.2,478.7z"/>
			<path class="st11" d="M193.2,480.5c0,0.5-0.1,0.9-0.3,1.2c-0.2,0.3-0.6,0.6-1,0.8c-0.4,0.2-1,0.3-1.6,0.3c-0.6,0-1.1-0.1-1.6-0.3
				c-0.4-0.2-0.8-0.4-1-0.7c-0.2-0.3-0.3-0.6-0.3-0.8c0-0.2,0.1-0.3,0.2-0.5c0.1-0.1,0.3-0.2,0.5-0.2c0.2,0,0.3,0,0.4,0.1
				c0.1,0.1,0.2,0.2,0.3,0.4c0.2,0.3,0.4,0.5,0.6,0.7c0.2,0.1,0.6,0.2,1,0.2c0.3,0,0.6-0.1,0.8-0.2c0.2-0.2,0.3-0.3,0.3-0.5
				c0-0.3-0.1-0.5-0.3-0.7c-0.2-0.1-0.6-0.3-1.1-0.4c-0.6-0.1-1.1-0.3-1.4-0.5c-0.4-0.2-0.7-0.4-0.9-0.6c-0.2-0.3-0.3-0.6-0.3-1
				c0-0.3,0.1-0.7,0.3-1c0.2-0.3,0.5-0.5,0.9-0.7c0.4-0.2,0.9-0.3,1.4-0.3c0.4,0,0.8,0,1.2,0.1c0.4,0.1,0.6,0.2,0.9,0.4
				c0.2,0.2,0.4,0.3,0.5,0.5c0.1,0.2,0.2,0.4,0.2,0.5c0,0.2-0.1,0.4-0.2,0.5c-0.1,0.1-0.3,0.2-0.6,0.2c-0.2,0-0.3,0-0.4-0.1
				c-0.1-0.1-0.3-0.2-0.4-0.4c-0.1-0.2-0.3-0.3-0.5-0.4c-0.2-0.1-0.4-0.1-0.7-0.1c-0.3,0-0.6,0.1-0.8,0.2c-0.2,0.1-0.3,0.3-0.3,0.5
				c0,0.2,0.1,0.3,0.2,0.4c0.2,0.1,0.4,0.2,0.6,0.3c0.3,0.1,0.6,0.2,1,0.3c0.5,0.1,1,0.3,1.3,0.5c0.3,0.2,0.6,0.4,0.8,0.6
				C193.1,479.9,193.2,480.2,193.2,480.5z"/>
			<path class="st11" d="M195,475c-0.2,0-0.4-0.1-0.6-0.2c-0.2-0.1-0.3-0.4-0.3-0.6c0-0.2,0.1-0.4,0.3-0.6c0.2-0.2,0.4-0.2,0.6-0.2
				c0.2,0,0.4,0.1,0.6,0.2c0.2,0.1,0.3,0.3,0.3,0.6c0,0.3-0.1,0.5-0.2,0.6C195.4,475,195.2,475,195,475z M195.8,476.8v4.9
				c0,0.3-0.1,0.6-0.2,0.8c-0.2,0.2-0.4,0.3-0.6,0.3c-0.3,0-0.5-0.1-0.6-0.3c-0.2-0.2-0.2-0.4-0.2-0.8v-4.9c0-0.3,0.1-0.6,0.2-0.8
				c0.2-0.2,0.4-0.3,0.6-0.3c0.2,0,0.5,0.1,0.6,0.3C195.7,476.2,195.8,476.5,195.8,476.8z"/>
			<path class="st11" d="M203.2,477.1v4.9c0,0.6-0.1,1-0.2,1.5c-0.1,0.4-0.3,0.7-0.6,1c-0.3,0.3-0.6,0.5-1,0.6
				c-0.4,0.1-1,0.2-1.6,0.2c-0.6,0-1.1-0.1-1.6-0.2c-0.5-0.2-0.8-0.4-1.1-0.6c-0.2-0.3-0.4-0.5-0.4-0.8c0-0.2,0.1-0.4,0.2-0.5
				c0.1-0.1,0.3-0.2,0.5-0.2c0.2,0,0.5,0.1,0.7,0.3c0.1,0.1,0.2,0.2,0.3,0.3c0.1,0.1,0.2,0.2,0.3,0.3c0.1,0.1,0.3,0.1,0.4,0.2
				c0.2,0,0.4,0.1,0.6,0.1c0.4,0,0.8-0.1,1-0.2c0.2-0.1,0.4-0.3,0.5-0.5c0.1-0.2,0.2-0.5,0.2-0.7c0-0.3,0-0.7,0-1.2
				c-0.3,0.4-0.6,0.6-0.9,0.8c-0.3,0.2-0.7,0.3-1.2,0.3c-0.6,0-1.1-0.1-1.5-0.4c-0.4-0.3-0.8-0.7-1-1.2c-0.2-0.5-0.3-1.1-0.3-1.8
				c0-0.5,0.1-1,0.2-1.4c0.1-0.4,0.3-0.8,0.6-1c0.3-0.3,0.6-0.5,0.9-0.6c0.3-0.1,0.7-0.2,1.1-0.2c0.5,0,0.9,0.1,1.2,0.3
				c0.4,0.2,0.7,0.5,1,0.9v-0.2c0-0.3,0.1-0.5,0.2-0.7c0.1-0.2,0.3-0.2,0.6-0.2c0.3,0,0.5,0.1,0.7,0.3
				C203.2,476.4,203.2,476.7,203.2,477.1z M198.3,479.2c0,0.7,0.2,1.2,0.5,1.6c0.3,0.4,0.7,0.5,1.2,0.5c0.3,0,0.5-0.1,0.8-0.2
				c0.3-0.2,0.5-0.4,0.6-0.7c0.2-0.3,0.2-0.7,0.2-1.1c0-0.7-0.2-1.2-0.5-1.6c-0.3-0.4-0.7-0.6-1.2-0.6c-0.5,0-0.9,0.2-1.2,0.6
				C198.5,478,198.3,478.5,198.3,479.2z"/>
			<path class="st11" d="M205.9,476.8v0.2c0.3-0.4,0.6-0.7,1-0.9c0.4-0.2,0.8-0.3,1.2-0.3c0.4,0,0.8,0.1,1.2,0.3
				c0.4,0.2,0.6,0.5,0.8,0.8c0.1,0.2,0.2,0.4,0.2,0.7c0,0.2,0.1,0.5,0.1,0.9v3.2c0,0.3-0.1,0.6-0.2,0.8c-0.2,0.2-0.4,0.3-0.6,0.3
				c-0.3,0-0.5-0.1-0.6-0.3c-0.2-0.2-0.2-0.4-0.2-0.8v-2.8c0-0.6-0.1-1-0.2-1.3c-0.2-0.3-0.5-0.4-0.9-0.4c-0.3,0-0.6,0.1-0.8,0.3
				c-0.2,0.2-0.4,0.4-0.5,0.7c-0.1,0.3-0.1,0.7-0.1,1.4v2.1c0,0.3-0.1,0.6-0.2,0.8c-0.2,0.2-0.4,0.3-0.6,0.3c-0.2,0-0.4-0.1-0.6-0.3
				c-0.2-0.2-0.2-0.4-0.2-0.8v-4.9c0-0.3,0.1-0.6,0.2-0.7c0.1-0.2,0.3-0.2,0.6-0.2c0.2,0,0.3,0,0.4,0.1c0.1,0.1,0.2,0.2,0.3,0.3
				C205.9,476.4,205.9,476.6,205.9,476.8z"/>
			<path class="st11" d="M216.2,479.7h-3.3c0,0.4,0.1,0.7,0.2,1c0.2,0.3,0.4,0.5,0.6,0.7c0.2,0.2,0.5,0.2,0.8,0.2
				c0.2,0,0.4,0,0.6-0.1c0.2,0,0.3-0.1,0.5-0.2c0.2-0.1,0.3-0.2,0.4-0.3c0.1-0.1,0.3-0.3,0.5-0.5c0.1-0.1,0.2-0.1,0.4-0.1
				c0.2,0,0.3,0,0.4,0.1c0.1,0.1,0.2,0.2,0.2,0.4c0,0.2-0.1,0.3-0.2,0.5c-0.1,0.2-0.3,0.4-0.5,0.6c-0.2,0.2-0.5,0.3-0.9,0.5
				c-0.4,0.1-0.8,0.2-1.3,0.2c-1.1,0-1.9-0.3-2.5-0.9c-0.6-0.6-0.9-1.5-0.9-2.5c0-0.5,0.1-1,0.2-1.4c0.1-0.4,0.4-0.8,0.7-1.1
				c0.3-0.3,0.6-0.5,1.1-0.7c0.4-0.2,0.9-0.2,1.4-0.2c0.7,0,1.2,0.1,1.7,0.4c0.5,0.3,0.8,0.6,1.1,1.1c0.2,0.4,0.4,0.9,0.4,1.4
				c0,0.4-0.1,0.7-0.4,0.8C217,479.6,216.7,479.7,216.2,479.7z M212.9,478.7h3.1c0-0.6-0.2-1-0.5-1.3c-0.3-0.3-0.6-0.4-1.1-0.4
				c-0.4,0-0.8,0.1-1,0.4C213.1,477.7,213,478.1,212.9,478.7z"/>
			<path class="st11" d="M223.2,481.7v-0.2c-0.2,0.3-0.5,0.5-0.7,0.6c-0.2,0.2-0.5,0.3-0.7,0.4c-0.3,0.1-0.5,0.1-0.8,0.1
				c-0.4,0-0.8-0.1-1.1-0.3c-0.3-0.2-0.6-0.4-0.9-0.7c-0.3-0.3-0.4-0.7-0.6-1.1c-0.1-0.4-0.2-0.9-0.2-1.4c0-1.1,0.3-1.9,0.8-2.5
				c0.5-0.6,1.2-0.9,2-0.9c0.5,0,0.9,0.1,1.2,0.3c0.3,0.2,0.7,0.4,1,0.8v-2.5c0-0.3,0.1-0.6,0.2-0.8c0.1-0.2,0.3-0.3,0.6-0.3
				s0.5,0.1,0.6,0.2c0.1,0.2,0.2,0.4,0.2,0.7v7.5c0,0.3-0.1,0.6-0.2,0.7c-0.1,0.2-0.3,0.2-0.6,0.2c-0.2,0-0.4-0.1-0.6-0.3
				C223.2,482.3,223.2,482.1,223.2,481.7z M219.8,479.3c0,0.5,0.1,0.9,0.2,1.2c0.1,0.3,0.3,0.6,0.6,0.7c0.2,0.2,0.5,0.2,0.8,0.2
				c0.3,0,0.6-0.1,0.8-0.2c0.2-0.2,0.4-0.4,0.6-0.7c0.1-0.3,0.2-0.7,0.2-1.2c0-0.5-0.1-0.8-0.2-1.2c-0.1-0.3-0.3-0.6-0.6-0.7
				c-0.3-0.2-0.5-0.3-0.8-0.3c-0.3,0-0.6,0.1-0.8,0.3c-0.2,0.2-0.4,0.4-0.6,0.8C219.9,478.4,219.8,478.8,219.8,479.3z"/>
			<path class="st11" d="M230.1,474.3v2.6c0.3-0.3,0.6-0.6,1-0.8c0.3-0.2,0.7-0.3,1.2-0.3c0.6,0,1.1,0.1,1.5,0.4
				c0.4,0.3,0.8,0.7,1,1.2c0.2,0.5,0.4,1.1,0.4,1.8c0,0.5-0.1,1-0.2,1.4c-0.1,0.4-0.3,0.8-0.6,1.1c-0.2,0.3-0.5,0.6-0.9,0.7
				c-0.4,0.2-0.7,0.3-1.2,0.3c-0.3,0-0.5,0-0.7-0.1c-0.2-0.1-0.4-0.1-0.6-0.2c-0.2-0.1-0.3-0.2-0.4-0.3c-0.1-0.1-0.3-0.3-0.5-0.5
				v0.2c0,0.3-0.1,0.6-0.2,0.7c-0.2,0.2-0.3,0.2-0.6,0.2c-0.2,0-0.4-0.1-0.6-0.2c-0.1-0.2-0.2-0.4-0.2-0.7v-7.4
				c0-0.3,0.1-0.6,0.2-0.8c0.1-0.2,0.3-0.3,0.6-0.3c0.3,0,0.5,0.1,0.6,0.3C230,473.7,230.1,474,230.1,474.3z M230.2,479.3
				c0,0.7,0.2,1.2,0.5,1.6c0.3,0.4,0.7,0.5,1.2,0.5c0.4,0,0.8-0.2,1.1-0.6c0.3-0.4,0.5-0.9,0.5-1.6c0-0.4-0.1-0.8-0.2-1.2
				c-0.1-0.3-0.3-0.6-0.5-0.7c-0.2-0.2-0.5-0.3-0.8-0.3c-0.3,0-0.6,0.1-0.9,0.3c-0.3,0.2-0.5,0.4-0.6,0.8
				C230.2,478.4,230.2,478.8,230.2,479.3z"/>
			<path class="st11" d="M237.3,482.9l0.2-0.4l-2.1-5.3c-0.1-0.3-0.2-0.5-0.2-0.7c0-0.1,0-0.3,0.1-0.4c0.1-0.1,0.2-0.2,0.3-0.3
				c0.1-0.1,0.3-0.1,0.4-0.1c0.2,0,0.4,0.1,0.6,0.2c0.1,0.2,0.2,0.4,0.3,0.7l1.4,4.2l1.4-3.9c0.1-0.3,0.2-0.6,0.3-0.7
				c0.1-0.2,0.2-0.3,0.3-0.4c0.1-0.1,0.2-0.1,0.4-0.1c0.1,0,0.3,0,0.4,0.1c0.1,0.1,0.2,0.2,0.3,0.3c0.1,0.1,0.1,0.2,0.1,0.4
				c0,0.1,0,0.2-0.1,0.3c0,0.1-0.1,0.3-0.1,0.4l-2.2,5.8c-0.2,0.5-0.4,0.9-0.6,1.2c-0.2,0.3-0.4,0.5-0.7,0.7
				c-0.3,0.2-0.7,0.2-1.2,0.2c-0.5,0-0.9-0.1-1.1-0.2c-0.2-0.1-0.4-0.3-0.4-0.6c0-0.2,0.1-0.3,0.2-0.5c0.1-0.1,0.3-0.2,0.5-0.2
				c0.1,0,0.2,0,0.3,0c0.1,0,0.2,0,0.3,0c0.2,0,0.3,0,0.5-0.1c0.1-0.1,0.2-0.2,0.3-0.3C237.1,483.4,237.2,483.2,237.3,482.9z"/>
		</g>
		<g>
			<path class="st11" d="M261.9,476h0.4v-0.5c0-0.5,0.1-1,0.2-1.3c0.1-0.3,0.4-0.5,0.7-0.7c0.3-0.1,0.8-0.2,1.3-0.2
				c1,0,1.5,0.2,1.5,0.7c0,0.2-0.1,0.3-0.2,0.4c-0.1,0.1-0.2,0.2-0.4,0.2c-0.1,0-0.2,0-0.3,0c-0.2,0-0.3,0-0.4,0
				c-0.3,0-0.5,0.1-0.6,0.3c-0.1,0.2-0.1,0.4-0.1,0.8v0.4h0.4c0.6,0,1,0.2,1,0.6c0,0.3-0.1,0.5-0.3,0.5c-0.2,0.1-0.4,0.1-0.7,0.1
				H264v4.5c0,0.3-0.1,0.6-0.2,0.8c-0.2,0.2-0.4,0.3-0.6,0.3c-0.2,0-0.4-0.1-0.6-0.3c-0.2-0.2-0.2-0.4-0.2-0.8v-4.5h-0.5
				c-0.3,0-0.4-0.1-0.6-0.2c-0.1-0.1-0.2-0.3-0.2-0.4C261,476.2,261.3,476,261.9,476"/>
			<path class="st11" d="M267.4,480.3v1.4c0,0.3-0.1,0.6-0.2,0.8c-0.2,0.2-0.4,0.3-0.6,0.3c-0.3,0-0.5-0.1-0.6-0.3
				c-0.2-0.2-0.2-0.4-0.2-0.8V477c0-0.8,0.3-1.1,0.8-1.1c0.3,0,0.5,0.1,0.6,0.3c0.1,0.2,0.2,0.4,0.2,0.8c0.2-0.4,0.4-0.6,0.6-0.8
				c0.2-0.2,0.5-0.3,0.9-0.3c0.4,0,0.7,0.1,1,0.3c0.3,0.2,0.5,0.4,0.5,0.7c0,0.2-0.1,0.4-0.2,0.5c-0.1,0.1-0.3,0.2-0.5,0.2
				c-0.1,0-0.2,0-0.5-0.1c-0.2-0.1-0.4-0.1-0.6-0.1c-0.2,0-0.5,0.1-0.6,0.2c-0.2,0.1-0.3,0.3-0.4,0.6c-0.1,0.3-0.1,0.6-0.2,0.9
				C267.5,479.3,267.4,479.8,267.4,480.3"/>
			<path class="st11" d="M275.2,479.7h-3.3c0,0.4,0.1,0.7,0.2,1c0.2,0.3,0.4,0.5,0.6,0.7c0.3,0.2,0.5,0.2,0.8,0.2
				c0.2,0,0.4,0,0.6-0.1c0.2,0,0.3-0.1,0.5-0.2c0.2-0.1,0.3-0.2,0.4-0.3c0.1-0.1,0.3-0.3,0.5-0.5c0.1-0.1,0.2-0.1,0.4-0.1
				c0.2,0,0.3,0,0.4,0.1c0.1,0.1,0.2,0.2,0.2,0.4c0,0.2-0.1,0.3-0.2,0.5c-0.1,0.2-0.3,0.4-0.5,0.6c-0.2,0.2-0.5,0.3-0.9,0.5
				c-0.4,0.1-0.8,0.2-1.3,0.2c-1.1,0-1.9-0.3-2.5-0.9c-0.6-0.6-0.9-1.5-0.9-2.5c0-0.5,0.1-1,0.2-1.4c0.1-0.4,0.4-0.8,0.7-1.1
				c0.3-0.3,0.6-0.5,1.1-0.7c0.4-0.2,0.9-0.2,1.4-0.2c0.7,0,1.2,0.1,1.7,0.4c0.5,0.3,0.8,0.6,1.1,1.1c0.2,0.4,0.4,0.9,0.4,1.4
				c0,0.4-0.1,0.7-0.4,0.8C276,479.6,275.7,479.7,275.2,479.7 M271.9,478.7h3.1c0-0.6-0.2-1-0.5-1.3c-0.3-0.3-0.6-0.4-1.1-0.4
				c-0.4,0-0.8,0.1-1,0.4C272.1,477.7,272,478.1,271.9,478.7"/>
			<path class="st11" d="M282.3,479.7H279c0,0.4,0.1,0.7,0.2,1c0.2,0.3,0.4,0.5,0.6,0.7c0.3,0.2,0.5,0.2,0.8,0.2
				c0.2,0,0.4,0,0.6-0.1c0.2,0,0.3-0.1,0.5-0.2c0.2-0.1,0.3-0.2,0.4-0.3c0.1-0.1,0.3-0.3,0.5-0.5c0.1-0.1,0.2-0.1,0.4-0.1
				c0.2,0,0.3,0,0.4,0.1c0.1,0.1,0.2,0.2,0.2,0.4c0,0.2-0.1,0.3-0.2,0.5c-0.1,0.2-0.3,0.4-0.5,0.6c-0.2,0.2-0.5,0.3-0.9,0.5
				c-0.4,0.1-0.8,0.2-1.3,0.2c-1.1,0-1.9-0.3-2.5-0.9c-0.6-0.6-0.9-1.5-0.9-2.5c0-0.5,0.1-1,0.2-1.4c0.1-0.4,0.4-0.8,0.7-1.1
				c0.3-0.3,0.6-0.5,1.1-0.7c0.4-0.2,0.9-0.2,1.4-0.2c0.7,0,1.2,0.1,1.7,0.4c0.5,0.3,0.8,0.6,1.1,1.1c0.2,0.4,0.4,0.9,0.4,1.4
				c0,0.4-0.1,0.7-0.4,0.8C283.1,479.6,282.7,479.7,282.3,479.7 M279,478.7h3.1c0-0.6-0.2-1-0.5-1.3c-0.3-0.3-0.6-0.4-1.1-0.4
				c-0.4,0-0.8,0.1-1,0.4C279.2,477.7,279,478.1,279,478.7"/>
			<path class="st11" d="M286,476.8v0.2c0.3-0.4,0.7-0.7,1-0.9c0.3-0.2,0.7-0.3,1.2-0.3c0.5,0,1,0.1,1.4,0.4c0.4,0.3,0.8,0.7,1,1.2
				c0.3,0.5,0.4,1.1,0.4,1.8c0,0.5-0.1,1-0.2,1.4c-0.1,0.4-0.4,0.8-0.6,1.1c-0.3,0.3-0.6,0.5-0.9,0.7c-0.4,0.2-0.7,0.2-1.1,0.2
				c-0.5,0-0.9-0.1-1.2-0.3c-0.3-0.2-0.6-0.5-0.9-0.9v2.5c0,0.7-0.3,1.1-0.8,1.1c-0.3,0-0.5-0.1-0.6-0.3c-0.1-0.2-0.2-0.5-0.2-0.8
				v-7.3c0-0.3,0.1-0.6,0.2-0.7c0.1-0.2,0.3-0.2,0.6-0.2c0.2,0,0.4,0.1,0.6,0.2C285.9,476.2,286,476.5,286,476.8 M289.3,479.2
				c0-0.4-0.1-0.8-0.2-1.2c-0.1-0.3-0.3-0.6-0.6-0.7c-0.2-0.2-0.5-0.3-0.8-0.3c-0.5,0-0.9,0.2-1.2,0.6c-0.3,0.4-0.5,0.9-0.5,1.6
				c0,0.7,0.2,1.2,0.5,1.6c0.3,0.4,0.7,0.6,1.2,0.6c0.3,0,0.5-0.1,0.8-0.2c0.2-0.2,0.4-0.4,0.6-0.7
				C289.3,480.1,289.3,479.7,289.3,479.2"/>
			<path class="st11" d="M292.8,475c-0.2,0-0.4-0.1-0.6-0.2c-0.2-0.1-0.3-0.3-0.3-0.6c0-0.2,0.1-0.4,0.3-0.6
				c0.2-0.2,0.4-0.2,0.6-0.2c0.2,0,0.4,0.1,0.6,0.2c0.2,0.1,0.3,0.3,0.3,0.6c0,0.3-0.1,0.5-0.2,0.6C293.2,474.9,293,475,292.8,475
				 M293.6,476.8v4.9c0,0.3-0.1,0.6-0.2,0.8c-0.2,0.2-0.4,0.3-0.6,0.3c-0.3,0-0.4-0.1-0.6-0.3c-0.2-0.2-0.2-0.4-0.2-0.8v-4.9
				c0-0.3,0.1-0.6,0.2-0.8c0.2-0.2,0.4-0.3,0.6-0.3c0.2,0,0.5,0.1,0.6,0.3C293.5,476.2,293.6,476.5,293.6,476.8"/>
			<path class="st11" d="M299.1,481.9l-1.5-2.5l-0.9,0.9v1.4c0,0.3-0.1,0.6-0.3,0.8c-0.2,0.2-0.4,0.3-0.6,0.3
				c-0.3,0-0.5-0.1-0.6-0.3c-0.1-0.2-0.2-0.4-0.2-0.8v-7.2c0-0.4,0.1-0.7,0.2-0.9c0.1-0.2,0.4-0.3,0.6-0.3c0.3,0,0.5,0.1,0.6,0.3
				c0.2,0.2,0.2,0.4,0.2,0.8v4.1l1.9-2c0.2-0.2,0.4-0.4,0.5-0.5c0.1-0.1,0.3-0.1,0.5-0.1c0.2,0,0.4,0.1,0.5,0.2
				c0.1,0.1,0.2,0.3,0.2,0.5c0,0.2-0.2,0.6-0.7,1l-0.9,0.8l1.7,2.7c0.1,0.2,0.2,0.4,0.3,0.5c0.1,0.1,0.1,0.2,0.1,0.3
				c0,0.3-0.1,0.5-0.2,0.6c-0.1,0.2-0.3,0.2-0.6,0.2c-0.2,0-0.4-0.1-0.5-0.2C299.4,482.4,299.3,482.2,299.1,481.9"/>
			<path class="st11" d="M302.8,482.7c-0.3,0-0.5-0.1-0.7-0.3c-0.2-0.2-0.3-0.4-0.3-0.7c0-0.3,0.1-0.5,0.3-0.7
				c0.2-0.2,0.4-0.3,0.7-0.3c0.3,0,0.5,0.1,0.7,0.3c0.2,0.2,0.3,0.4,0.3,0.7c0,0.3-0.1,0.5-0.3,0.7
				C303.2,482.6,303,482.7,302.8,482.7"/>
			<path class="st11" d="M311.2,480.6c0,0.2-0.1,0.4-0.2,0.7c-0.1,0.2-0.3,0.5-0.6,0.7c-0.3,0.2-0.6,0.4-1,0.5
				c-0.4,0.1-0.8,0.2-1.3,0.2c-1.1,0-1.9-0.3-2.5-0.9c-0.6-0.6-0.9-1.4-0.9-2.5c0-0.7,0.1-1.3,0.4-1.8c0.3-0.5,0.7-0.9,1.2-1.2
				c0.5-0.3,1.1-0.4,1.8-0.4c0.4,0,0.8,0.1,1.2,0.2c0.4,0.1,0.7,0.3,0.9,0.5c0.3,0.2,0.4,0.4,0.6,0.6c0.1,0.2,0.2,0.4,0.2,0.6
				c0,0.2-0.1,0.4-0.2,0.5c-0.2,0.1-0.3,0.2-0.5,0.2c-0.1,0-0.3,0-0.4-0.1c-0.1-0.1-0.2-0.2-0.3-0.4c-0.2-0.3-0.4-0.6-0.7-0.7
				c-0.2-0.2-0.5-0.2-0.9-0.2c-0.5,0-0.9,0.2-1.2,0.6c-0.3,0.4-0.5,0.9-0.5,1.6c0,0.3,0,0.6,0.1,0.9c0.1,0.3,0.2,0.5,0.3,0.7
				c0.2,0.2,0.3,0.3,0.5,0.4c0.2,0.1,0.4,0.1,0.7,0.1c0.3,0,0.6-0.1,0.9-0.2c0.2-0.2,0.5-0.4,0.6-0.7c0.1-0.2,0.2-0.3,0.3-0.4
				c0.1-0.1,0.3-0.2,0.4-0.2c0.2,0,0.4,0.1,0.5,0.2C311.1,480.3,311.2,480.4,311.2,480.6"/>
			<path class="st11" d="M318.5,479.3c0,0.5-0.1,1-0.2,1.4c-0.2,0.4-0.4,0.8-0.7,1.1c-0.3,0.3-0.7,0.5-1.1,0.7
				c-0.4,0.2-0.9,0.2-1.4,0.2c-0.5,0-1-0.1-1.4-0.3c-0.4-0.2-0.8-0.4-1.1-0.7c-0.3-0.3-0.5-0.7-0.7-1.1c-0.1-0.4-0.2-0.9-0.2-1.4
				c0-0.5,0.1-1,0.2-1.4c0.2-0.4,0.4-0.8,0.7-1.1c0.3-0.3,0.6-0.5,1.1-0.7c0.4-0.2,0.9-0.2,1.4-0.2c0.5,0,1,0.1,1.4,0.3
				c0.4,0.2,0.8,0.4,1.1,0.7c0.3,0.3,0.5,0.7,0.7,1.1C318.4,478.3,318.5,478.8,318.5,479.3 M316.8,479.3c0-0.7-0.2-1.2-0.5-1.6
				c-0.3-0.4-0.7-0.6-1.2-0.6c-0.3,0-0.6,0.1-0.9,0.3c-0.3,0.2-0.4,0.4-0.6,0.8c-0.1,0.3-0.2,0.7-0.2,1.2c0,0.4,0.1,0.8,0.2,1.2
				c0.1,0.3,0.3,0.6,0.6,0.8c0.3,0.2,0.5,0.3,0.9,0.3c0.5,0,0.9-0.2,1.2-0.6C316.7,480.5,316.8,479.9,316.8,479.3"/>
			<path class="st11" d="M325,479.4v2.3c0,0.4-0.1,0.6-0.2,0.8c-0.2,0.2-0.4,0.3-0.6,0.3c-0.3,0-0.5-0.1-0.6-0.3
				c-0.2-0.2-0.2-0.4-0.2-0.8v-2.7c0-0.4,0-0.8,0-1c0-0.2-0.1-0.4-0.2-0.6c-0.1-0.2-0.3-0.2-0.6-0.2c-0.6,0-0.9,0.2-1.1,0.6
				c-0.2,0.4-0.3,0.9-0.3,1.6v2.3c0,0.4-0.1,0.6-0.2,0.8c-0.2,0.2-0.4,0.3-0.6,0.3c-0.3,0-0.5-0.1-0.6-0.3c-0.2-0.2-0.2-0.4-0.2-0.8
				v-4.9c0-0.3,0.1-0.6,0.2-0.7c0.1-0.2,0.3-0.3,0.6-0.3c0.2,0,0.4,0.1,0.6,0.2c0.2,0.2,0.2,0.4,0.2,0.6v0.2
				c0.3-0.4,0.6-0.6,0.9-0.8c0.3-0.2,0.7-0.3,1.1-0.3c0.4,0,0.8,0.1,1.1,0.3c0.3,0.2,0.6,0.4,0.8,0.8c0.3-0.3,0.6-0.6,0.9-0.8
				c0.3-0.2,0.7-0.3,1.1-0.3c0.5,0,0.9,0.1,1.2,0.3c0.3,0.2,0.6,0.4,0.8,0.8c0.1,0.3,0.2,0.8,0.2,1.5v3.3c0,0.4-0.1,0.6-0.2,0.8
				c-0.2,0.2-0.4,0.3-0.6,0.3c-0.3,0-0.5-0.1-0.6-0.3c-0.2-0.2-0.2-0.4-0.2-0.8v-2.9c0-0.4,0-0.7,0-0.9c0-0.2-0.1-0.4-0.2-0.6
				c-0.1-0.2-0.3-0.2-0.6-0.2c-0.2,0-0.4,0.1-0.6,0.2c-0.2,0.1-0.4,0.3-0.5,0.5C325.1,478.2,325,478.7,325,479.4"/>
		</g>
		<g>
			<path class="st11" d="M246,478.9C246,478.9,246,478.8,246,478.9C246,478.8,246,478.9,246,478.9z"/>
			<path class="st11" d="M246.1,479.4C246.1,479.4,246.1,479.4,246.1,479.4c0-0.2-0.1-0.3-0.1-0.5
				C246,479.1,246.1,479.2,246.1,479.4z"/>
			<path class="st11" d="M246.7,481C246.7,481,246.7,481,246.7,481C246.7,481,246.7,481,246.7,481z"/>
			<path class="st11" d="M246.6,480.9C246.6,480.8,246.6,480.8,246.6,480.9C246.6,480.8,246.6,480.8,246.6,480.9z"/>
			<path class="st11" d="M246.3,480c0.1,0.3,0.2,0.5,0.3,0.8C246.4,480.5,246.3,480.3,246.3,480C246.3,480,246.3,480,246.3,480z"/>
			<path class="st11" d="M252.6,472.4c0.3,0,0.6,0,0.8,0.1l0.1-0.5c0,0-0.8-0.2-1.8-0.2l-0.1-0.3c0.3-0.1,0.5-0.3,0.5-0.7
				c0-0.4-0.3-0.7-0.7-0.7c-0.4,0-0.7,0.3-0.7,0.7c0,0.3,0.2,0.6,0.5,0.7l0.1,0.3c-1.1,0.1-1.9,0.6-1.9,0.6l0.2,0.5
				c0.6-0.2,1.2-0.3,1.7-0.4C251.9,472.4,252.3,472.4,252.6,472.4z"/>
			<path class="st11" d="M246.7,474.9L246.7,474.9C246.7,474.8,246.7,474.8,246.7,474.9l-0.1-0.2l-0.3-0.2c0,0-0.5,0.5-0.9,1.3
				c0,0,0-0.1-0.1-0.1c-0.1-0.1-0.3-0.2-0.5-0.2c0,0,0,0,0,0c-0.1,0-0.2,0-0.3-0.1c0.1-0.1,0.1-0.2,0.1-0.3c0-0.2-0.2-0.4-0.4-0.4
				c-0.2,0-0.4,0.2-0.4,0.4c0,0.2,0.2,0.4,0.4,0.4c0,0,0.1,0,0.1,0c0.1,0.1,0.3,0.2,0.5,0.2c0.1,0,0.2,0,0.3,0.1
				c0.1,0.1,0.1,0.2,0.1,0.3c0,0,0,0,0,0c-0.3,0.8-0.2,1.7-0.2,1.7l0.7,0c0-0.4,0.1-1,0.2-1.5C246.2,475.5,246.6,474.9,246.7,474.9z
				"/>
			<path class="st11" d="M258.6,472.9c-0.2,0-0.4,0.2-0.4,0.4c0,0,0,0.1,0,0.1c-0.1,0.1-0.2,0.3-0.2,0.5c0,0.1,0,0.2-0.1,0.3
				c-0.1,0.1-0.1,0.1-0.2,0.1c-0.5-0.7-1.1-1.2-1.1-1.2l-0.5,0.5c0.4,0.3,0.8,0.8,1.1,1.3c0.3,0.4,0.5,0.8,0.7,1.3l0.7-0.3
				c0,0-0.3-0.8-0.7-1.4c0.1,0,0.2-0.1,0.2-0.1c0.1-0.1,0.2-0.3,0.2-0.5c0-0.1,0-0.2,0.1-0.3c0.1,0.1,0.2,0.1,0.3,0.1
				c0.2,0,0.4-0.2,0.4-0.4S258.8,472.9,258.6,472.9z"/>
			<path class="st11" d="M256.9,479c-0.9,0.4-2.4,1-4.4,1.3c-0.8,0.1-1.5,0.1-2.2,0.1c-0.9,0-1.7-0.1-2.3-0.1
				c-0.7-0.1-1.3-0.2-1.6-0.3c0.1,0.3,0.2,0.5,0.3,0.8c0,0,0,0,0,0c0,0,0,0.1,0,0.1c0,0,0,0.1,0,0.1c0,0,0,0,0,0
				c0.2,0.4,0.4,0.7,0.7,1c0.9,1,1.9,1.2,1.9,1.2l0,0l0,0c0,0,0.9,0.3,2.2,0.3c1.3,0,2.5-0.3,3.7-0.8c0.9-0.5,1.7-1.1,2.1-1.7
				c0.3-0.5,0.6-1,0.7-1.5c0.1-0.3,0.1-0.7,0.1-1.2C257.8,478.4,257.4,478.7,256.9,479z"/>
			<path class="st11" d="M246.9,475.1c0,0-0.4,0.6-0.7,1.5c-0.2,0.7-0.2,1.6-0.2,1.6v0c0,0.2,0,0.4,0,0.7c0,0,0,0,0,0
				c0,0,0,0.1,0,0.1c0,0.2,0,0.3,0.1,0.5c0.5,0.1,3.2,0.8,6.2,0.3c1.9-0.3,3.4-0.8,4.3-1.3c0.7-0.4,1.2-0.7,1.4-0.8
				c-0.2-0.7-0.7-1.7-1.1-2.4c-1.3-1.9-2.7-2.4-3.5-2.5c-0.3,0-0.5-0.1-0.8-0.1c-0.3,0-0.7,0-1.1,0.1c-0.5,0.1-1,0.2-1.7,0.4
				c-0.9,0.3-1.7,0.8-2.3,1.3l0,0C247.4,474.6,247.2,474.8,246.9,475.1z M255,474.7c0.6,0,1.1,0.5,1.1,1.1s-0.5,1.1-1.1,1.1
				c-0.6,0-1.1-0.5-1.1-1.1S254.3,474.7,255,474.7z M249.6,474.6c1,0,1.8,0.8,1.8,1.8c0,1-0.8,1.8-1.8,1.8c-1,0-1.8-0.8-1.8-1.8
				C247.7,475.4,248.6,474.6,249.6,474.6z"/>
		</g>
	</g>
</g>
</svg>
