<?xml version="1.0" encoding="utf-8"?>
<!-- Generator: Adobe Illustrator 24.3.0, SVG Export Plug-In . SVG Version: 6.00 Build 0)  -->
<svg version="1.1" id="Layer_1" xmlns="http://www.w3.org/2000/svg" xmlns:xlink="http://www.w3.org/1999/xlink" x="0px" y="0px"
	 viewBox="0 0 3857.8 2000" style="enable-background:new 0 0 3857.8 2000;" xml:space="preserve">
<style type="text/css">
	.st0{display:none;fill:#FFFFFF;}
	.st1{display:none;fill:#EAFCFC;}
	.st2{display:none;opacity:0.1;}
	.st3{display:inline;fill:#86B1F2;}
	.st4{fill:#355389;}
	.st5{fill:#3B55CE;}
	.st6{fill:#6B90FB;}
	.st7{fill:#012178;}
	.st8{fill:#001E48;}
	.st9{fill:#375396;}
	.st10{fill:#29446D;}
	.st11{fill:#B4C7FE;}
	.st12{opacity:0.8;fill:#FFFFFF;enable-background:new    ;}
	.st13{fill:#FCF5EB;}
	.st14{fill:#FAE0B2;}
	.st15{fill:#86B1F2;}
	.st16{opacity:0.5;fill:#FFFFFF;enable-background:new    ;}
	.st17{fill:#ACCBF9;}
	.st18{opacity:0.5;fill:#FAE0B2;enable-background:new    ;}
	.st19{fill:#F47458;}
	.st20{opacity:0.2;fill:#FFFFFF;enable-background:new    ;}
	.st21{opacity:0.3;fill:#F7CC7F;enable-background:new    ;}
	.st22{fill:#33669A;}
	.st23{opacity:0.3;fill:#E25A44;enable-background:new    ;}
	.st24{fill:#F4F4F4;}
	.st25{fill:#466EB6;}
	.st26{fill:#F7A491;}
	.st27{fill:#B75742;}
	.st28{fill:#F48C7F;}
	.st29{fill:#F7CC7F;}
	.st30{fill:#07345A;}
	.st31{fill:#9BC1F9;}
</style>
<rect class="st0" width="3857.8" height="2000"/>
<g>
	<g>
		<path class="st1" d="M2357.6,167.6c0,0-877.1,108.4-795.4,302.9c81.6,194.5-436.5-69.1-643.2,1
			c-147.2,49.9-88.4,201.9-159.6,263.1C596.1,875,429.1,698.2,221.3,804.3s31.2,1075.1,115.9,1075l3052.1,18l38.4,1
			c0,0,235-284.9,22.3-451.3s-66.7-242.5-40.8-306.8c29.7-73.8,136-284.7-166.9-376.9c-219.5-66.9-225.4-300.8-216.5-343.2
			C3025.7,420.1,3110.6,84.5,2357.6,167.6L2357.6,167.6z"/>
		<g class="st2">
			<path class="st3" d="M239,1343.3h96v-207.5h92.4v92.4h76.4v-29.7v-183.1h125.1V1210l37.4,1.2V1015H710v-83.6h26.2v-56.2h102.3
				v56.2h26.2v83.6h43.7v106.3l20.2,1.2l6-315h134.8v167.5l47.4,1.2V714.5h16.2v-55.3h142.2v55.3h16.2v352.9h29.9v-110h24.9v-53.8
				h36.2V746.5h52.4v157.1h36.2v53.8h24.9v186.2h17.5l13.7-0.2V927.7l369.3,3.5v54.3h31.2v-47.3h77.7V623h71.1v44.9h32.4V760h112.3
				v63.7h95.2v107.7l150.5-3.5v215.7l13.7,0.2h17.5V957.5h25v-53.8h36.2V746.7h52.4v157.1h36.2v53.8h25v110h30V714.7h16.2v-55.3
				h142.3v55.3h16.2v261.9l47.4-1.2V807.8H3060l6.1,314.9l20.2-1.2v-106.3h43.7v-83.6h26.2v-56.2h102.4v56.2h26.2v83.6h43.7v196.2
				l33.1-1.1c-35.6,54.1-54.4,125,88.3,236.7c181.3,141.8,37.5,369.6-9,433.9l-1534.1-0.1l-1318.6-0.1l-251-1.5
				c-24.6,0-62.2-81.7-98.1-200.4L239,1343.3L239,1343.3z"/>
			<path class="st3" d="M3409,1140.2c-7.8,19.4-26.6,39.9-43.2,63.7v-188.4h82.9C3441.3,1067.2,3419.9,1113,3409,1140.2z"/>
		</g>
		<g>
			<rect x="781.9" y="1537.9" class="st4" width="8.5" height="149.8"/>
			<polygon class="st5" points="784,1270.9 826.1,1573.1 741.8,1573.1 			"/>
			<polygon class="st6" points="823.4,1554 747.8,1530.1 749,1521.9 822.1,1545 			"/>
			<polygon class="st6" points="810.1,1458.5 760,1442.7 761.2,1434.5 808.8,1449.5 			"/>
		</g>
		<g>
			<rect x="855.6" y="1548.5" class="st4" width="7.3" height="80.4"/>
			<polygon class="st5" points="859.2,1392.5 882.9,1583.9 835.5,1583.9 			"/>
			<polygon class="st6" points="874.3,1514.5 840.5,1543.4 841.8,1532.9 873.2,1506 			"/>
			<polygon class="st6" points="869.1,1472.5 848.4,1479.6 849.4,1471.7 868.2,1465.3 			"/>
		</g>
		<g>
			<path class="st7" d="M1820.6,1616.4c-0.6-3.5-0.9-7.1-0.9-10.7c0-40.7,38.1-73.7,85.2-73.7c47.1,0,85.2,33,85.2,73.7
				c0,3.7-0.3,7.2-0.9,10.7H1820.6z"/>
			<path class="st6" d="M1724.2,1598.3c-0.6-4.9-0.9-10-0.9-15.2c0-57.4,38.1-103.9,85.2-103.9s85.2,46.5,85.2,103.9
				c0,5.2-0.3,10.2-0.9,15.2H1724.2z"/>
			<path class="st6" d="M1755.4,1662c0.6-3.5,0.9-7.1,0.9-10.7c0-40.7-38.1-73.7-85.2-73.7s-85.2,33-85.2,73.7
				c0,3.7,0.3,7.2,0.9,10.7H1755.4z"/>
			<path class="st8" d="M1891.7,1662c0.8-4.9,1.1-10,1.1-15.2c0-57.4-48.3-103.9-108-103.9s-108,46.5-108,103.9
				c0,5.2,0.4,10.2,1.1,15.2H1891.7z"/>
			<path class="st6" d="M1808.8,1542.9c29.8,0,56.4,14.8,74,37.9c8.9-2.1,18.5-3.3,28.3-3.3c52.9,0,95.8,33,95.8,73.7
				c0,3.7-28.2,80.3-28.8,83.8L1714,1662c-0.7-4.9-1-10-1-15.2C1713,1589.4,1755.9,1542.9,1808.8,1542.9z"/>
		</g>
		<path class="st9" d="M2932.8,1463.7c135.8-11.6,396.6,95.3,603.6,198.5c-7.6,56.7-30.9,110.8-54,152.9l-91.8-1.5l78.4,0.1
			c-46.3-1.2-790.7-91.2-1297.2-146.3C2445.8,1585.6,2720.7,1481.8,2932.8,1463.7z"/>
		<g>
			<path class="st10" d="M1148.5,1258.2c-0.1-2.5-3.5-4.4-5.4-2.2c-1.8,2.2-1.8,0.7-3.5,5.5c-5.1,13.7-12.6,27-21.4,38.7
				c-16.8,22.3-33.4,33.5-52.2,44.6c7.8-17.5,13-36.1,13.6-54.9c0.2-6.8,0.1-14-2.8-20.2c-0.8-1.8-4-1.4-4.3,0.6
				c-1.6,9.7,0.8,17-2.4,34.4c-7.5,41.4-37.2,85.4-65.9,116.2c5.5-52.1,8.2-111.4-1.7-163.9c-1.6-8.6-4.2-16.8-6.6-25.2
				c-0.6-2-3.4-1.1-3,0.8c0.5,2.8,5.2,39,5.5,41.5c4.5,40,3.6,84.4,0.1,124.8c-22.2-30.1-37.2-65.2-44.1-101.9
				c-2.1-10.8-2.6-22.1-5.5-32.7c-0.4-1.5-2.8-1.6-3.1,0c-3,16,3,44.2,7.3,59.5c8.8,31.1,22.8,59,42,83.8c0.8,1-30.8,244.2-30,247.3
				c1.4,5.2,10.5,8.8,11.9-0.4c0.6-3.8,17.9-151.7,25.7-220.2c3-1.6,4.9-4.5,12.5-13c17.6-19.7,35-44.3,46.6-67.4
				c7-0.4,57.4-24.9,82.3-80.6c0.7-1.6,4-9.2,4.4-10.8C1148.9,1260.9,1148.6,1259.6,1148.5,1258.2z"/>
			<path class="st8" d="M986.7,1179.3c0.6-7.5,0.9-15.1,0.9-22.9c0-86.9-37-157.3-82.5-157.3c-45.6,0-82.5,70.4-82.5,157.3
				c0,7.8,0.3,15.4,0.9,22.9H986.7z"/>
			<path class="st5" d="M1080.1,1140.7c0.6-10.6,0.9-21.4,0.9-32.3c0-122.5-37-221.9-82.5-221.9s-82.5,99.3-82.5,221.9
				c0,11,0.3,21.8,0.9,32.3H1080.1z"/>
			<path class="st5" d="M1049.9,1276.6c-0.6-7.5-0.9-15.2-0.9-22.9c0-86.9,37-157.3,82.6-157.3s82.6,70.4,82.6,157.3
				c0,7.8-0.3,15.4-0.9,22.9H1049.9z"/>
			<path class="st8" d="M917.8,1276.6c-0.7-10.6-1.1-21.4-1.1-32.3c0-122.5,46.8-221.9,104.7-221.9c57.8,0,104.6,99.3,104.6,221.9
				c0,11-0.4,21.8-1.1,32.3H917.8z"/>
			<path class="st5" d="M998.2,1022.4c-28.9,0-54.7,31.5-71.7,80.9c-8.7-4.5-17.9-7-27.4-7c-51.3,0-92.9,70.4-92.9,157.3
				c0,7.8,0.3,15.4,1,22.9H1090c0.7-10.6,1-21.4,1-32.3C1091,1121.7,1049.4,1022.4,998.2,1022.4z"/>
		</g>
		<path class="st11" d="M900.3,1725.8h2621.3c-31.3,96.5-94,172.6-94,172.6l-38.4-1l-2488.9-1.9L900.3,1725.8L900.3,1725.8z"/>
		<path class="st9" d="M1248.3,1509.3c212.1,18.1,487,121.9,761,203.6c-506.5,55.1-1251,145.2-1297.2,146.3l78.4-0.1l-110.5,1.8
			l-301.7-4.2C518.9,1762.2,1036.2,1491.1,1248.3,1509.3z"/>
		<g>
			<g>
				<path class="st10" d="M331.9,1716.5c-12-31.2-23.8-62.5-32.3-95c-26.3-100-19.9-172.9-18.9-207.9c0.1-4.6-7.3-5.9-8-1.1
					c-2.2,16.4-2.7,33.2-2.8,49.8c-0.2,28,1.5,56.1,5.1,84.1c-19.3,5-37.5-2.5-52.4-16c-25.7-23.3-34.9-54.3-38.9-88.6
					c-0.4-3.5-0.5-6.8-3.4-8.9c-0.6-1.8-3.3-2.3-3.9,0.3c-4.1,4.2-2.1,12.6-1.5,18c8.5,73.2,52.9,108.6,88.8,108.3
					c3.9,0,8.7-0.2,13-1.4c2.6,17.5,5.9,34.9,10,52.1c7.7,32.8,18.6,64.4,30.5,95.7c40.8,107.1,53.9,161.8,65.4,192.8
					c1.8,6.2,11,3.6,9.4-2.7C391.3,1893.8,359.5,1788.3,331.9,1716.5z"/>
				<path class="st10" d="M495.5,1434.9c-0.4-2.3-1.7-3.8-2.2-6c-0.7-2.8-5.3-3.1-5.8,0c-0.3,1.8-1.3,2.9-1.7,4.7
					c-1.2,5.9,1.8,39.2-6.1,90.2c-2.1,13.6-4.4,27-8.9,40c-7.3,20.9-20.6,43.5-37.1,57.7c-0.5-29.9-2.3-59.7-5.9-89.4
					c-2.1-17.8-4.9-35.4-8.1-53c-1.6-8.6-3.3-17.1-5.2-25.6c-2-8.9-3.8-17.5-8.1-25.6c-1.3-2.5-5-1.3-5,1.4c0,7.9,1.6,15.2,3.2,22.9
					c1.6,7.7,3.2,15.3,4.6,23.1c10.6,57.1,14.6,107.8,14.6,165c-17.5-22-32.8-48.4-44.2-74.3c-13.6-31.2-22.8-64.7-26.6-98.7
					c-1.1-9.5-1.7-19.1-1.9-28.7c-0.1-5-0.2-9.9-0.3-14.9c0-2.6-1-10.2-5.3-8c-4,2.1-3.6,6.7-3.9,10.8c-0.4,4.4-0.4,8.8-0.3,13.2
					c0.1,8.5,0.6,16.9,1.3,25.4c5.7,61.1,28.7,121.5,63.8,171c5.3,7.5,10.9,15.6,17.4,22.2c-1.5,97.8-16,221.3-16.3,231.2
					c-0.1,2.2,0.4,4.4,0.8,6.6c0.7,4.4,6.5,3.4,7.7,0c2.2-6.4,2-8.9,5.4-44.6c6-63.6,12.7-209.3,12.7-215.2
					c20.8-14.9,35.5-38,45.2-62c5.1-12.8,8.1-25.9,10.4-39.4C497,1488.7,496.8,1442.5,495.5,1434.9z"/>
			</g>
			<path class="st8" d="M352.4,1355.1c0.8-7.1,1.2-14.2,1.2-21.6c0-81.8-50.8-148.1-113.5-148.1c-62.7,0-113.5,66.3-113.5,148.1
				c0,7.3,0.4,14.5,1.2,21.6H352.4z"/>
			<path class="st5" d="M480.9,1318.8c0.8-9.9,1.2-20.1,1.2-30.4c0-115.3-50.8-208.8-113.5-208.8c-62.7,0-113.5,93.5-113.5,208.8
				c0,10.3,0.4,20.5,1.2,30.4H480.9z"/>
			<path class="st8" d="M257.7,1446.7c-1-9.9-1.5-20.1-1.5-30.4c0-115.3,64.4-208.8,143.9-208.8s143.9,93.5,143.9,208.8
				c0,10.3-0.5,20.5-1.5,30.4H257.7z"/>
			<path class="st5" d="M368.1,1207.4c-39.7,0-75.2,29.7-98.6,76.2c-11.9-4.3-24.6-6.6-37.7-6.6c-70.5,0-127.7,66.3-127.7,148.1
				c0,7.3,0.5,14.5,1.3,21.6h389c0.9-9.9,1.4-20.1,1.4-30.4C495.8,1300.9,438.6,1207.4,368.1,1207.4z"/>
		</g>
		<g>
			<path class="st7" d="M543.8,1634.8l-18.5-23.7c-13.4-17.8-10.7-42.5,6.1-55.1l0,0c42.2-31.8,103.8-21.2,137.6,23.7l24.7,32.8
				c10.8,14.4,27.8,21.1,43.7,19c14.4-2,29.2,4.7,38.4,16.9l13,17.3c14.1,18.7,19,42.4,14,64.5c-2.9,12.9-0.1,27.3,8.8,39.1
				l18.4,24.5c20.4,27.1,16.2,64.6-9.3,83.7l-14.5,10.9c-25.5,19.2-62.7,12.8-83-14.3l0,0c-21.5-37.3-46.5-49.4-66.7-51.9
				c-29.7-3.7-57.3-19.4-75.8-44.1l-2.6-3.5c-19.6-26.1-26.6-58.9-20.2-89.7C560.7,1671.4,558.5,1654.3,543.8,1634.8z"/>
			<path class="st5" d="M955,1894.8c0,0-95.5-126.9-155.6-146.3c-60.1-19.5-13.1,47.6-13.1,47.6s-97-106.3-136.1-95.8
				c-35.9,9.6,0,81.9,0,81.9s-40.4-40-89.4-40s37.9,149.8,37.9,149.8L955,1894.8z"/>
			<path class="st6" d="M650.2,1894.1c0,0-77.7-195.6-158.6-175.4c-65.5,16.4-27,90.7-31,86.7c-4-4-18.6-29.1-75.5-29.1
				c-56.9,0,1,70.8,1,70.8s-104.7-28.1-114.2,11.6c-7.9,33,36.2,35.4,36.2,35.4L650.2,1894.1L650.2,1894.1z"/>
		</g>
		<path class="st12" d="M2313.1,451.7c6.1-26.7,30-46.5,58.5-46.5c5.2,0,10.3,0.7,15.1,1.9c14.1-30.1,44.6-51,80-51
			c9.1,0,18,1.4,26.3,4c19.1-31.6,53.7-52.7,93.2-52.7c47.1,0,87.1,29.9,102.3,71.7c10.8-6,23.1-9.4,36.3-9.4
			c41.2,0,74.7,33.5,74.7,74.7c0,2.5-0.1,4.9-0.4,7.2L2313.1,451.7L2313.1,451.7z"/>
		<path class="st12" d="M1797.4,682.5c-2.5-11-12.3-19.2-24.1-19.2c-2.2,0-4.2,0.3-6.2,0.8c-5.8-12.4-18.4-21-33-21
			c-3.8,0-7.4,0.6-10.8,1.6c-7.8-13-22.1-21.7-38.4-21.7c-19.4,0-35.9,12.3-42.2,29.6c-4.4-2.5-9.5-3.9-15-3.9
			c-17,0-30.8,13.8-30.8,30.8c0,1,0.1,2,0.2,3H1797.4z"/>
		<path class="st12" d="M2510.6,721.2c-3.3-14.3-16.1-25-31.4-25c-2.8,0-5.5,0.4-8.1,1c-7.6-16.2-23.9-27.4-43-27.4
			c-4.9,0-9.6,0.8-14.1,2.1c-10.2-17-28.8-28.3-50.1-28.3c-25.3,0-46.8,16-54.9,38.5c-5.8-3.2-12.4-5.1-19.5-5.1
			c-22.1,0-40.1,18-40.1,40.1c0,1.3,0.1,2.6,0.2,3.9L2510.6,721.2L2510.6,721.2z"/>
		<g>
			<rect x="2167.6" y="1223.7" class="st13" width="41.8" height="518"/>
			<rect x="1916.9" y="1016.4" class="st14" width="293.9" height="169.9"/>
			<rect x="2176.2" y="1016.4" class="st14" width="34.6" height="169.9"/>
			<rect x="1903.4" y="1008.2" class="st8" width="313.8" height="16.4"/>
			<rect x="1927.8" y="1048" class="st15" width="67.1" height="89.7"/>
			<rect x="2011.7" y="1048" class="st15" width="67.1" height="89.7"/>
			<rect x="2093.9" y="1048" class="st15" width="67.1" height="89.7"/>
			<rect x="2714.9" y="1016.4" class="st14" width="293.9" height="169.9"/>
			<rect x="2714.9" y="1016.4" class="st14" width="34.6" height="169.9"/>
			<rect x="1840" y="1188.8" class="st14" width="371.5" height="566.5"/>
			<rect x="1866.4" y="1223.7" class="st15" width="142.8" height="89.7"/>
			<rect x="1866.4" y="1327.7" class="st15" width="142.8" height="89.7"/>
			<rect x="1866.4" y="1431.7" class="st15" width="142.8" height="89.7"/>
			<rect x="1866.4" y="1535.8" class="st15" width="142.8" height="89.7"/>
			<rect x="1866.4" y="1639.8" class="st15" width="142.8" height="89.7"/>
			<rect x="2024.7" y="1223.7" class="st15" width="142.8" height="89.7"/>
			<rect x="2024.7" y="1327.7" class="st15" width="142.8" height="89.7"/>
			<rect x="2024.7" y="1431.7" class="st15" width="142.8" height="89.7"/>
			<rect x="2024.7" y="1535.8" class="st15" width="142.8" height="89.7"/>
			<rect x="2024.7" y="1639.8" class="st15" width="142.8" height="89.7"/>
			<rect x="2714.9" y="1188.8" class="st14" width="371.5" height="566.5"/>
			<rect x="2714.9" y="1741.8" class="st8" width="375.9" height="13.5"/>
			<rect x="1836.7" y="1741.8" class="st8" width="375.9" height="13.5"/>
			<rect x="2714.9" y="1188.8" class="st14" width="34.6" height="566.5"/>
			<rect x="2708.7" y="1008.2" class="st8" width="313.5" height="16.4"/>
			<rect x="2209.5" y="1064.5" class="st14" width="505.4" height="117.6"/>
			<rect x="2209.5" y="1198.7" class="st14" width="505.4" height="556.6"/>
			<rect x="2917.2" y="1223.7" class="st15" width="142.8" height="89.7"/>
			<rect x="2917.2" y="1327.7" class="st15" width="142.8" height="89.7"/>
			<rect x="2917.2" y="1431.7" class="st15" width="142.8" height="89.7"/>
			<rect x="2917.2" y="1535.8" class="st15" width="142.8" height="89.7"/>
			<rect x="2917.2" y="1639.8" class="st15" width="142.8" height="89.7"/>
			<rect x="2758.9" y="1223.7" class="st15" width="142.8" height="89.7"/>
			<rect x="2930.8" y="1048" class="st15" width="67.1" height="89.7"/>
			<rect x="2846.9" y="1048" class="st15" width="67.1" height="89.7"/>
			<rect x="2764.7" y="1048" class="st15" width="67.1" height="89.7"/>
			<rect x="2758.9" y="1327.7" class="st15" width="142.8" height="89.7"/>
			<rect x="2758.9" y="1431.7" class="st15" width="142.8" height="89.7"/>
			<rect x="2758.9" y="1535.8" class="st15" width="142.8" height="89.7"/>
			<rect x="2758.9" y="1639.8" class="st15" width="142.8" height="89.7"/>
			<rect x="2386.2" y="1615.7" class="st9" width="145" height="140.9"/>
			<rect x="2928.9" y="1134.4" class="st8" width="70.8" height="4.7"/>
			<rect x="2845" y="1134.4" class="st8" width="70.8" height="4.7"/>
			<rect x="2762.8" y="1134.4" class="st8" width="70.8" height="4.7"/>
			<rect x="2092.9" y="1134.4" class="st8" width="70.8" height="4.7"/>
			<rect x="2009" y="1134.4" class="st8" width="70.8" height="4.7"/>
			<rect x="1926.8" y="1134.4" class="st8" width="70.8" height="4.7"/>
			<polygon class="st16" points="2991.6,1724.9 3073.6,1724.9 2978.7,1223.7 2896.6,1223.7 			"/>
			<rect x="3060" y="1223.6" class="st14" width="26.4" height="510"/>
			<polygon class="st16" points="2886.1,1724.9 2931.8,1724.9 2836.9,1223.7 2791.2,1223.7 			"/>
			<rect x="2757.1" y="1308.7" class="st8" width="146.3" height="4.7"/>
			<rect x="2915.4" y="1412.7" class="st8" width="146.3" height="4.7"/>
			<rect x="2757.1" y="1412.7" class="st8" width="146.3" height="4.7"/>
			<rect x="2915.4" y="1516.8" class="st8" width="146.3" height="4.7"/>
			<rect x="2757.1" y="1516.8" class="st8" width="146.3" height="4.7"/>
			<rect x="2915.4" y="1620.8" class="st8" width="146.3" height="4.7"/>
			<rect x="2757.1" y="1620.8" class="st8" width="146.3" height="4.7"/>
			<rect x="2915.4" y="1724.9" class="st8" width="146.3" height="4.7"/>
			<rect x="2757.1" y="1724.9" class="st8" width="146.3" height="4.7"/>
			<rect x="2915.4" y="1308.7" class="st8" width="146.3" height="4.7"/>
			<rect x="2901.6" y="1223.1" class="st14" width="15.5" height="510.5"/>
			<rect x="2757.1" y="1625.5" class="st14" width="308.2" height="14.4"/>
			<rect x="2757.1" y="1521.4" class="st14" width="308.2" height="14.4"/>
			<rect x="2757.1" y="1417.4" class="st14" width="308.2" height="14.4"/>
			<rect x="2757.1" y="1313.3" class="st14" width="308.2" height="14.4"/>
			<polygon class="st16" points="2123.3,1724.9 2205.3,1724.9 2110.4,1223.7 2028.4,1223.7 			"/>
			<polygon class="st16" points="1993.6,1724.9 2039.2,1724.9 1944.3,1223.7 1898.6,1223.7 			"/>
			<rect x="2009.1" y="1223.1" class="st14" width="15.5" height="510.5"/>
			<rect x="1864.6" y="1625.5" class="st14" width="308.2" height="14.4"/>
			<rect x="1864.6" y="1521.4" class="st14" width="308.2" height="14.4"/>
			<rect x="1864.6" y="1417.4" class="st14" width="308.2" height="14.4"/>
			<rect x="1864.6" y="1313.3" class="st14" width="308.2" height="14.4"/>
			<polygon class="st16" points="2966.1,1134.4 2987.3,1134.4 2962.6,1048 2941.5,1048 			"/>
			<polygon class="st16" points="2878.8,1134.4 2893.6,1134.4 2869,1048 2854.2,1048 			"/>
			<polygon class="st16" points="2816,1134.4 2827.8,1134.4 2803.2,1048 2791.4,1048 			"/>
			<polygon class="st16" points="2131.8,1134.4 2152.9,1134.4 2128.3,1048 2107.2,1048 			"/>
			<polygon class="st16" points="2044.5,1134.4 2059.3,1134.4 2034.7,1048 2019.9,1048 			"/>
			<polygon class="st16" points="1981.7,1134.4 1993.5,1134.4 1968.9,1048 1957.1,1048 			"/>
			<rect x="1864.8" y="1308.7" class="st8" width="146.3" height="4.7"/>
			<rect x="2023.2" y="1412.7" class="st8" width="146.3" height="4.7"/>
			<rect x="1864.8" y="1412.7" class="st8" width="146.3" height="4.7"/>
			<rect x="2023.2" y="1516.8" class="st8" width="146.3" height="4.7"/>
			<rect x="1864.8" y="1516.8" class="st8" width="146.3" height="4.7"/>
			<rect x="2023.2" y="1620.8" class="st8" width="146.3" height="4.7"/>
			<rect x="1864.8" y="1620.8" class="st8" width="146.3" height="4.7"/>
			<rect x="2023.2" y="1724.9" class="st8" width="146.3" height="4.7"/>
			<rect x="1864.8" y="1724.9" class="st8" width="146.3" height="4.7"/>
			<rect x="2023.2" y="1308.7" class="st8" width="146.3" height="4.7"/>
			<rect x="2393.4" y="1251.9" class="st17" width="142.8" height="89.7"/>
			<rect x="2551.7" y="1251.9" class="st17" width="142.8" height="89.7"/>
			<rect x="2391.9" y="1337" class="st8" width="146.3" height="4.7"/>
			<rect x="2235.8" y="1251.9" class="st17" width="142.8" height="89.7"/>
			<rect x="2234.3" y="1337" class="st8" width="146.3" height="4.7"/>
			<rect x="2550.2" y="1337" class="st8" width="146.3" height="4.7"/>
			<rect x="2393.4" y="1373.2" class="st17" width="142.8" height="89.7"/>
			<rect x="2551.7" y="1373.2" class="st17" width="142.8" height="89.7"/>
			<rect x="2391.9" y="1458.2" class="st8" width="146.3" height="4.7"/>
			<rect x="2235.8" y="1373.2" class="st17" width="142.8" height="89.7"/>
			<rect x="2234.3" y="1458.2" class="st8" width="146.3" height="4.7"/>
			<rect x="2550.2" y="1458.2" class="st8" width="146.3" height="4.7"/>
			<rect x="2209.5" y="1064.5" class="st18" width="505.4" height="39.2"/>
			<rect x="2198.3" y="1057.1" class="st8" width="527.7" height="16.4"/>
			<rect x="2458.1" y="1615.7" class="st19" width="1.2" height="140.9"/>
			<rect x="2239.8" y="1615.7" class="st9" width="26.2" height="139.6"/>
			<rect x="2658.7" y="1615.7" class="st9" width="26.2" height="139.6"/>
			<rect x="2468.6" y="1623.1" class="st15" width="51.9" height="101.7"/>
			<rect x="2396.8" y="1623.1" class="st15" width="51.9" height="101.7"/>
			<polygon class="st20" points="2493.2,1724.9 2515.9,1724.9 2498,1623.2 2475.4,1623.2 			"/>
			<polygon class="st20" points="2420.4,1724.9 2443.1,1724.9 2425.2,1623.2 2402.5,1623.2 			"/>
			<rect x="2167.6" y="1492" class="st14" width="37.7" height="245.6"/>
			<rect x="2174.8" y="1196.9" class="st14" width="34.6" height="555.4"/>
			<rect x="2650" y="1117.1" class="st21" width="32.8" height="12.6"/>
			<rect x="2675.9" y="1136.3" class="st21" width="32.8" height="12.6"/>
			<rect x="2654.7" y="1157.1" class="st21" width="33.6" height="10.6"/>
			<rect x="2633.8" y="1137.3" class="st21" width="32.6" height="10.6"/>
			<rect x="2433.9" y="1158.1" class="st21" width="26.5" height="9.5"/>
			<rect x="2416.3" y="1142.6" class="st21" width="26.5" height="9.5"/>
			<rect x="2570.2" y="1649.1" class="st21" width="26.5" height="9.5"/>
			<rect x="2552.6" y="1633.6" class="st21" width="26.5" height="9.5"/>
			<rect x="2287.5" y="1644.4" class="st21" width="26.5" height="9.5"/>
			<rect x="2274.3" y="1661.7" class="st21" width="26.5" height="9.5"/>
			<rect x="2284.4" y="1121.5" class="st21" width="32.8" height="12.6"/>
			<rect x="2209.5" y="1155.1" class="st21" width="10.7" height="12.6"/>
			<rect x="2209.3" y="1134.9" class="st21" width="22.8" height="12.6"/>
			<rect x="2268.2" y="1138" class="st21" width="32.8" height="12.6"/>
			<rect x="2511.3" y="1142.2" class="st21" width="32.8" height="12.6"/>
			<rect x="2530.9" y="1123.3" class="st21" width="32.8" height="12.6"/>
			<rect x="2279" y="1157.1" class="st21" width="33.6" height="10.6"/>
			<rect x="2335" y="1688.8" class="st21" width="32.8" height="12.6"/>
			<rect x="2318.8" y="1705.4" class="st21" width="32.8" height="12.6"/>
			<rect x="2329.6" y="1724.4" class="st21" width="33.6" height="10.6"/>
			<rect x="2583.7" y="1691.4" class="st21" width="32.8" height="12.6"/>
			<rect x="2599.9" y="1708" class="st21" width="32.8" height="12.6"/>
			<rect x="2588.3" y="1727" class="st21" width="33.6" height="10.6"/>
			<rect x="2307" y="1140.2" class="st21" width="32.6" height="10.6"/>
			<rect x="2239.4" y="1471.1" class="st22" width="445.6" height="96"/>
			<rect x="2239.4" y="1526.5" class="st23" width="445.6" height="40.6"/>
			<g>
				<path class="st24" d="M2369.6,1547.2c-1.7-0.9-2.9-1.8-3.8-2.8s-1.2-1.6-1.2-1.8l2.2-4.3c0,0.1,0.4,0.6,1.1,1.4s1.8,1.6,3,2.3
					c1.3,0.7,2.8,1,4.4,1c1.8,0,3.2-0.6,4.2-1.9c1-1.2,1.5-2.9,1.5-4.9c0-1.3-0.3-2.4-0.8-3.4c-0.5-1-1.2-1.8-2-2.5
					c-0.8-0.7-1.9-1.5-3.3-2.6c-1.8-1.2-3.4-2.4-4.5-3.6c-1.2-1.1-2.2-2.6-3-4.5s-1.3-4.1-1.3-6.8c0-2.9,0.5-5.5,1.6-7.7
					c1-2.2,2.5-3.9,4.3-5s3.9-1.8,6.2-1.8c1.5,0,3,0.2,4.3,0.8s2.5,1.1,3.4,1.7s1.4,1,1.4,1l-0.9,5.1c-0.2-0.2-0.7-0.5-1.4-1
					c-0.8-0.5-1.7-1-2.8-1.5c-1.1-0.5-2.3-0.7-3.5-0.7c-1.4,0-2.6,0.5-3.5,1.6s-1.3,2.6-1.3,4.4c0,2.1,0.5,3.8,1.6,5
					s2.6,2.6,4.8,4.1c1.9,1.3,3.4,2.6,4.6,3.7c1.1,1.1,2.1,2.6,2.9,4.4c0.8,1.9,1.2,4.2,1.2,7c0,3-0.6,5.6-1.8,7.8
					c-1.2,2.2-2.7,3.9-4.7,5s-4.2,1.8-6.6,1.8C2373.3,1548.4,2371.2,1548,2369.6,1547.2z"/>
				<path class="st24" d="M2397.5,1541.9c-2.9-4.4-4.4-10.4-4.4-18.1c0-5.1,0.7-9.5,2-13.3c1.3-3.8,3.3-6.8,5.9-8.9s5.6-3.1,9.1-3.1
					c1.8,0,3.5,0.3,5.2,0.9s3.2,1.2,4.4,1.9c1.2,0.7,1.9,1,1.9,1.1l-0.8,5.4c-0.3-0.2-0.9-0.6-1.9-1.2s-2.3-1.1-3.7-1.7
					c-1.4-0.6-2.8-0.8-4-0.8c-2.1,0-3.9,0.6-5.2,1.9s-2.3,3.3-3,6.1s-1,6.6-1,11.4c0,7,0.8,12,2.4,15s4,4.5,7.3,4.5
					c1.8,0,3.4-0.5,4.8-1.5c1.4-1,2.5-2.1,3.4-3.3c0.9-1.2,1.3-1.9,1.3-2.1l2.5,3.6c0,0.2-0.5,1.1-1.5,2.7s-2.5,3-4.4,4.3
					c-1.9,1.3-4.3,2-7.2,2C2404.7,1548.4,2400.4,1546.3,2397.5,1541.9z"/>
				<path class="st24" d="M2428.4,1547.6v-48.4h7.9v21.2h12.9v-21.2h7.9v48.4h-7.9v-22.1h-12.9v22.1H2428.4z"/>
				<path class="st24" d="M2468,1541.8c-2.9-4.4-4.4-10.5-4.4-18.3s1.5-13.9,4.4-18.3s7.1-6.7,12.5-6.7c5.4,0,9.6,2.2,12.6,6.7
					c3,4.5,4.4,10.6,4.4,18.3c0,7.7-1.5,13.8-4.4,18.2s-7.2,6.7-12.6,6.7C2475.1,1548.4,2470.9,1546.2,2468,1541.8z M2486.8,1538.5
					c1.3-3.1,1.9-8.1,1.9-15c0-6.8-0.6-11.8-1.9-15s-3.4-4.7-6.3-4.7c-2.9,0-4.9,1.6-6.2,4.7c-1.3,3.1-1.9,8.1-1.9,15
					c0,6.9,0.6,11.9,1.9,15s3.3,4.7,6.2,4.7C2483.4,1543.2,2485.5,1541.6,2486.8,1538.5z"/>
				<path class="st24" d="M2506,1541.8c-2.9-4.4-4.4-10.5-4.4-18.3s1.5-13.9,4.4-18.3c2.9-4.5,7.1-6.7,12.5-6.7
					c5.4,0,9.6,2.2,12.6,6.7c3,4.5,4.4,10.6,4.4,18.3c0,7.7-1.5,13.8-4.4,18.2s-7.2,6.7-12.6,6.7
					C2513.1,1548.4,2508.9,1546.2,2506,1541.8z M2524.8,1538.5c1.3-3.1,1.9-8.1,1.9-15c0-6.8-0.6-11.8-1.9-15s-3.4-4.7-6.3-4.7
					c-2.9,0-4.9,1.6-6.2,4.7c-1.3,3.1-1.9,8.1-1.9,15c0,6.9,0.6,11.9,1.9,15s3.3,4.7,6.2,4.7
					C2521.4,1543.2,2523.5,1541.6,2524.8,1538.5z"/>
				<path class="st24" d="M2542,1547.6v-48.4h7.9v43.1h14.4v5.4L2542,1547.6L2542,1547.6z"/>
			</g>
			<polygon class="st16" points="2655.8,1337.3 2682.6,1337.3 2637.9,1251.9 2611.1,1251.9 			"/>
			<polygon class="st16" points="2615.1,1337.3 2642,1337.3 2597.3,1251.9 2570.5,1251.9 			"/>
			<polygon class="st16" points="2497.7,1337.3 2524.5,1337.3 2479.9,1251.9 2453,1251.9 			"/>
			<polygon class="st16" points="2457.1,1337.3 2483.9,1337.3 2439.3,1251.9 2412.4,1251.9 			"/>
			<polygon class="st16" points="2339.6,1337.3 2366.4,1337.3 2321.8,1251.9 2294.9,1251.9 			"/>
			<polygon class="st16" points="2299,1337.3 2325.9,1337.3 2281.2,1251.9 2254.3,1251.9 			"/>
			<polygon class="st16" points="2655.8,1458.6 2682.6,1458.6 2637.9,1373.3 2611.1,1373.3 			"/>
			<polygon class="st16" points="2615.1,1458.6 2642,1458.6 2597.3,1373.3 2570.5,1373.3 			"/>
			<polygon class="st16" points="2497.7,1458.6 2524.5,1458.6 2479.9,1373.3 2453,1373.3 			"/>
			<polygon class="st16" points="2457.1,1458.6 2483.9,1458.6 2439.3,1373.3 2412.4,1373.3 			"/>
			<polygon class="st16" points="2339.6,1458.6 2366.4,1458.6 2321.8,1373.3 2294.9,1373.3 			"/>
			<polygon class="st16" points="2299,1458.6 2325.9,1458.6 2281.2,1373.3 2254.3,1373.3 			"/>
			<rect x="2229.4" y="1575.2" class="st8" width="465.5" height="40.5"/>
			<rect x="1825.7" y="1179.9" class="st8" width="527.7" height="18.9"/>
			<rect x="2284.4" y="1179.9" class="st8" width="816.2" height="18.9"/>
		</g>
		<g>
			<g>
				<path class="st10" d="M3527,1675.3c14.2-37,28.1-74,38.2-112.5c31.1-118.4,23.6-204.7,22.4-246.2c-0.1-5.5,8.6-7,9.4-1.3
					c2.6,19.5,3.2,39.3,3.4,58.9c0.2,33.2-1.8,66.4-6.1,99.6c22.8,5.9,44.4-3,62.1-18.9c30.4-27.6,41.3-64.3,46.1-104.9
					c0.5-4.2,0.6-8.1,4-10.5c0.8-2.1,3.9-2.8,4.6,0.4c4.8,5,2.5,14.9,1.7,21.3c-10,86.6-62.7,128.6-105.1,128.2
					c-4.6,0-10.3-0.3-15.4-1.7c-3.1,20.7-7,41.3-11.8,61.7c-9.2,38.8-22,76.2-36.1,113.3c-48.4,126.8-63.8,191.6-77.5,228.3
					c-2.1,7.4-13,4.3-11.1-3.2C3456.6,1885.2,3494.4,1760.2,3527,1675.3z"/>
				<path class="st10" d="M3333.3,1341.8c0.5-2.7,2.1-4.5,2.7-7.1c0.8-3.4,6.3-3.7,6.9,0c0.3,2.1,1.5,3.4,2,5.6
					c1.5,7-2.1,46.5,7.2,106.9c2.5,16.1,5.2,32,10.6,47.3c8.6,24.8,24.4,51.5,44,68.3c0.6-35.4,2.7-70.7,7-105.8
					c2.5-21,5.7-42,9.6-62.8c1.9-10.1,3.9-20.2,6.1-30.3c2.3-10.6,4.5-20.7,9.6-30.3c1.6-2.9,6-1.6,6,1.7c0,9.4-1.9,18-3.8,27.1
					c-1.9,9.1-3.8,18.2-5.5,27.3c-12.6,67.6-17.3,127.7-17.3,195.4c20.7-26.1,38.9-57.3,52.3-88c16.1-36.9,27-76.6,31.6-116.9
					c1.3-11.3,2-22.6,2.3-33.9c0.1-5.9,0.2-11.8,0.4-17.6c0.1-3,1.2-12.1,6.3-9.5c4.7,2.5,4.2,7.9,4.6,12.7
					c0.4,5.2,0.5,10.4,0.4,15.7c-0.1,10-0.7,20.1-1.6,30c-6.7,72.3-34,143.9-75.5,202.5c-6.3,8.9-12.9,18.5-20.5,26.3
					c1.8,115.8,19,262.1,19.3,273.8c0.1,2.6-0.5,5.2-0.9,7.8c-0.8,5.3-7.7,4-9.1,0c-2.7-7.6-2.4-10.6-6.4-52.8
					c-7.1-75.3-15-247.9-15-254.9c-24.6-17.7-42.1-44.9-53.5-73.4c-6.1-15.1-9.6-30.6-12.3-46.7
					C3331.5,1405.5,3331.8,1350.8,3333.3,1341.8z"/>
			</g>
			<path class="st8" d="M3502.7,1247.3c-0.9-8.3-1.4-16.9-1.4-25.6c0-96.8,60.2-175.3,134.4-175.3s134.4,78.5,134.4,175.3
				c0,8.7-0.5,17.2-1.4,25.6H3502.7z"/>
			<path class="st9" d="M3350.6,1204.3c-0.9-11.8-1.4-23.8-1.4-36.1c0-136.6,60.2-247.3,134.4-247.3s134.4,110.7,134.4,247.3
				c0,12.2-0.5,24.3-1.4,36.1H3350.6z"/>
			<path class="st8" d="M3614.9,1355.8c1.2-11.8,1.8-23.8,1.8-36.1c0-136.6-76.3-247.3-170.4-247.3c-94.1,0-170.4,110.7-170.4,247.3
				c0,12.2,0.6,24.3,1.8,36.1H3614.9z"/>
			<path class="st9" d="M3484.1,1072.5c47,0,89.1,35.1,116.8,90.2c14.1-5.1,29.1-7.8,44.7-7.8c83.5,0,151.2,78.5,151.2,175.3
				c0,8.7-0.6,17.2-1.6,25.6h-460.6c-1.1-11.8-1.6-23.8-1.6-36.1C3332.9,1183.2,3400.6,1072.5,3484.1,1072.5z"/>
		</g>
		<g>
			<path class="st8" d="M3396.5,1697.5l14-17.9c10.1-13.5,8.1-32.1-4.6-41.7l0,0c-32-24-78.6-16-104.1,17.9l-18.7,24.8
				c-8.2,10.9-21.1,16-33.1,14.3c-10.9-1.5-22.1,3.6-29.1,12.8l-9.8,13.1c-10.7,14.2-14.3,32.1-10.6,48.8c2.2,9.8,0.1,20.7-6.6,29.6
				l-13.9,18.5c-15.4,20.5-12.3,48.8,7,63.4l11,8.3c19.3,14.5,47.4,9.7,62.8-10.8l0,0c16.3-28.3,35.2-37.4,50.5-39.3
				c22.5-2.8,43.4-14.7,57.4-33.4l2-2.6c14.8-19.7,20.1-44.6,15.3-67.9C3383.7,1725.2,3385.4,1712.2,3396.5,1697.5z"/>
			<path class="st5" d="M3119.1,1894.2c0,0,72.3-96,117.8-110.7s9.9,36,9.9,36s73.4-80.5,103-72.5c27.1,7.3,0,62,0,62
				s30.6-30.3,67.6-30.3c37.1,0-28.6,113.4-28.6,113.4L3119.1,1894.2z"/>
			<path class="st7" d="M3349.8,1893.7c0,0,50.1-141.3,111.3-126c49.6,12.4,13.6,88,16.7,85c3-3,29.6-48.2,72.6-48.2
				s-13.2,60.9-13.2,60.9s91.7-28.6,98.9,1.4c6,24.9-27.4,26.8-27.4,26.8H3349.8z"/>
		</g>
		<g>
			<path class="st25" d="M1612.4,1515.6c0,0,23.2,114,12.6,124.5c-10.6,10.6-69.1,32.2-82.4,27.2c-13.3-4.9-40.6-135.1-33-148
				S1606.3,1497.5,1612.4,1515.6z"/>
			<path class="st26" d="M1603,1854c0,0-1.5,13.1-1.5,15.3s0,2.2,0,2.2l1.1,2.3l0.4,0.9l-7.8,11c0,0-31.4,0.5-32.1,0.5
				s4.2-7.6,4.2-7.6s10.4-7.8,12.3-13.3s-1.6-16.9-1.6-16.9L1603,1854z"/>
			<path class="st26" d="M1754.5,1775.7c0,0,11.2,6.9,12.9,8.3c1.7,1.4,1.7,1.4,1.7,1.4l1.1,2.3l0.4,0.9l13.5,0.7
				c0,0,19.9-24.3,20.3-24.9c0.4-0.6-5.7,0.8-5.7,0.8s-12.6,1.7-18-0.2c-5.5-1.9-16.5-12.8-16.5-12.8L1754.5,1775.7z"/>
			<path class="st27" d="M1652.8,1652.9l120.6,102.7l-18.6,26.3c0,0-118.3-74.3-124.8-75.2s-16.7,1.4-17.9,6.1
				c-1.2,4.7-5,144.8-5,144.8h-32.2l-16.8-178.8L1652.8,1652.9z"/>
			<g>
				<path class="st26" d="M1479.1,1506.4c-8.9-5.8-29.9-28.3-37-36c-0.1-0.9-0.8-6.1-6.5-12.7c-4-4.7-7.1-15.3-9.7-12.3
					c-2.6,3,3.9,11.5,0.9,11.5s-17.9-16.7-20.3-14c-2.4,2.7,12.7,17.6,10.1,17.7c-2.7,0.1-15-15-18.4-11.2s16.1,16.4,14.3,18.5
					s-13.9-6.2-16.6-3c-2.7,3.1,17,10.4,15.5,10.5s-13-0.3-13.1,1.9c-0.1,2.5,28.8,6.3,32.4,10.6l0,0c7.6,12,21,34,34.7,43.7
					c16.7,11.8,55.2,36.9,55.2,36.9l19.2-24.7C1539.7,1543.8,1489.7,1513.4,1479.1,1506.4z"/>
				<path class="st28" d="M1426.8,1462.3c-0.7,1.5-1.1,3.1-1.2,4.7c0.1,0.3-0.7,5.4,3.8,9.4
					C1427.7,1473.1,1425.8,1469.5,1426.8,1462.3z"/>
			</g>
			<g>
				<path class="st26" d="M1655.8,1479.3c7.1-8,21.4-35.2,26.3-44.4c-0.2-0.9-0.9-6.1,2.9-14c2.7-5.6,2.8-16.6,6.2-14.4
					c3.3,2.2-0.8,12.1,2.1,11.4s12.9-20.8,15.9-18.8c3,2-7.7,20.3-5.1,19.7s10.5-18.4,14.8-15.6c4.3,2.8-11.3,20.1-9,21.6
					s11.8-9.6,15.2-7.3c3.4,2.3-13.7,14.5-12.2,14.2c1.5-0.4,12.5-3.7,13.1-1.6c0.7,2.4-26.2,13.7-28.5,18.8l0,0
					c-4.2,13.6-11.4,38.4-22,51.2c-13,15.8-43.7,50-43.7,50l-25-18.9C1607.1,1531.3,1647.4,1488.8,1655.8,1479.3z"/>
				<path class="st28" d="M1694.7,1423.1c1.1,1.2,1.8,2.7,2.3,4.2c0,0.3,2.1,5.1-1.2,10C1696.7,1433.8,1697.6,1429.8,1694.7,1423.1z
					"/>
			</g>
			<path class="st29" d="M1635.6,1497.6l22.5,29.4l-27.9,41.6c0,0,2.6,30.9,6.7,40.5s27.3,49.2,27.3,49.2s-56.6,34.7-112,29.6
				c0,0-15.6-80.3-20-88c-4.4-7.7-46.6-45.9-46.6-45.9l20.5-33.1l35.4,19.6c0,0,64.7-10.5,67.8-13.6
				C1612.4,1523.9,1635.6,1497.6,1635.6,1497.6z"/>
			<path class="st19" d="M1562.6,1437.6c0,0,21.8-11.6,29.3,7.6c0,0,19.6-2,16.2,18.3c0,0,19.7,9.9,7.2,35.5c0,0,5.5,24.1-22.7,25.6
				c0,0-4.2,8.5-17.1,6.5c-12.8-2-16.1-5.4-16.1-5.4s-22.8,6.7-29.7-13.9c0,0-15.7-3.7-5.1-23.8c0,0-13.7-26.1,10.4-33.9
				C1535.1,1454.2,1537.9,1427.5,1562.6,1437.6z"/>
			<path class="st26" d="M1553.8,1494c1.8,4.9,0.5,9.9-2.8,11.1s-7.5-1.8-9.3-6.8c-1.8-4.9-0.5-9.9,2.8-11.1
				C1547.8,1486,1552,1489.1,1553.8,1494z"/>
			<path class="st26" d="M1612.7,1481.8c0.2,5.3-2.4,9.7-6,9.8c-3.6,0.2-6.6-4-6.9-9.2c-0.2-5.3,2.4-9.7,6-9.8
				C1609.4,1472.5,1612.4,1476.6,1612.7,1481.8z"/>
			<path class="st26" d="M1587.7,1516.7c0,0.3,2.8,12.5,4.3,19c0.6,2.4-0.7,4.9-2.9,5.9c-6,2.7-17.8,6.6-26-0.8
				c-0.7-0.7-1.1-1.7-1.1-2.7l1-29.1L1587.7,1516.7z"/>
			<path class="st28" d="M1589.2,1523.5c-6.4,3.2-14.3,3.3-23.3-2c-1.1-0.7-2.2-1.4-3.2-2.1l0.4-10.4l24.7,7.7
				C1587.7,1516.8,1588.4,1519.8,1589.2,1523.5z"/>
			<path class="st26" d="M1570.2,1449.4c0,0-10.8,2.8-17.1,13.3c-6.3,10.5-9.8,40.7,12.8,54c22.6,13.2,39-7.3,38.6-26.7
				C1604.1,1470.7,1595.4,1445.9,1570.2,1449.4z"/>
			<path class="st25" d="M1608.7,1893.7c4.8-0.6-3.5-17.2-6.2-19.9l-35.3,4.8c0,0-17,7.9-21,11.9c-1,1-1.1,2.6,3.1,3.2
				C1562.6,1895.7,1598.1,1895,1608.7,1893.7z"/>
			<path class="st25" d="M1782.4,1805.1c-4.2,2.5-11.7-13.7-12.1-17.5l28.5-22.5c0,0,22-6.3,26.4-1.9
				C1829.3,1767.3,1791.8,1799.4,1782.4,1805.1z"/>
			<g>
				<path class="st25" d="M1543.2,1655.5c22.8-22.8,18.2-92.7,14.1-122.3l-9.8,1.4c3.5,25,8.3,94.3-11.3,113.9L1543.2,1655.5z"/>
			</g>
			<g>
				<path class="st25" d="M1640.4,1616.3l1.1-8.9c-17.7-50.1-33.9-82.3-34.1-82.7l-8.8,4.4
					C1598.8,1529.5,1617.4,1573.6,1640.4,1616.3z"/>
			</g>
		</g>
		<g>
			<path class="st14" d="M1203,1524.1c0,0-38.8-5.2-53,2.2c-14.2,7.3-21.9,94.6-21.9,94.6l12.6,3.8c0,0-1.8,60.4,7.8,64.6
				s77.2-8.8,92.6-24.2c15.4-15.4-13.6-144.2-13.6-144.2L1203,1524.1z"/>
			<g>
				<path class="st26" d="M1279.7,1462.5c4.5-10.2,10.2-41.7,12.1-52.4c-0.4-0.8-2.8-5.8-1.5-14.8c0.9-6.4-2.4-17.4,1.6-16.3
					s3,12.3,5.7,10.6c2.7-1.7,6.3-24.8,9.9-23.7s-1.2,22.7,1.2,21.2c2.4-1.5,4.7-21.6,9.8-20.2s-4.9,23.5-2.1,24.3s8.7-13.2,12.9-12
					s-9.1,18.8-7.7,17.9s11.2-7.6,12.5-5.7c1.5,2.1-21.7,21.8-22.4,27.6l0,0c0.2,14.8,0.8,41.7-5.8,57.9
					c-8,19.8-27.7,63.5-27.7,63.5l-30.8-10.9C1247.6,1529.5,1274.3,1474.6,1279.7,1462.5z"/>
				<path class="st28" d="M1300.6,1394.3c1.5,0.9,2.7,2.1,3.6,3.4c0.1,0.3,3.6,4.4,2,10.3C1306,1404.3,1305.6,1400.1,1300.6,1394.3z
					"/>
			</g>
			<path class="st26" d="M1082.8,1532c0,0,1.3-5-2-13.3c-2.2-5.3-1.9-15.7-4.9-13.8s0.2,11.3-2.3,10.5s-10.7-20.1-13.5-18.3
				c-2.8,1.7,6.1,19.4,3.8,18.6c-2.3-0.8-8.7-17.7-12.6-15.3c-3.9,2.4,9.3,19.3,7.2,20.6c-2.1,1.3-10.2-9.5-13.3-7.6
				s11.7,14.3,10.3,13.8c-1.3-0.4-11-4.1-11.7-2.1c-0.8,2.2,19.2,10.9,21.1,15.8s32.5,54.5,42.6,55.6c10.2,1.1,59.1-24.8,63.5-34.5
				c4.4-9.7,1.4-20.8-5.1-22.9s-52.3,23.9-54.4,23.3C1109.4,1561.7,1082.8,1532,1082.8,1532z"/>
			<path class="st28" d="M1073.9,1518.9c-1.2,1.3-1.9,2.8-2.5,4.3c0,0.3-2.2,5.3,1.2,10.4C1071.8,1530,1070.9,1525.9,1073.9,1518.9z
				"/>
			<path class="st26" d="M1124.4,1763.7c-5.3-1.8-14.8-11.4-14.8-11.4c-12.2,9.4-37.5,38.9-37.5,38.9s4.7,3.3,8.8,1.4
				c4-1.8,22.6-10.1,31.2-7.2c2.2,0.8,27.4,9.3,49.8,15.1c2.8-8-4.8-24-1.1-31.5C1148.9,1765.1,1126.2,1764.3,1124.4,1763.7z"/>
			<path class="st30" d="M1118.3,1760c0,0-21.9,22.4-24,26.3c-1.7,3.2-28.9,14.3-30.3,10.2c-1.4-4.2,32.3-48.6,37.6-50.3
				S1118.3,1760,1118.3,1760z"/>
			<path class="st26" d="M1260.1,1828.7c-1.8,5.1-11.7,14.4-11.7,14.4c9.9,11.7,40.7,35.7,40.7,35.7s3.3-4.6,1.4-8.5
				s-11.8-28-8.8-36.3c0.8-2.2,6.5-18.4,11.9-27.6c-8.3-2.6-16.5-6.5-24.3-10C1265.5,1808,1260.8,1827.1,1260.1,1828.7z"/>
			<path class="st27" d="M1256.7,1655.2c0,0,57,56.3,62.8,67.1c4.3,8.1-22,91.5-22,91.5s-24.7-1.9-35.1-11.8
				c0,0,13.1-58.2,10.4-60.8s-67.8-40.4-67.8-40.4l8.1-34.5L1256.7,1655.2z"/>
			<path class="st19" d="M1244.1,1653.8c0,0-14.9,34.5-14.9,48c0,10.3,4.6,93-17.2,100.9c-12.4,4.5-70.6-2.2-70.6-2.2l5.3-37.4
				c0,0,27.7,4.1,30.1,1.8s-22.2-64.7-17.1-86.1c5.1-21.4,47.8-34.4,47.8-34.4L1244.1,1653.8z"/>
			<path class="st31" d="M1262.6,1493.3c0,0,6.9,2.1,28.3,31.2l-34.3,54.3l-20.9-50.4L1262.6,1493.3z"/>
			<path class="st31" d="M1212.6,1528.8c0,0,18.9-2.1,25.8-4.6c6.8-2.5,51.6,145.3,35.9,148.7c-32.7,7-117.7,25.8-117.7,25.8
				s-1.5-8.4,3.1-23c7.9-25.3,12.4-83.1,12.4-93.3c0-6-31,14.8-31,14.8l-13-47c0,0,39.6-15.9,53.5-18.8
				C1185.4,1530.6,1212.6,1528.8,1212.6,1528.8z"/>
			<g>
				<path class="st14" d="M1271.6,1623.7c-5-24.1-47.4-96.5-47.8-97.2l8.7-4.7c1.5,2.8,35.8,64.1,41.1,89.6L1271.6,1623.7z"/>
			</g>
			<path class="st30" d="M1256.7,1834.2c0,0,24.7,22.5,29.2,24.7c3.6,1.8,12.1,28.4,7.4,29.9c-4.6,1.5-50.5-31.6-52.4-37.1
				C1239.1,1846.2,1256.7,1834.2,1256.7,1834.2z"/>
			<g>
				<path class="st14" d="M1159.3,1655.3l-4.4-7.1c0.4-0.2,37.9-24.2,42.1-54.7c4.3-30.9-17.5-63.3-17.7-63.6l6.9-4.7
					c1,1.4,23.8,35.4,19.1,69.5C1200.5,1629.1,1161,1654.3,1159.3,1655.3z"/>
			</g>
			<g>
				<path class="st8" d="M1213.1,1429.9c0,0,15-5.4,24.7,9.8s4.4,13.8,9.2,21.3c4.7,7.6,17,6,17,17.8s-5.5,13.6-5.5,13.6
					s5,9.2-0.5,18.6c-5.5,9.4-19.2,17.6-30.7,16.2c0,0-17.2,9.4-34.5,5c-17.3-4.5-11.3-4.5-18.3-4.5s-26.2-9.7-23.1-23.8
					c0,0-11.7-13.8-0.3-25.1s13.4-22.8,20-38S1205.2,1426.3,1213.1,1429.9z"/>
			</g>
			<path class="st26" d="M1223.1,1510.8c0,0-0.6,20.9,1.3,22.8s4.7,5.2,1.8,10.2c-2.9,5-15.4,1.8-21.2-1.1c-5.6-2.7-9.2-7.8-9.2-7.8
				l2.9-33L1223.1,1510.8z"/>
			<path class="st27" d="M1214.8,1519.4c-4-1.4-11-4.1-16.4-12.9l0.4-4.6l24.4,8.9c0,0-0.2,5.1-0.1,10.5
				C1219.6,1521.1,1216.7,1520.1,1214.8,1519.4z"/>
			<path class="st26" d="M1194.4,1478.3c0,0-0.6-12.3-8.1-9.9s-1.8,20.9,4.4,20.3C1197,1488.1,1194.4,1478.3,1194.4,1478.3z"/>
			<path class="st26" d="M1218.1,1438.2c0,0,11.8-0.3,17.8,8.9c6,9.2,12.6,35.4,2.6,53.4c-9.9,18.1-22.7,13.6-27.9,11.8
				s-15.6-5.9-20.8-22.8S1188.4,1434.7,1218.1,1438.2z"/>
		</g>
		<rect x="209.8" y="1892.7" class="st8" width="3452.3" height="11.2"/>
	</g>
	<path class="st0" d="M1234.6,1491.1l-18.8,0c0,0,0.4,7.1,8.7,7.4C1234.6,1498.8,1234.6,1491.1,1234.6,1491.1z"/>
	<path class="st0" d="M1590.9,1500.2l-18.7,1.7c0,0,1.1,7.1,9.3,6.6C1591.6,1507.8,1590.9,1500.2,1590.9,1500.2z"/>
</g>
</svg>
