<?xml version="1.0" encoding="utf-8"?>
<!-- Generator: Adobe Illustrator 24.3.0, SVG Export Plug-In . SVG Version: 6.00 Build 0)  -->
<svg version="1.1" id="Layer_3" xmlns="http://www.w3.org/2000/svg" xmlns:xlink="http://www.w3.org/1999/xlink" x="0px" y="0px"
	 viewBox="0 0 1000 800" style="enable-background:new 0 0 1000 800;" xml:space="preserve">
<style type="text/css">
	.st0{display:none;}
	.st1{display:inline;filter:url(#Adobe_OpacityMaskFilter);}
	.st2{fill:url(#XMLID_7_);}
	.st3{display:inline;mask:url(#XMLID_6_);}
	.st4{display:inline;}
	.st5{filter:url(#Adobe_OpacityMaskFilter_1_);}
	.st6{fill:url(#XMLID_9_);}
	.st7{mask:url(#XMLID_8_);}
	.st8{filter:url(#Adobe_OpacityMaskFilter_2_);}
	.st9{fill:url(#XMLID_11_);}
	.st10{mask:url(#XMLID_10_);}
	.st11{filter:url(#Adobe_OpacityMaskFilter_3_);}
	.st12{fill:url(#XMLID_13_);}
	.st13{display:none;mask:url(#XMLID_12_);}
	.st14{display:inline;fill:#808184;}
	.st15{fill:url(#XMLID_14_);}
	.st16{fill:url(#XMLID_15_);}
	.st17{fill:url(#XMLID_16_);}
</style>
<g id="Layer_2" class="st0">
	<defs>
		<filter id="Adobe_OpacityMaskFilter" filterUnits="userSpaceOnUse">
			<feColorMatrix  type="matrix" values="1 0 0 0 0  0 1 0 0 0  0 0 1 0 0  0 0 0 1 0"/>
		</filter>
	</defs>
	<mask maskUnits="userSpaceOnUse" id="XMLID_6_" class="st4">
		<g id="XMLID_1513_" style="filter:url(#Adobe_OpacityMaskFilter);">
			
				<linearGradient id="XMLID_7_" gradientUnits="userSpaceOnUse" x1="1984.6409" y1="1760.5367" x2="1833.9009" y2="1659.2655" gradientTransform="matrix(-0.9923 0.1239 -0.1239 -0.9923 979.8064 250.7552)">
				<stop  offset="0" style="stop-color:#FFFFFF"/>
				<stop  offset="1" style="stop-color:#231F20"/>
			</linearGradient>
			<polygon id="XMLID_1514_" class="st2" points="-992.6,-1233.1 -1149.6,-1213.5 -1138.4,-1124.1 -981.4,-1143.7 			"/>
		</g>
	</mask>
	<g id="XMLID_1515_" class="st3">
	</g>
	<g id="XMLID_1131_" class="st4">
		<defs>
			<filter id="Adobe_OpacityMaskFilter_1_" filterUnits="userSpaceOnUse">
				<feColorMatrix  type="matrix" values="1 0 0 0 0  0 1 0 0 0  0 0 1 0 0  0 0 0 1 0"/>
			</filter>
		</defs>
		<mask maskUnits="userSpaceOnUse" id="XMLID_8_">
			<g id="XMLID_1957_" class="st5">
				
					<linearGradient id="XMLID_9_" gradientUnits="userSpaceOnUse" x1="3466.4507" y1="5645.9106" x2="2980.6272" y2="5319.5205" gradientTransform="matrix(0.1239 0.9923 -0.9923 0.1239 -2431.6938 -4502.2554)">
					<stop  offset="0" style="stop-color:#FFFFFF"/>
					<stop  offset="1" style="stop-color:#231F20"/>
				</linearGradient>
				<polygon id="XMLID_1958_" class="st6" points="-7549.1,-1056.2 -7485.9,-550.1 -7197.7,-586.1 -7260.9,-1092.2 				"/>
			</g>
		</mask>
		<g id="XMLID_1959_" class="st7">
		</g>
		<g id="XMLID_649_">
			<defs>
				<filter id="Adobe_OpacityMaskFilter_2_" filterUnits="userSpaceOnUse">
					<feColorMatrix  type="matrix" values="1 0 0 0 0  0 1 0 0 0  0 0 1 0 0  0 0 0 1 0"/>
				</filter>
			</defs>
			<mask maskUnits="userSpaceOnUse" id="XMLID_10_">
				<g id="XMLID_653_" class="st8">
					
						<linearGradient id="XMLID_11_" gradientUnits="userSpaceOnUse" x1="244.2741" y1="-37.0694" x2="-241.5494" y2="-363.4591" gradientTransform="matrix(0.9923 -0.1239 0.1239 0.9923 -7219.4473 -1077.7969)">
						<stop  offset="0" style="stop-color:#FFFFFF"/>
						<stop  offset="1" style="stop-color:#231F20"/>
					</linearGradient>
					<polygon id="XMLID_654_" class="st9" points="-7674.9,-1200.4 -7168.8,-1263.6 -7204.8,-1551.7 -7710.9,-1488.5 					"/>
				</g>
			</mask>
			<g id="XMLID_650_" class="st10">
			</g>
		</g>
	</g>
	<g id="XMLID_1714_" class="st4">
	</g>
	<g id="XMLID_648_" class="st4">
	</g>
</g>
<defs>
	<filter id="Adobe_OpacityMaskFilter_3_" filterUnits="userSpaceOnUse">
		<feColorMatrix  type="matrix" values="1 0 0 0 0  0 1 0 0 0  0 0 1 0 0  0 0 0 1 0"/>
	</filter>
</defs>
<mask maskUnits="userSpaceOnUse" id="XMLID_12_">
	<g id="XMLID_2290_" class="st11">
		
			<linearGradient id="XMLID_13_" gradientUnits="userSpaceOnUse" x1="6753.0596" y1="1568.644" x2="6529.333" y2="1418.3385" gradientTransform="matrix(-0.9923 0.1239 -0.1239 -0.9923 979.8064 250.7552)">
			<stop  offset="0" style="stop-color:#FFFFFF"/>
			<stop  offset="1" style="stop-color:#231F20"/>
		</linearGradient>
		<polygon id="XMLID_641_" class="st12" points="-5596.4,-443.5 -5829.4,-414.4 -5812.8,-281.7 -5579.8,-310.8 		"/>
	</g>
</mask>
<g id="XMLID_2292_" class="st13">
</g>
<g id="XMLID_1120_">
	<g id="XMLID_2472_" class="st0">
		<path id="XMLID_2473_" class="st14" d="M390.2,587.9c-0.8,0-1.9-0.1-3.6-0.6c-1.7-0.5-2.3-2.2-2.8-5.8l-5.2-35.3
			c-0.2-1.2-0.5-1.8-1-1.8c-0.5,0-0.8,0.5-1.3,1.4l-15.7,32.4l-15.7-32c-0.8-1.5-1.1-1.8-1.6-1.8c-0.5,0-0.8,0.5-1,1.5l-5.7,37.1
			c-0.3,2-0.8,4.2-2.4,4.5c-0.9,0.2-1.3,0.2-1.7,0.2c-0.6,0-0.9,0.1-0.9,0.4c0,0.5,0.5,0.6,1,0.6c1.8,0,4.6-0.2,5.7-0.2
			c1,0,3.6,0.2,6,0.2c0.9,0,1.4-0.1,1.4-0.6c0-0.3-0.4-0.4-0.9-0.4c-0.6,0-1.4-0.1-2.4-0.3c-1-0.2-1.7-0.8-1.7-1.9
			c0-0.9,0.1-1.7,0.2-2.7l3-22.5h0.2c2,4.3,5.5,11.1,6,12.3c0.7,1.6,5.2,10.4,6.6,13.1c0.9,1.7,1.5,2.9,2,2.9c0.5,0,0.8-0.5,2.1-3.2
			l12.6-25.7h0.2l3.5,25.1c0.2,1.6,0.1,2.3-0.3,2.5c-0.4,0.2-0.6,0.4-0.6,0.6c0,0.3,0.3,0.5,1.7,0.6c2.3,0.2,10.3,0.3,11.7,0.3
			c0.8,0,1.5-0.2,1.5-0.6C391.1,588,390.7,587.9,390.2,587.9z M400.6,605.9h-4.4v26.3H413v-3.8h-12.3V605.9z M411.5,568.1
			c-1.2,0-1.6,0.2-1.6,0.6c0,0.4,0.4,0.5,0.7,0.5c0.3,0.1,0.9,0.1,1.2,0.1c8.2,0,14.2-5.8,14.2-13.9c0-3.1-1.6-5.6-2.9-6.9
			c-0.9-0.9-3.5-3.3-10.7-3.3c-2.7,0-6,0.2-8.4,0.2c-1.6,0-5.2-0.2-8.3-0.2c-0.9,0-1.3,0.1-1.3,0.5c0,0.4,0.3,0.5,1,0.5
			c0.8,0,1.8,0.1,2.2,0.2c1.9,0.4,2.4,1.3,2.5,3.3c0.1,1.8,0.1,3.5,0.1,12.2v10.1c0,5.3,0,9.8-0.3,12.3c-0.2,1.7-0.5,2.9-1.7,3.2
			c-0.5,0.1-1.2,0.2-2.1,0.2c-0.7,0-0.9,0.2-0.9,0.5c0,0.4,0.4,0.6,1.1,0.6c2.3,0,5.9-0.2,7.3-0.2c1.5,0,5.1,0.2,8.9,0.2
			c0.6,0,1.1-0.2,1.1-0.6c0-0.3-0.3-0.5-0.9-0.5c-0.9,0-2.1-0.1-2.9-0.2c-1.7-0.2-2.1-1.5-2.2-3.1c-0.3-2.5-0.3-7-0.3-12.3v-23
			c0-0.6,0.2-1,0.5-1.1c0.5-0.2,1.4-0.2,2.2-0.2c1.3,0,3.7,0.4,5.8,2.2c3.2,2.9,3.4,6.7,3.4,8.6
			C419.2,564.5,414.7,568.1,411.5,568.1z M274.2,578.1c-0.5,0-0.6,0.2-0.7,1.2c-0.2,1-1,2.7-2,3.8c-2.3,2.7-5.4,3.2-10.5,3.2
			c-7.7,0-18.1-6.8-18.1-20.5c0-5.6,1.1-11.1,5.3-14.9c2.5-2.3,5.8-3.6,10.8-3.6c5.3,0,9.8,1.6,11.7,3.6c1.4,1.5,2.2,3.5,2.2,5.3
			c0,0.8,0.1,1.3,0.6,1.3c0.5,0,0.6-0.5,0.7-1.3c0.1-1.2,0.1-4.3,0.2-6.2c0.1-2,0.3-2.7,0.3-3.2c0-0.3-0.2-0.6-0.9-0.7
			c-1.7-0.2-3.6-0.7-5.8-1c-2.6-0.3-4.8-0.6-8.3-0.6c-8.6,0-14.1,2.3-18.2,6.1c-5.5,5.1-6.7,11.9-6.7,15.8c0,5.6,1.5,12,7.1,17
			c5.2,4.5,11.9,6.3,19.8,6.3c3.7,0,8.1-0.4,10.4-1.3c1-0.4,1.2-0.7,1.5-1.7c0.6-2,1.3-7,1.3-7.7
			C274.7,578.5,274.6,578.1,274.2,578.1z M304.6,544.5c-17.3,0-23.8,12.7-23.8,22.6c0,10.2,6.7,22.6,23.2,22.6
			c14.6,0,23.8-10.4,23.8-23.6C327.8,552.8,318.9,544.5,304.6,544.5z M306.4,586.8c-11.1,0-17.7-9.5-17.7-21.5
			c0-14.3,7.5-18,14.2-18c9.4,0,16.9,8,16.9,20.9C319.8,584.8,310.5,586.8,306.4,586.8z M355.7,620.3c-0.5-0.5-1-1-1.7-1.4
			c-0.6-0.4-1.4-0.7-2.2-1c-0.8-0.3-1.6-0.5-2.5-0.8c-0.9-0.2-1.8-0.4-2.8-0.7c-1.1-0.3-2-0.5-2.7-0.8c-0.7-0.3-1.3-0.5-1.8-0.8
			c-0.5-0.3-0.8-0.6-1-1c-0.2-0.4-0.3-0.7-0.3-1.2c0-0.5,0.1-1,0.4-1.4c0.3-0.4,0.6-0.8,1.1-1.2c0.5-0.3,1.1-0.6,1.8-0.8
			c0.7-0.2,1.5-0.3,2.3-0.3c3.7,0,5.6,1.4,5.9,4.3h4.2c-0.1-1.3-0.3-2.4-0.8-3.4c-0.5-1-1.2-1.8-2.1-2.5c-0.9-0.7-2-1.2-3.2-1.6
			c-1.2-0.4-2.6-0.5-4.2-0.5c-1.5,0-2.8,0.2-4,0.5c-1.2,0.4-2.2,0.9-3.1,1.5c-0.9,0.6-1.5,1.4-2,2.3c-0.5,0.9-0.7,1.9-0.7,3
			c0,1,0.2,1.9,0.5,2.7c0.3,0.8,0.8,1.5,1.5,2c0.7,0.6,1.5,1.1,2.5,1.5c1,0.4,2.2,0.8,3.6,1.1c1.5,0.3,2.7,0.6,3.8,0.9
			c1,0.3,1.9,0.6,2.6,0.9c0.7,0.3,1.2,0.7,1.5,1.2c0.3,0.4,0.5,1,0.5,1.7c0,0.6-0.1,1.2-0.4,1.7c-0.3,0.5-0.7,0.9-1.2,1.3
			c-0.5,0.4-1.2,0.6-1.9,0.8c-0.7,0.2-1.6,0.3-2.5,0.3c-0.9,0-1.8-0.1-2.6-0.4c-0.8-0.2-1.5-0.6-2.2-1c-0.6-0.4-1.1-1-1.5-1.7
			c-0.4-0.7-0.6-1.4-0.7-2.3h-4.2c0,1.4,0.3,2.7,0.8,3.8c0.5,1.1,1.2,2.1,2.2,2.8c1,0.8,2.1,1.4,3.5,1.8c1.4,0.4,3,0.6,4.8,0.6
			c1.5,0,2.9-0.2,4.1-0.6c1.3-0.4,2.3-0.9,3.3-1.6c0.9-0.7,1.6-1.5,2.1-2.5c0.5-1,0.8-2.1,0.8-3.3c0-1-0.1-1.8-0.4-2.5
			C356.6,621.4,356.2,620.8,355.7,620.3z M589.3,605.9l-9.7,26.3h4.4l2.5-7.3H597l2.7,7.3h4.6l-10.1-26.3H589.3z M587.8,621.5
			l3.7-10.9h0.4l3.9,10.9H587.8z M473.6,609.2c-1.1-1.2-2.4-2.1-4-2.7c-1.6-0.7-3.3-1-5.1-1c-1.9,0-3.6,0.3-5.1,1
			c-1.5,0.6-2.9,1.6-4,2.7c-1.1,1.2-2,2.6-2.6,4.3c-0.6,1.7-0.9,3.5-0.9,5.6c0,2,0.3,3.9,0.9,5.6c0.6,1.7,1.4,3.1,2.5,4.3
			c1.1,1.2,2.4,2.1,4,2.8c1.5,0.6,3.3,1,5.2,1c1.9,0,3.6-0.3,5.2-1c1.5-0.6,2.9-1.6,4-2.8c1.1-1.2,1.9-2.6,2.5-4.3
			c0.6-1.7,0.9-3.5,0.9-5.5c0-2-0.3-3.9-0.9-5.6C475.6,611.8,474.7,610.4,473.6,609.2z M472.1,623.1c-0.4,1.2-0.9,2.3-1.6,3.1
			c-0.7,0.9-1.6,1.5-2.6,2c-1,0.5-2.1,0.7-3.3,0.7c-1.2,0-2.3-0.2-3.3-0.7c-1-0.5-1.8-1.1-2.6-2c-0.7-0.9-1.3-1.9-1.7-3.1
			c-0.4-1.2-0.6-2.6-0.6-4.1s0.2-2.8,0.6-4.1c0.4-1.2,0.9-2.3,1.7-3.1c0.7-0.9,1.6-1.5,2.6-2c1-0.5,2.1-0.7,3.3-0.7
			c1.2,0,2.3,0.2,3.3,0.7c1,0.5,1.8,1.1,2.5,2c0.7,0.9,1.2,1.9,1.6,3.1c0.4,1.2,0.6,2.6,0.6,4C472.7,620.6,472.5,621.9,472.1,623.1z
			 M660.3,614.2c0,1.9,0,3.8,0,5.7c0,1.9,0,3.8,0,5.7l-12.6-19.7h-4.4v26.3h4.1V624c0-1.9,0-3.8,0-5.7c0-1.9,0-3.8-0.1-5.7
			l12.6,19.7h4.4v-26.3h-4.1V614.2z M764.8,580.1c-0.4,0-0.5,0.2-0.6,0.9c-0.4,2.4-1.1,3.6-2.6,4.3c-1.5,0.7-3.9,0.7-5.4,0.7
			c-5.9,0-6.8-0.9-6.9-4.8c-0.1-1.7,0-7,0-8.9v-4.6c0-0.3,0.1-0.6,0.3-0.6c1.4,0,7.1,0.1,8.2,0.2c2.1,0.2,2.9,1.1,3.2,2.2
			c0.2,0.8,0.2,1.5,0.2,2.1c0,0.3,0.1,0.5,0.5,0.5c0.5,0,0.5-0.6,0.5-1.1c0-0.4,0.2-2.7,0.2-3.9c0.2-2.9,0.5-3.9,0.5-4.2
			c0-0.3-0.2-0.5-0.4-0.5c-0.3,0-0.5,0.3-0.9,0.8c-0.5,0.6-1.4,0.7-2.8,0.9c-1.3,0.1-8,0.1-9.2,0.1c-0.4,0-0.4-0.2-0.4-0.6v-14.6
			c0-0.4,0.1-0.6,0.4-0.6c1.2,0,7.2,0.1,8.2,0.2c2.9,0.4,3.5,1,3.9,2.1c0.3,0.7,0.3,1.7,0.3,2.1c0,0.5,0.1,0.8,0.5,0.8
			c0.4,0,0.5-0.3,0.6-0.6c0.1-0.7,0.2-3.2,0.3-3.8c0.2-2.6,0.5-3.3,0.5-3.7c0-0.3-0.1-0.5-0.3-0.5c-0.3,0-0.6,0.2-0.9,0.2
			c-0.5,0.1-1.4,0.2-2.5,0.3c-1.1,0.1-12.6,0.1-14.4,0.1c-0.8,0-2.1-0.1-3.6-0.1c-1.4,0-3.1-0.1-4.7-0.1c-0.9,0-1.3,0.1-1.3,0.5
			c0,0.4,0.3,0.5,1,0.5c0.8,0,1.8,0.1,2.2,0.2c1.9,0.4,2.4,1.3,2.5,3.3c0.1,1.8,0.1,3.5,0.1,12.2v10.1c0,5.3,0,9.8-0.3,12.3
			c-0.2,1.7-0.5,2.9-1.7,3.2c-0.5,0.1-1.2,0.2-2.1,0.2c-0.7,0-0.9,0.2-0.9,0.5c0,0.4,0.4,0.6,1.1,0.6c1.2,0,2.7-0.1,4-0.1
			c1.4-0.1,2.6-0.1,3.3-0.1c1.7,0,3.5,0.1,6,0.2c2.5,0.1,5.6,0.2,10,0.2c2.2,0,2.7,0,3.1-1.5c0.3-1.2,0.8-5.1,0.8-6.4
			C765.3,580.5,765.3,580.1,764.8,580.1z M627.6,545.8c0-0.5-0.6-0.5-1.3-0.5c-2.8,0-5,0.2-5.6,0.2c-1.2,0-4-0.2-7-0.2
			c-0.9,0-1.5,0.1-1.5,0.5c0,0.3,0.2,0.5,0.9,0.5c0.8,0,2.2,0,3.1,0.3c1.4,0.6,1.9,1.7,2,5.2l0.6,25.9h-0.3
			c-1-0.9-8.8-9.2-12.7-13.1c-8.4-8.4-17.2-17.6-17.9-18.3c-1-1-1.5-1.8-2.1-1.8c-0.6,0-0.7,0.8-0.7,2l-0.5,33.9
			c-0.1,5-0.3,6.7-1.8,7.1c-0.8,0.2-1.8,0.3-2.6,0.3c-0.6,0-0.9,0.1-0.9,0.5c0,0.5,0.5,0.6,1.3,0.6c3,0,5.7-0.2,6.2-0.2
			c1.1,0,3.4,0.2,7.1,0.2c0.8,0,1.3-0.1,1.3-0.6c0-0.3-0.3-0.5-1-0.5c-0.9,0-2-0.1-3-0.4c-1.2-0.4-1.9-1.9-2-6.4l-0.6-24h0.2
			c1,1.1,7.4,8.1,13.7,14.4c6,5.9,13.4,13.5,17,16.9c0.6,0.6,1.3,1.3,1.9,1.3c0.5,0,0.8-0.5,0.8-1.8l0.6-36.3
			c0.1-3.2,0.5-4.4,2.1-4.9c0.7-0.2,1.2-0.2,1.7-0.2C627.3,546.3,627.6,546.1,627.6,545.8z M731.9,587.9c-0.7,0-1.9-0.1-3.6-0.6
			c-1.7-0.5-2.3-2.2-2.8-5.8l-5.2-35.3c-0.2-1.2-0.5-1.8-1-1.8c-0.5,0-0.8,0.5-1.3,1.4l-15.7,32.4l-15.7-32
			c-0.8-1.5-1.1-1.8-1.6-1.8c-0.5,0-0.8,0.5-1,1.5l-5.7,37.1c-0.3,2-0.7,4.2-2.4,4.5c-0.9,0.2-1.3,0.2-1.7,0.2c-0.1,0-0.1,0-0.1,0
			c-0.1,0-0.1,0-0.2,0c-0.7,0-1.6-0.1-2.4-0.2c-1.2-0.3-2.9-1.1-5.1-6.3c-3.7-8.8-12.9-31.8-14.3-35c-0.6-1.3-0.9-1.8-1.4-1.8
			c-0.6,0-0.9,0.6-1.6,2.3l-14.5,35.7c-1.2,2.9-2.2,4.8-4.9,5.2c-0.5,0.1-1.3,0.1-1.8,0.1c-0.5,0-0.7,0.1-0.7,0.5
			c0,0.5,0.3,0.6,1.1,0.6c3,0,6.2-0.2,6.8-0.2c1.8,0,4.3,0.2,6.1,0.2c0.6,0,1-0.1,1-0.6c0-0.3-0.2-0.5-0.9-0.5h-0.9
			c-1.8,0-2.3-0.7-2.3-1.8c0-0.7,0.3-2.1,0.9-3.5l3.1-7.9c0.1-0.3,0.2-0.5,0.5-0.5h12.8c0.3,0,0.5,0.1,0.6,0.4l4.6,11.9
			c0.3,0.7-0.1,1.2-0.5,1.3c-0.6,0.1-0.8,0.2-0.8,0.5c0,0.4,0.7,0.4,1.7,0.5c4.6,0.1,8.8,0.1,10.9,0.1c0.8,0,1.4,0,1.8-0.1
			c0.2,0,0.3,0.1,0.5,0.1c1.8,0,4.6-0.2,5.7-0.2c1,0,3.6,0.2,6,0.2c0.9,0,1.4-0.1,1.4-0.6c0-0.3-0.4-0.4-0.9-0.4
			c-0.6,0-1.4-0.1-2.4-0.3c-1-0.2-1.7-0.8-1.7-1.9c0-0.9,0.1-1.7,0.2-2.7l3-22.5h0.2c2,4.3,5.5,11.1,6,12.3
			c0.7,1.6,5.2,10.4,6.6,13.1c0.9,1.7,1.5,2.9,2,2.9c0.5,0,0.8-0.5,2.1-3.2l12.6-25.7h0.2l3.5,25.1c0.2,1.6,0.1,2.3-0.3,2.5
			c-0.4,0.2-0.6,0.4-0.6,0.6c0,0.3,0.3,0.5,1.7,0.6c2.3,0.2,10.3,0.3,11.7,0.3c0.8,0,1.5-0.2,1.5-0.6
			C732.8,588,732.5,587.9,731.9,587.9z M654.5,571.3h-10.6c-0.2,0-0.3-0.2-0.2-0.4l5.3-14.1c0.1-0.2,0.2-0.5,0.3-0.5
			c0.2,0,0.2,0.3,0.3,0.5l5.2,14.2C654.9,571.1,654.8,571.3,654.5,571.3z M561.3,545.3c-1.1,0-4.9,0.2-6.2,0.2
			c-1.7,0-3.5-0.2-5.4-0.2c-0.7,0-1,0.1-1,0.5c0,0.3,0.5,0.5,1,0.6c1,0.2,1.2,0.9,1.2,1.4c0,0.7-0.2,1.7-0.8,3
			c-0.8,1.8-8.1,14.5-8.6,15.8c-0.9-1.6-9-15.5-9.8-17.2c-0.4-0.8-0.7-1.5-0.7-2c0-0.5,0.3-0.9,0.8-1c0.9-0.2,1.3-0.3,1.3-0.6
			c0-0.3-0.3-0.5-0.9-0.5c-2.6,0-5,0.2-6.2,0.2c-1.9,0-6.2-0.2-7.3-0.2c-0.7,0-1.1,0.2-1.1,0.5c0,0.4,0.4,0.5,0.9,0.5
			c0.7,0,1.7,0.3,2.4,0.8c1.1,0.6,2.5,2.1,4,4.2c2,3,9.7,15.7,10.1,16.6c0.7,1.7,1.3,2.9,1.3,6v4.7c0,0.9,0,3.3-0.2,5.8
			c-0.1,1.7-0.6,2.9-1.8,3.2c-0.5,0.1-1.2,0.2-2,0.2c-0.6,0-0.9,0.2-0.9,0.5c0,0.5,0.5,0.6,1.3,0.6c2.1,0,5.8-0.2,7.2-0.2
			c1.6,0,5.2,0.2,8.8,0.2c0.8,0,1.2-0.2,1.2-0.6c0-0.3-0.3-0.5-0.9-0.5c-0.8,0-2.1-0.1-2.9-0.2c-1.7-0.2-2.2-1.5-2.4-3.2
			c-0.2-2.4-0.2-4.8-0.2-5.8v-4.7c0-1.9,0-3.7,0.9-5.8c1-2.5,9.1-16,11-18.3c1.3-1.6,1.9-2.2,3.1-2.8c0.9-0.5,2-0.7,2.5-0.7
			c0.6,0,1.1-0.2,1.1-0.6C562.3,545.4,561.9,545.3,561.3,545.3z M517.2,545.8c0-0.5-0.6-0.5-1.3-0.5c-2.8,0-5,0.2-5.7,0.2
			c-1.2,0-4-0.2-7-0.2c-0.9,0-1.5,0.1-1.5,0.5c0,0.3,0.2,0.5,0.9,0.5c0.8,0,2.2,0,3.1,0.3c1.4,0.6,1.9,1.7,2,5.2l0.6,25.9h-0.3
			c-1-0.9-8.8-9.2-12.7-13.1c-8.4-8.4-17.2-17.6-17.9-18.3c-1-1-1.5-1.8-2.1-1.8c-0.6,0-0.8,0.8-0.8,2l-0.5,33.9
			c-0.1,5-0.3,6.7-1.8,7.1c-0.8,0.2-1.8,0.3-2.6,0.3c-0.2,0-0.4,0-0.5,0.1c-0.1,0-0.3-0.1-0.5-0.1c-0.7,0-1.6-0.1-2.4-0.2
			c-1.2-0.3-2.9-1.1-5.1-6.3c-3.7-8.8-12.9-31.8-14.3-35c-0.6-1.3-0.9-1.8-1.4-1.8c-0.6,0-0.9,0.6-1.6,2.3l-14.5,35.7
			c-1.2,2.9-2.3,4.8-4.9,5.2c-0.5,0.1-1.3,0.1-1.8,0.1c-0.5,0-0.7,0.1-0.7,0.5c0,0.5,0.3,0.6,1.1,0.6c3,0,6.2-0.2,6.8-0.2
			c1.8,0,4.3,0.2,6.1,0.2c0.6,0,1-0.1,1-0.6c0-0.3-0.2-0.5-0.9-0.5h-0.9c-1.8,0-2.3-0.7-2.3-1.8c0-0.7,0.3-2.1,0.9-3.5l3.1-7.9
			c0.1-0.3,0.2-0.5,0.5-0.5h12.8c0.3,0,0.5,0.1,0.6,0.4l4.6,11.9c0.3,0.7-0.1,1.2-0.5,1.3c-0.6,0.1-0.8,0.2-0.8,0.5
			c0,0.4,0.7,0.4,1.7,0.5c4.6,0.1,8.8,0.1,10.9,0.1c1.2,0,1.9,0,2.2-0.2c0.2,0.1,0.6,0.2,1,0.2c3,0,5.7-0.2,6.2-0.2
			c1.1,0,3.4,0.2,7.1,0.2c0.8,0,1.3-0.1,1.3-0.6c0-0.3-0.3-0.5-1-0.5c-0.9,0-2-0.1-3-0.4c-1.2-0.4-1.9-1.9-2-6.4l-0.6-24h0.2
			c1,1.1,7.4,8.1,13.7,14.4c6,5.9,13.4,13.5,17,16.9c0.6,0.6,1.3,1.3,2,1.3c0.5,0,0.8-0.5,0.8-1.8l0.6-36.3c0.1-3.2,0.5-4.4,2.1-4.9
			c0.7-0.2,1.2-0.2,1.7-0.2C516.8,546.3,517.2,546.1,517.2,545.8z M449.2,571.3h-10.6c-0.2,0-0.3-0.2-0.2-0.4l5.3-14.1
			c0.1-0.2,0.2-0.5,0.3-0.5c0.2,0,0.2,0.3,0.3,0.5l5.2,14.2C449.5,571.1,449.5,571.3,449.2,571.3z M530,622.2h6.4v3.6
			c-0.8,1.1-1.9,1.9-3.1,2.4c-1.3,0.5-2.7,0.8-4.4,0.8c-1.2,0-2.4-0.2-3.4-0.6c-1-0.4-1.9-1.1-2.6-1.9c-0.7-0.8-1.3-1.9-1.7-3.1
			c-0.4-1.2-0.6-2.6-0.6-4.2c0-1.6,0.2-3,0.6-4.2c0.4-1.2,1-2.3,1.7-3.1c0.7-0.8,1.6-1.5,2.6-1.9c1-0.4,2.1-0.7,3.3-0.7
			c2.1,0,3.7,0.4,4.9,1.3c1.2,0.9,1.9,2.1,2.1,3.6h4.4c-0.1-1.4-0.5-2.6-1.1-3.7c-0.6-1.1-1.4-2-2.4-2.7c-1-0.7-2.2-1.3-3.5-1.7
			c-1.3-0.4-2.8-0.6-4.5-0.6c-1.9,0-3.7,0.3-5.2,1c-1.6,0.6-2.9,1.6-4,2.7c-1.1,1.2-1.9,2.6-2.5,4.3c-0.6,1.7-0.9,3.5-0.9,5.6
			c0,2.1,0.3,3.9,0.9,5.6c0.6,1.7,1.4,3.1,2.5,4.3c1.1,1.2,2.4,2.1,3.9,2.7c1.5,0.6,3.2,0.9,5.1,0.9c1.9,0,3.5-0.3,4.9-0.8
			c1.4-0.5,2.5-1.2,3.5-2.2l0.8,2.5h2.9v-13.6H530V622.2z"/>
	</g>
	<g id="XMLID_924_">
		<radialGradient id="XMLID_14_" cx="307.4977" cy="344.3917" r="1.170411e-02" gradientUnits="userSpaceOnUse">
			<stop  offset="0" style="stop-color:#29A8E0"/>
			<stop  offset="1" style="stop-color:#1F76BB"/>
		</radialGradient>
		<path id="XMLID_925_" class="st15" d="M307.5,344.4L307.5,344.4L307.5,344.4C307.5,344.4,307.5,344.4,307.5,344.4z"/>
		<radialGradient id="XMLID_15_" cx="692.5128" cy="226.0465" r="5.099020e-04" gradientUnits="userSpaceOnUse">
			<stop  offset="0" style="stop-color:#29A8E0"/>
			<stop  offset="1" style="stop-color:#1F76BB"/>
		</radialGradient>
		<polygon id="XMLID_1137_" class="st16" points="692.5,226 692.5,226 692.5,226 		"/>
		<radialGradient id="XMLID_16_" cx="530.6954" cy="190.4746" r="443.3113" gradientUnits="userSpaceOnUse">
			<stop  offset="0" style="stop-color:#29A9E0"/>
			<stop  offset="1" style="stop-color:#3D5DA8"/>
		</radialGradient>
		<path id="XMLID_1140_" class="st17" d="M692.5,226c0,0.1-54.8,113.2-182.9,148.1c0,0-5.7-11.3-13.6-26.9l-20.9,14.3
			c6.8,5.9,11.1,14.7,11.1,24.5c0,17.9-14.5,32.5-32.5,32.5c-17.9,0-32.5-14.5-32.5-32.5c0-4.8,1-9.3,2.9-13.3l-22.9-1v23.9v0.4
			c1.7,0.6,2.9,2.2,2.9,4.2c0,2.5-2,4.4-4.4,4.4c-2.5,0-4.4-2-4.4-4.4c0-1.9,1.2-3.5,2.9-4.2v-24.5l-10-0.5l39.1-34.4h63.4
			c-17.9-35.8-42.1-84.2-40.9-83.8c1.9,0.6,57.1,61.9,100.8,60.3c38.3-1.4,78.1-28.5,105.8-52.1c-29.9-55.8-88.8-93.7-156.5-93.7
			c-98,0-177.5,79.5-177.5,177.5c0,5.4,0.3,10.7,0.7,16c25.2,24.7,77,68.9,126.1,70.7c43.7,1.6,98.9-59.7,100.8-60.3
			c1.9-0.6-59.7,121.3-59.7,121.3c-128.1-34.8-182.9-148-182.9-148.1c0,0,8.1,30.8,26,62.1c25,67.7,90.1,115.9,166.5,115.9
			c98,0,177.5-79.5,177.5-177.5c0-19.3-3.1-37.8-8.8-55.2C685.7,258.3,692.5,226.1,692.5,226z M519.3,216.4h84.1l-8.3,5.7v27.2v2.7
			c1.7,0.6,2.9,2.2,2.9,4.2c0,2.5-2,4.4-4.4,4.4c-2.5,0-4.4-2-4.4-4.4c0-1.9,1.2-3.5,2.9-4.2v-1.9v-25.9L566,242
			c7.7,5.9,12.6,15.2,12.6,25.6c0,17.9-14.5,32.5-32.5,32.5c-17.9,0-32.5-14.5-32.5-32.5c0-5.5,1.4-10.6,3.7-15.1l-37.4-1.7
			L519.3,216.4z"/>
	</g>
</g>
</svg>
